<svg width="24" height="24" viewBox="0 0 24 24" fill="none" xmlns="http://www.w3.org/2000/svg">
<path d="M19.1236 5H4.87526C3.84145 5 3 5.9805 3 7.18676V16.8119C3 18.0182 3.84145 19 4.87526 19H19.1247C20.1586 19 21 18.0182 21 16.8119V7.18676C20.9989 5.9805 20.1574 5 19.1236 5ZM19.4993 9.73317L13.0422 13.6709C12.7194 13.8639 12.3594 13.9689 11.9994 13.9689C11.6395 13.9689 11.2874 13.8639 10.9566 13.6709L4.49953 9.73317V7.75511L11.6462 12.1129C11.8633 12.2441 12.1333 12.2441 12.3515 12.1129L19.4982 7.75511V9.73317H19.4993Z" fill="#29AFBD"/>
</svg>
