<svg width="24" height="24" viewBox="0 0 24 24" fill="none" xmlns="http://www.w3.org/2000/svg">
<path d="M12 1C7.31367 1 3.5 4.55775 3.5 8.93187C3.5 15.147 11.201 21.5642 11.5287 21.8337C11.6638 21.9449 11.8319 22 12 22C12.1681 22 12.3362 21.9449 12.4713 21.8346C12.799 21.5643 20.5 15.147 20.5 8.93187C20.5 4.55775 16.6863 1 12 1ZM12 13.25C9.39617 13.25 7.27778 11.2874 7.27778 8.875C7.27778 6.46263 9.39617 4.5 12 4.5C14.6038 4.5 16.7222 6.46263 16.7222 8.875C16.7222 11.2874 14.6038 13.25 12 13.25Z" fill="#29AFBD"/>
</svg>
