<svg width="24" height="24" viewBox="0 0 24 24" fill="none" xmlns="http://www.w3.org/2000/svg">
<path d="M20.9347 16.3221C20.811 15.611 20.2022 15.0451 19.4551 14.9449L15.3077 14.3902C14.555 14.2878 13.8101 14.6872 13.4984 15.3579C13.4185 15.5289 13.3521 15.7067 13.2981 15.8901C12.1358 15.4051 11.0928 14.7053 10.1938 13.8062C9.29473 12.9072 8.59374 11.8642 8.10992 10.7019C8.29332 10.6479 8.4711 10.5815 8.64213 10.5016C9.31274 10.1899 9.70993 9.44616 9.60866 8.69341L9.05394 4.546C8.9538 3.79775 8.38784 3.18903 7.66434 3.06414C7.40105 3.02025 7.18164 3 6.97348 3C5.61201 3 4.32368 3.72012 3.61256 4.87793C2.84294 6.1325 2.94983 7.73701 3.12874 8.99496C3.5338 11.8439 4.99766 14.7086 7.14451 16.8555C8.74002 18.451 10.7125 19.647 12.8469 20.3132C13.9339 20.653 15.2942 21.0074 16.605 21.0074C17.5851 21.0074 18.537 20.8094 19.3235 20.2569C20.3733 19.5176 21 18.3115 21 17.0254C21 16.8172 20.9797 16.5967 20.9347 16.3221Z" fill="#29AFBD"/>
</svg>
