<svg width="24" height="24" viewBox="0 0 24 24" fill="none" xmlns="http://www.w3.org/2000/svg">
<path d="M19.0981 14.9295C18.7874 15.2466 18.6446 15.7051 18.7154 16.1547L19.782 22.369C19.872 22.8957 19.6608 23.4288 19.2421 23.7332C18.8318 24.0489 18.2859 24.0868 17.8384 23.8342L12.5249 20.9165C12.3401 20.8129 12.135 20.7574 11.925 20.751H11.5999C11.4871 20.7687 11.3768 20.8066 11.276 20.8647L5.96124 23.7963C5.6985 23.9352 5.40097 23.9845 5.10944 23.9352C4.39921 23.7938 3.92532 23.0814 4.0417 22.3299L5.10944 16.1156C5.18023 15.6621 5.03746 15.2011 4.72673 14.879L0.394558 10.4582C0.0322434 10.0882 -0.0937269 9.53242 0.071834 9.03098C0.232596 8.5308 0.642899 8.16577 1.13838 8.08367L7.10097 7.17299C7.55446 7.12373 7.95277 6.83323 8.15672 6.40378L10.7841 0.732583C10.8465 0.606275 10.9269 0.490073 11.024 0.391553L11.132 0.303138C11.1884 0.237458 11.2532 0.183146 11.3252 0.138938L11.4559 0.0884152L11.6599 0H12.165C12.6161 0.0492599 13.0132 0.333451 13.2207 0.757844L15.8829 6.40378C16.0749 6.81681 16.448 7.10353 16.8787 7.17299L22.8412 8.08367C23.3451 8.15946 23.7662 8.52575 23.933 9.03098C24.0902 9.53747 23.9546 10.0932 23.5851 10.4582L19.0981 14.9295Z" fill="#FFB820"/>
</svg>
