<svg width="92" height="92" viewBox="0 0 92 92" fill="none" xmlns="http://www.w3.org/2000/svg">
<mask id="mask0_1_403" style="mask-type:alpha" maskUnits="userSpaceOnUse" x="0" y="0" width="92" height="93">
<rect y="0.000244141" width="92" height="92" fill="#C4C4C4"/>
</mask>
<g mask="url(#mask0_1_403)">
<path d="M59.955 75.4844C60.0801 75.4336 60.1866 75.3457 60.26 75.2324C60.54 74.8784 60.517 74.7324 60.116 74.5324C60.0547 74.5123 59.9985 74.4793 59.9511 74.4355C59.9038 74.3917 59.8664 74.3383 59.8417 74.2787C59.8169 74.2192 59.8052 74.155 59.8075 74.0906C59.8098 74.0261 59.826 73.963 59.855 73.9054C59.9251 73.6034 60.0835 73.329 60.31 73.1174C60.6687 72.8379 60.9493 72.4708 61.125 72.0514C61.2042 71.8934 61.3226 71.7584 61.469 71.6594C61.517 71.6111 61.5777 71.5775 61.6441 71.5622C61.7104 71.547 61.7797 71.5509 61.844 71.5734C61.9082 71.6063 61.9621 71.6563 61.9999 71.7179C62.0376 71.7794 62.0577 71.8502 62.058 71.9224C62.0452 72.0939 62.0153 72.2637 61.969 72.4294C62.269 72.3789 62.5373 72.2126 62.716 71.9664C62.7396 71.9224 62.7716 71.8836 62.8102 71.8521C62.8489 71.8207 62.8934 71.7971 62.9411 71.7829C62.9889 71.7687 63.039 71.7641 63.0886 71.7693C63.1382 71.7745 63.1862 71.7895 63.23 71.8134C63.403 71.9084 63.454 71.7664 63.518 71.6754C63.706 71.4104 63.87 71.1204 64.286 71.3284C64.395 71.3834 64.441 71.2574 64.498 71.1894C64.6861 70.9071 64.9 70.643 65.137 70.4004C65.2125 70.3304 65.2941 70.2675 65.381 70.2124C65.458 70.1574 65.5492 70.1258 65.6437 70.1212C65.7381 70.1166 65.832 70.1392 65.914 70.1864C66.094 70.3024 66.068 70.4864 66.022 70.6544C65.9582 70.9686 65.8169 71.2618 65.6108 71.5074C65.4047 71.753 65.1404 71.9431 64.842 72.0604C64.6818 72.1373 64.5034 72.1681 64.3268 72.1492C64.1501 72.1303 63.9822 72.0624 63.842 71.9534C63.742 71.8734 63.678 71.9004 63.609 71.9854C63.5356 72.116 63.4234 72.2207 63.288 72.2848C63.1526 72.3489 63.0006 72.3694 62.853 72.3434C62.631 72.3034 62.465 72.5764 62.265 72.6954C62.0856 72.8128 61.8789 72.8817 61.665 72.8954C61.2273 72.9136 60.8027 73.0497 60.436 73.2894C60.312 73.3694 60.197 73.4894 60.391 73.5894C60.881 73.8404 60.798 74.2454 60.718 74.6524C60.5981 75.1618 60.3778 75.6421 60.07 76.0654C59.7603 76.4353 59.3394 76.6952 58.87 76.8064C58.6763 76.8261 58.4808 76.7989 58.2998 76.7272C58.1189 76.6554 57.9578 76.5411 57.8303 76.394C57.7029 76.2469 57.6126 76.0713 57.5673 75.882C57.522 75.6927 57.5229 75.4952 57.57 75.3064C57.7183 74.439 58.0541 73.6145 58.554 72.8904C58.5347 73.1623 58.4459 73.4247 58.296 73.6524C58.0965 73.988 57.9628 74.3586 57.902 74.7444C57.8579 74.9079 57.8636 75.0809 57.9182 75.2412C57.9729 75.4015 58.0741 75.5418 58.209 75.6444C58.4824 75.7963 58.7952 75.8622 59.1067 75.8337C59.4181 75.8051 59.7137 75.6834 59.955 75.4844ZM64.624 71.3264C64.9728 71.3167 65.3099 71.1982 65.588 70.9874C65.651 70.9404 65.734 70.8874 65.698 70.7874C65.662 70.6874 65.576 70.6874 65.498 70.6744C65.3746 70.6523 65.2474 70.6796 65.144 70.7504C64.9313 70.9028 64.7539 71.0992 64.624 71.3264ZM61.482 72.4594C61.606 72.4244 61.772 72.4264 61.768 72.2484C61.768 72.0904 61.627 72.0264 61.486 72.0264C61.4502 72.0216 61.4138 72.0246 61.3793 72.0352C61.3448 72.0458 61.3129 72.0637 61.286 72.0878C61.259 72.1118 61.2376 72.1413 61.2231 72.1744C61.2086 72.2075 61.2014 72.2433 61.202 72.2794C61.204 72.4354 61.359 72.4344 61.482 72.4594Z" fill="#323393"/>
<path d="M72.268 70.7336C72.053 70.7446 71.837 70.7486 71.623 70.7706C71.409 70.7926 71.403 70.7146 71.501 70.5706C71.5666 70.4544 71.6443 70.3454 71.733 70.2456C72.4314 69.5849 73.2381 69.0491 74.118 68.6616C74.008 68.9905 73.7875 69.271 73.494 69.4556C73.094 69.6556 72.694 69.8556 72.305 70.0636C72.1653 70.1221 72.0453 70.2192 71.959 70.3436C72.22 70.3436 72.475 70.3326 72.729 70.3436C73.012 70.3586 73.059 70.4536 72.921 70.6926C72.8519 70.8207 72.7426 70.9226 72.61 70.9826C72.44 71.0586 72.27 71.1376 72.11 71.2236C71.71 71.4316 71.703 71.4786 71.996 71.7986C72.029 71.8229 72.0569 71.8535 72.078 71.8886C72.0991 71.9238 72.113 71.9627 72.1189 72.0033C72.1249 72.0438 72.1228 72.0851 72.1126 72.1248C72.1025 72.1646 72.0846 72.2019 72.06 72.2346C72.024 72.314 71.9619 72.3787 71.884 72.4178C71.8061 72.4569 71.7172 72.4682 71.632 72.4496C71.126 72.3606 71.068 72.4026 70.805 72.8336C70.659 73.0726 70.557 73.3596 70.205 73.3966C70.105 73.4066 70.14 73.5336 70.127 73.6086C70.0453 74.2805 69.8373 74.931 69.514 75.5256C69.2271 76.0937 68.7353 76.5319 68.138 76.7516C67.933 76.8524 67.7037 76.893 67.4766 76.8688C67.2495 76.8446 67.0339 76.7565 66.8547 76.6149C66.6756 76.4732 66.5402 76.2837 66.4644 76.0682C66.3885 75.8528 66.3752 75.6203 66.426 75.3976C66.4458 74.9216 66.599 74.4608 66.868 74.0676C66.96 73.9486 66.978 73.7416 67.124 73.5406C67.1337 73.7421 67.0733 73.9407 66.953 74.1026C66.7872 74.3839 66.7109 74.7089 66.734 75.0346C66.7342 75.1541 66.7588 75.2723 66.806 75.3821C66.8533 75.4918 66.9224 75.5908 67.0091 75.6731C67.0957 75.7554 67.1982 75.8192 67.3103 75.8607C67.4223 75.9022 67.5416 75.9206 67.661 75.9146C68.1396 75.9535 68.6163 75.8195 69.0045 75.5369C69.3928 75.2544 69.6668 74.842 69.777 74.3746C69.8645 73.9846 69.8787 73.5818 69.819 73.1866C69.766 72.8036 69.812 72.7536 70.196 72.7626C70.3101 72.7738 70.4249 72.7514 70.5264 72.6981C70.6279 72.6448 70.7115 72.5629 70.767 72.4626C71.007 72.0266 71.389 71.6986 71.667 71.2916C71.8485 71.0972 72.0641 70.9376 72.303 70.8206L72.268 70.7336Z" fill="#323393"/>
<path d="M40.437 69.7557L37.56 73.0107C38.006 73.1207 38.395 73.2197 38.786 73.3107C38.8473 73.3228 38.9109 73.3102 38.963 73.2757C39.191 73.0967 39.418 72.9087 39.632 72.7237C39.846 72.5387 40.149 72.4237 40.204 72.0917C40.2399 72.2165 40.2431 72.3485 40.2133 72.4749C40.1835 72.6013 40.1218 72.718 40.034 72.8137C39.6861 73.1455 39.3187 73.4564 38.934 73.7447C38.8957 73.7809 38.8464 73.8032 38.794 73.8079C38.7415 73.8126 38.689 73.7995 38.645 73.7707C38.465 73.6707 38.396 73.7597 38.345 73.9317C38.259 74.2037 38.145 74.4667 38.034 74.7317C37.9635 74.9042 37.849 75.0552 37.702 75.1697C37.627 75.2464 37.5332 75.3019 37.43 75.3308C37.3268 75.3597 37.2178 75.3608 37.1139 75.3342C37.0101 75.3075 36.9152 75.254 36.8386 75.1789C36.7621 75.1039 36.7067 75.01 36.678 74.9067C36.547 74.5074 36.5253 74.0803 36.615 73.6697C36.7237 72.8194 36.8762 71.9753 37.072 71.1407C37.219 70.9997 37.209 70.7527 37.428 70.6317C37.309 71.4147 37.193 72.1757 37.077 72.9317L37.162 72.9697C38.452 71.4487 39.869 70.0367 41.082 68.4297C41.182 68.5707 41.017 68.6627 41.075 68.7697C41.0669 68.7739 41.0605 68.7808 41.0569 68.7892C41.0532 68.7975 41.0526 68.8069 41.055 68.8157L40.437 69.7557ZM37.462 73.4347C37.11 73.4347 37.005 73.5177 37 73.8147C36.9905 73.8811 36.9952 73.9487 37.0137 74.0131C37.0323 74.0776 37.0644 74.1373 37.1078 74.1885C37.1511 74.2396 37.2049 74.2809 37.2654 74.3098C37.326 74.3386 37.3919 74.3542 37.459 74.3557C37.6195 74.3577 37.7753 74.3015 37.8976 74.1974C38.0199 74.0933 38.1003 73.9485 38.124 73.7897C38.124 73.5667 37.888 73.4397 37.462 73.4347Z" fill="#323393"/>
<path d="M29.407 72.9943C29.487 73.1613 29.391 73.2943 29.335 73.4233C29.1138 73.8847 28.9277 74.3621 28.778 74.8513C28.578 75.6223 28.91 76.0403 29.726 76.0253C30.0285 76.028 30.3259 75.9463 30.5845 75.7892C30.8431 75.6322 31.0528 75.406 31.19 75.1363C31.306 74.9293 31.3 74.7903 31.015 74.7113C30.596 74.5953 30.489 74.4113 30.603 73.9973C30.7338 73.5191 30.9642 73.074 31.279 72.6911C31.5939 72.3082 31.9861 71.9961 32.43 71.7753C32.491 71.7423 32.571 71.6903 32.63 71.7393C32.689 71.7883 32.677 71.8893 32.645 71.9653C32.5696 72.144 32.4913 72.3213 32.41 72.4973C32.38 72.5623 32.343 72.6173 32.247 72.6093C31.622 72.5613 31.347 73.0243 31.047 73.4283C30.911 73.6093 31.076 73.7063 31.233 73.7603C31.3394 73.7862 31.4327 73.8501 31.4954 73.9399C31.558 74.0298 31.5856 74.1395 31.573 74.2483C31.5662 75.0671 31.25 75.8529 30.688 76.4483C30.423 76.73 30.0671 76.9092 29.683 76.9543C29.5234 76.9939 29.3568 76.9955 29.1965 76.9591C29.0361 76.9227 28.8866 76.8493 28.7597 76.7447C28.6329 76.6401 28.5323 76.5073 28.466 76.3568C28.3997 76.2064 28.3695 76.0425 28.378 75.8783C28.3718 75.6739 28.3899 75.4695 28.432 75.2693C28.6447 74.4676 28.9731 73.7012 29.407 72.9943Z" fill="#323393"/>
<path d="M47.525 75.5954C47.7098 75.5287 47.8708 75.4091 47.988 75.2514C48.281 74.9114 48.249 74.7384 47.848 74.5344C47.7893 74.5145 47.7355 74.4821 47.6903 74.4396C47.6451 74.3971 47.6095 74.3453 47.586 74.2879C47.5625 74.2305 47.5516 74.1687 47.554 74.1066C47.5564 74.0446 47.5721 73.9839 47.6 73.9284C47.737 73.5754 47.871 73.2204 48.032 72.8784C48.1086 72.7337 48.144 72.5707 48.1343 72.4072C48.1246 72.2438 48.0702 72.0861 47.977 71.9514C47.9222 71.7758 47.9069 71.5902 47.9323 71.4079C47.9577 71.2257 48.0232 71.0514 48.124 70.8974C48.218 70.8034 48.269 70.8924 48.315 70.9524C48.4358 71.1123 48.5178 71.298 48.5544 71.495C48.5911 71.692 48.5813 71.8948 48.526 72.0874C48.4034 72.4992 48.2537 72.9024 48.078 73.2944C48.029 73.4204 48.002 73.5364 48.154 73.6054C48.554 73.7864 48.554 74.1334 48.49 74.4704C48.3799 75.2189 48.0108 75.905 47.447 76.4094C47.2427 76.5873 46.9962 76.7099 46.731 76.7654C46.5836 76.8087 46.4288 76.8204 46.2766 76.7998C46.1244 76.7793 45.9782 76.7268 45.8476 76.646C45.7171 76.5651 45.605 76.4576 45.5187 76.3306C45.4325 76.2035 45.3739 76.0596 45.347 75.9084C45.2565 75.3805 45.3283 74.8376 45.553 74.3514C45.7433 73.8289 45.9848 73.3264 46.274 72.8514C46.351 73.0444 46.244 73.1584 46.205 73.2794C46.166 73.4004 46.105 73.5454 46.049 73.6794C45.9796 73.766 45.9347 73.8696 45.919 73.9794C45.7148 74.3091 45.6125 74.6918 45.625 75.0794C45.6275 75.2479 45.6871 75.4105 45.7941 75.5406C45.9011 75.6707 46.0492 75.7605 46.214 75.7954C46.434 75.8584 46.6651 75.8732 46.8913 75.8386C47.1176 75.8041 47.3337 75.7212 47.525 75.5954Z" fill="#323393"/>
<path d="M18.092 72.8955C18.0526 73.1858 17.9586 73.4661 17.815 73.7215C17.6702 74.0377 17.5512 74.3651 17.459 74.7005C17.4125 74.8389 17.4016 74.9867 17.4274 75.1303C17.4532 75.274 17.5148 75.4088 17.6065 75.5224C17.6982 75.6359 17.8171 75.7245 17.9521 75.7799C18.0871 75.8354 18.2339 75.8558 18.379 75.8395C18.6493 75.8578 18.9201 75.8117 19.1691 75.7052C19.4182 75.5986 19.6385 75.4346 19.812 75.2265C20.083 74.9015 20.049 74.7455 19.683 74.5455C19.343 74.3595 19.283 74.2305 19.423 73.8725C19.5068 73.568 19.6708 73.2916 19.8979 73.0721C20.125 72.8525 20.4068 72.698 20.714 72.6245C20.734 72.6245 20.757 72.6075 20.775 72.6125C20.9021 72.6584 21.0422 72.6528 21.1652 72.5967C21.2882 72.5406 21.3843 72.4386 21.433 72.3125C21.4395 72.5374 21.3763 72.7589 21.252 72.9465C21.2298 72.9936 21.1983 73.0356 21.1593 73.0701C21.1203 73.1045 21.0747 73.1306 21.0252 73.1467C20.9757 73.1628 20.9235 73.1686 20.8717 73.1638C20.8199 73.1589 20.7696 73.1435 20.724 73.1185C20.573 73.0639 20.4076 73.0641 20.2566 73.1189C20.1057 73.1737 19.9788 73.2797 19.898 73.4185C19.853 73.4995 19.858 73.5575 19.94 73.5935C20.386 73.7935 20.355 74.1785 20.285 74.5405C20.1736 75.1926 19.8651 75.795 19.401 76.2665C19.2771 76.3909 19.1376 76.4988 18.986 76.5875C18.8055 76.7224 18.5901 76.8028 18.3654 76.8192C18.1407 76.8355 17.916 76.7872 17.7178 76.68C17.5197 76.5727 17.3564 76.4109 17.2472 76.2138C17.1381 76.0166 17.0877 75.7924 17.102 75.5675C17.1147 75.055 17.2368 74.5511 17.46 74.0895C17.6227 73.6679 17.8349 73.2671 18.092 72.8955Z" fill="#323393"/>
<path d="M57.146 71.5385C57.2674 71.4841 57.3771 71.4067 57.469 71.3105C57.979 70.8025 58.517 70.3215 58.998 69.7855C59.041 69.7375 59.082 69.6395 59.168 69.6945C59.254 69.7495 59.168 69.8105 59.154 69.8735C59.0269 70.2538 58.7817 70.5835 58.454 70.8145C57.728 71.5145 56.989 72.1965 56.23 72.9145C56.472 72.9735 56.73 72.9565 56.852 73.2025C56.9392 73.4234 56.9494 73.6671 56.881 73.8945C56.816 74.3532 56.6134 74.7814 56.3 75.1225C56.2215 75.2135 56.1184 75.2798 56.0031 75.3137C55.8878 75.3476 55.7652 75.3475 55.65 75.3135C55.5425 75.276 55.4482 75.2083 55.3781 75.1186C55.3081 75.0289 55.2653 74.9209 55.255 74.8075C55.1998 74.5781 55.1923 74.3399 55.233 74.1075C55.302 73.2638 55.4643 72.4304 55.717 71.6225C55.751 71.5425 55.789 71.4635 55.861 71.3025L55.884 71.7175C55.7939 72.1206 55.7487 72.5325 55.749 72.9455C56.164 72.5515 56.528 72.2115 56.884 71.8645C56.983 71.7685 57.131 71.7055 57.146 71.5385ZM56.059 74.4505C56.344 74.4505 56.599 74.2915 56.605 74.1015C56.611 73.9115 56.383 73.7455 56.105 73.7425C55.827 73.7395 55.605 73.8965 55.605 74.0905C55.605 74.2845 55.79 74.4505 56.059 74.4545V74.4505Z" fill="#323393"/>
<path d="M25.587 71.6274C25.806 72.1214 25.806 72.1214 26.127 71.8424C26.1719 71.9394 26.195 72.045 26.1947 72.1518C26.1943 72.2586 26.1706 72.3641 26.1251 72.4608C26.0797 72.5574 26.0135 72.6429 25.9315 72.7113C25.8494 72.7797 25.7533 72.8292 25.65 72.8564C25.3976 72.9731 25.1796 73.1529 25.017 73.3784C24.9235 73.5014 24.7985 73.5966 24.6551 73.654C24.5117 73.7115 24.3555 73.7289 24.203 73.7044C23.9639 73.6917 23.7254 73.7393 23.5095 73.8427C23.2935 73.9462 23.107 74.1022 22.967 74.2964C22.5699 74.8465 22.1355 75.3688 21.667 75.8594C21.2819 76.2325 20.8193 76.5159 20.312 76.6894C20.268 76.5634 20.363 76.5184 20.421 76.4834C21.3449 75.8411 22.1175 75.005 22.685 74.0334C22.8881 73.7348 23.1368 73.4699 23.422 73.2484C23.8117 72.9309 24.3061 72.7707 24.808 72.7994C25.329 72.8284 25.345 72.7924 25.342 72.2934C25.3312 72.1712 25.3476 72.0482 25.3899 71.933C25.4323 71.8179 25.4996 71.7135 25.587 71.6274Z" fill="#323393"/>
<path d="M40.998 76.6806C41.265 76.4486 41.561 76.2645 41.817 76.0295C42.204 75.6743 42.5441 75.271 42.829 74.8296C43.1401 74.3119 43.6255 73.9219 44.198 73.7296C44.306 73.6946 44.46 73.6776 44.403 73.4926C44.352 73.3306 44.253 73.3255 44.094 73.3515C43.823 73.3945 43.684 73.2056 43.789 72.9516C43.8687 72.7635 43.9606 72.5807 44.064 72.4045C44.0831 72.348 44.1178 72.298 44.164 72.2603C44.2103 72.2226 44.2662 72.1987 44.3255 72.1914C44.3847 72.184 44.4448 72.1936 44.4989 72.2189C44.5529 72.2443 44.5987 72.2843 44.631 72.3345C44.738 72.4464 44.8144 72.5839 44.8528 72.7338C44.8911 72.8838 44.8902 73.0411 44.85 73.1906C44.8315 73.4693 44.7277 73.7357 44.5528 73.9536C44.3778 74.1714 44.1402 74.3302 43.872 74.4086C43.5861 74.5053 43.3384 74.6906 43.165 74.9376C42.8018 75.4244 42.3882 75.8716 41.931 76.2716C41.6698 76.5012 41.3438 76.6441 40.998 76.6806Z" fill="#323393"/>
<path d="M49.083 76.8207C49.0992 76.7636 49.1279 76.7109 49.1669 76.6662C49.206 76.6216 49.2546 76.5863 49.309 76.5627C49.9906 76.1148 50.5699 75.528 51.009 74.8407C51.316 74.3206 51.8014 73.9297 52.375 73.7407C52.488 73.7057 52.638 73.6777 52.595 73.5047C52.555 73.3467 52.456 73.3277 52.295 73.3567C52.022 73.4057 51.874 73.2177 51.976 72.9687C52.061 72.7617 52.176 72.5687 52.276 72.3687C52.391 72.1477 52.565 72.1577 52.742 72.2797C52.8417 72.353 52.9224 72.449 52.9774 72.5598C53.0323 72.6706 53.06 72.793 53.058 72.9167C53.0799 73.2386 52.9956 73.5587 52.818 73.828C52.6405 74.0973 52.3794 74.301 52.075 74.4077C51.7492 74.5403 51.4683 74.7639 51.266 75.0517C50.9291 75.5068 50.5413 75.9218 50.11 76.2887C49.7964 76.5168 49.4502 76.6961 49.083 76.8207Z" fill="#323393"/>
<path d="M33.688 70.4483C33.6205 70.7333 33.5347 71.0135 33.431 71.2873C33.3753 71.3766 33.3425 71.4782 33.3354 71.5831C33.3283 71.688 33.3471 71.7931 33.3902 71.8891C33.4332 71.985 33.4993 72.0689 33.5824 72.1333C33.6656 72.1977 33.7633 72.2406 33.867 72.2583C34.059 72.3103 33.99 72.4213 33.952 72.5153C33.8205 72.8162 33.6562 73.1016 33.462 73.3663C33.2945 73.5765 33.2038 73.8376 33.205 74.1063C33.211 74.1973 33.223 74.3063 33.33 74.3283C33.437 74.3503 33.44 74.2463 33.467 74.1893C33.544 74.0193 33.625 74.0893 33.682 74.1893C33.7374 74.3053 33.7598 74.4343 33.7468 74.5622C33.7337 74.6901 33.6857 74.8119 33.608 74.9143C33.488 75.1333 33.339 75.3423 33.046 75.3393C32.786 75.3393 32.602 75.0273 32.646 74.6813C32.7249 74.2451 32.915 73.8366 33.198 73.4953C33.314 73.3393 33.403 73.2383 33.158 73.1053C33.0822 73.06 33.0201 72.995 32.9784 72.9171C32.9366 72.8393 32.9168 72.7516 32.921 72.6633C32.9511 71.8698 33.1876 71.0977 33.607 70.4233L33.688 70.4483Z" fill="#323393"/>
<path d="M49.677 71.3623C49.686 71.9493 49.565 72.5203 49.519 73.0983C49.498 73.3623 49.487 73.6283 49.481 73.8983C49.47 74.0325 49.5088 74.166 49.59 74.2733C49.745 74.4633 49.825 74.4493 49.935 74.2293C49.982 74.1343 49.953 73.9363 50.135 73.9793C50.279 74.0133 50.298 74.1793 50.301 74.3133C50.3026 74.5593 50.2376 74.8012 50.113 75.0133C50.071 75.121 49.9938 75.2112 49.8939 75.2694C49.794 75.3275 49.6773 75.35 49.563 75.3333C49.4444 75.3111 49.3367 75.2498 49.2571 75.1591C49.1775 75.0685 49.1307 74.9538 49.124 74.8333C49.0657 74.2737 49.0883 73.7085 49.191 73.1553C49.233 72.5314 49.3982 71.922 49.677 71.3623Z" fill="#323393"/>
<path d="M41.69 74.1234C41.5934 74.1292 41.4966 74.1292 41.4 74.1234C41.169 74.0944 41.062 73.9584 41.125 73.7384C41.1993 73.4705 41.3253 73.2198 41.496 73.0004C41.5224 72.951 41.5621 72.9099 41.6106 72.8819C41.6592 72.8539 41.7146 72.8401 41.7706 72.842C41.8266 72.8438 41.8809 72.8614 41.9275 72.8925C41.974 72.9237 42.0109 72.9673 42.034 73.0184C42.1008 73.11 42.1359 73.221 42.134 73.3344C42.1291 73.9016 41.9364 74.4513 41.586 74.8974C41.392 75.1504 41.054 75.1544 40.773 75.2514C40.6707 75.3041 40.5557 75.3273 40.441 75.3184C40.831 74.8704 41.514 74.7554 41.69 74.1234Z" fill="#323393"/>
<path d="M34.592 74.8567C34.7393 74.2848 34.945 73.7295 35.206 73.1997C35.26 73.0837 35.353 73.1197 35.442 73.1707C35.5551 73.2224 35.6525 73.3032 35.724 73.405C35.7956 73.5068 35.8387 73.6257 35.849 73.7497C35.8637 74.0213 35.8187 74.2927 35.7171 74.545C35.6155 74.7973 35.4598 75.0242 35.261 75.2097C35.2004 75.2755 35.1207 75.3205 35.0331 75.3385C34.9455 75.3564 34.8545 75.3464 34.773 75.3097C34.6 75.2317 34.606 75.0697 34.592 74.8567ZM35.071 74.2267C35.0087 74.2712 34.9562 74.328 34.9167 74.3935C34.8771 74.459 34.8514 74.5319 34.841 74.6077C34.819 74.7657 34.934 74.8317 35.069 74.8257C35.23 74.8187 35.395 74.7537 35.411 74.5777C35.427 74.4017 35.268 74.3057 35.071 74.2267Z" fill="#323393"/>
<path d="M24.865 69.5556C24.823 69.7576 24.718 69.9411 24.565 70.0796C24.427 70.2006 24.337 70.0716 24.256 69.9876C24.125 69.8526 24.04 69.8466 23.939 70.0276C23.871 70.1486 23.816 70.3786 23.585 70.2276C23.39 70.1016 23.151 69.9746 23.374 69.6816C23.4118 69.6207 23.4452 69.5572 23.474 69.4916C23.657 69.1616 23.689 69.1466 23.952 69.4116C24.116 69.5766 24.152 69.4566 24.241 69.3496C24.33 69.2426 24.331 69.0256 24.532 69.1066C24.6233 69.1437 24.7027 69.2053 24.7614 69.2844C24.8201 69.3636 24.8559 69.4574 24.865 69.5556Z" fill="#323393"/>
<path d="M48.632 78.1976C48.6207 78.3046 48.5883 78.4084 48.5369 78.5029C48.4854 78.5975 48.4158 78.6809 48.332 78.7486C48.209 78.8626 48.121 78.7325 48.05 78.6575C47.908 78.5095 47.82 78.4966 47.715 78.7016C47.651 78.8266 47.575 79.0466 47.35 78.8886C47.171 78.7636 46.938 78.6446 47.141 78.3626C47.1893 78.284 47.2334 78.2029 47.273 78.1196C47.437 77.8306 47.473 77.8196 47.716 78.0616C47.877 78.2256 47.934 78.1616 48.026 78.0056C48.086 77.9056 48.104 77.7296 48.293 77.7586C48.3799 77.8001 48.4558 77.8615 48.5147 77.9377C48.5736 78.014 48.6138 78.103 48.632 78.1976Z" fill="#323393"/>
<path d="M27.12 75.9763C27.0777 76.178 26.9727 76.361 26.82 76.4993C26.686 76.6263 26.609 76.4923 26.54 76.4223C26.396 76.2743 26.299 76.2223 26.192 76.4623C26.136 76.5843 26.051 76.7883 25.851 76.6553C25.679 76.5413 25.413 76.4313 25.617 76.1363C25.6537 76.0755 25.6871 76.0128 25.717 75.9483C25.917 75.5813 25.937 75.5693 26.234 75.8483C26.404 76.0083 26.422 75.8573 26.497 75.7713C26.572 75.6853 26.587 75.4493 26.79 75.5303C26.8816 75.5657 26.9613 75.6265 27.0197 75.7054C27.0782 75.7844 27.1129 75.8784 27.12 75.9763Z" fill="#323393"/>
<path d="M20.507 70.3873C20.4702 70.5873 20.3639 70.7679 20.207 70.8973C20.078 71.0153 19.981 70.8703 19.898 70.7883C19.771 70.6633 19.692 70.6603 19.598 70.8313C19.529 70.9563 19.475 71.1743 19.24 71.0563C18.932 70.9023 18.887 70.7613 19.04 70.4823C19.079 70.4103 19.125 70.3413 19.156 70.2663C19.263 70.0123 19.404 69.9813 19.582 70.2003C19.707 70.3543 19.791 70.3533 19.895 70.1693C19.955 70.0623 19.985 69.8413 20.186 69.9263C20.2791 69.9628 20.3592 70.0261 20.4164 70.1081C20.4735 70.1902 20.505 70.2873 20.507 70.3873Z" fill="#323393"/>
<path d="M27.207 75.0695C27.2851 74.4202 27.3141 73.7661 27.294 73.1125C27.3235 72.6728 27.4791 72.251 27.742 71.8975C27.626 72.9675 27.907 74.0965 27.207 75.0695Z" fill="#323393"/>
<path d="M74.323 71.9136C74.181 72.9786 74.509 74.1136 73.829 75.0886C73.729 75.0586 73.744 75.0046 73.756 74.9576C73.8609 74.4264 73.8969 73.8839 73.863 73.3436C73.8545 72.8292 74.0162 72.3265 74.323 71.9136Z" fill="#323393"/>
<path d="M37.936 69.3985C37.9905 69.38 38.0497 69.3802 38.1041 69.3993C38.1584 69.4183 38.2049 69.455 38.236 69.5035C38.385 69.6935 38.485 69.7035 38.597 69.4675C38.647 69.3675 38.697 69.1775 38.875 69.2525C38.9749 69.2827 39.0609 69.3473 39.118 69.4347C39.175 69.5221 39.1994 69.6268 39.187 69.7305C39.1615 69.8615 39.1064 69.9849 39.026 70.0915C38.903 70.2835 38.771 70.3555 38.6 70.1375C38.489 69.9965 38.393 69.9515 38.292 70.1625C38.236 70.2795 38.16 70.4845 37.992 70.4125C37.824 70.3405 37.592 70.2585 37.601 69.9985L37.936 69.3985Z" fill="#323393"/>
<path d="M54.838 72.9985C54.968 73.1445 54.894 73.2535 54.872 73.3545C54.7882 73.7132 54.6713 74.0634 54.523 74.4005C54.4159 74.7098 54.2034 74.9714 53.9228 75.1396C53.6421 75.3079 53.3111 75.3719 52.988 75.3205C53.313 74.8905 53.859 74.7705 54.148 74.3615C54.437 73.9525 54.576 73.4615 54.838 72.9985Z" fill="#323393"/>
<path d="M68.704 74.0724C68.674 74.3012 68.5612 74.5111 68.387 74.6624C68.262 74.7744 68.171 74.6624 68.099 74.5884C67.989 74.4784 67.747 74.4354 67.857 74.1944C67.9015 74.0698 67.9595 73.9504 68.03 73.8384C68.111 73.7314 68.13 73.4864 68.301 73.5534C68.4133 73.5881 68.5122 73.6566 68.5843 73.7494C68.6564 73.8423 68.6982 73.955 68.704 74.0724Z" fill="#323393"/>
<path d="M73.2759 73.1463C73.2258 73.349 73.1254 73.5357 72.984 73.6893C72.884 73.7953 72.812 73.7013 72.749 73.6473C72.628 73.5473 72.373 73.5243 72.449 73.2863C72.5226 73.0966 72.6136 72.9141 72.721 72.7413C72.7281 72.7214 72.7399 72.7035 72.7553 72.6891C72.7708 72.6747 72.7895 72.6641 72.8098 72.6584C72.8301 72.6526 72.8515 72.6518 72.8723 72.6559C72.893 72.6601 72.9124 72.6691 72.9289 72.6823C73.0959 72.8023 73.2759 72.9163 73.2759 73.1463Z" fill="#323393"/>
<path d="M21.832 70.3796C21.7619 70.3754 21.6937 70.3553 21.6325 70.3208C21.5714 70.2862 21.5189 70.2382 21.4791 70.1804C21.4393 70.1225 21.4132 70.0564 21.4028 69.9869C21.3923 69.9175 21.3979 69.8466 21.419 69.7796C21.4369 69.7211 21.4639 69.6657 21.499 69.6156C21.599 69.5096 21.577 69.2236 21.85 69.3406C21.9657 69.3827 22.0603 69.4685 22.1134 69.5796C22.1665 69.6906 22.1739 69.8181 22.134 69.9346C22.0807 70.1101 21.9754 70.2653 21.832 70.3796Z" fill="#323393"/>
<path d="M73.716 66.2765C73.6713 66.4722 73.5785 66.6537 73.446 66.8045C73.305 66.9645 73.204 66.7905 73.101 66.7375C72.967 66.6685 72.801 66.5925 72.895 66.3885C72.9421 66.2749 72.9976 66.1649 73.061 66.0595C73.131 65.9505 73.154 65.7365 73.361 65.8295C73.4556 65.864 73.5389 65.924 73.6016 66.0029C73.6642 66.0818 73.7038 66.1765 73.716 66.2765Z" fill="#323393"/>
<path d="M52.744 69.5786C52.895 69.5786 53.196 69.8786 53.183 70.0286C53.1519 70.2431 53.0527 70.4419 52.9 70.5956C52.822 70.6866 52.745 70.6286 52.683 70.5786C52.56 70.4786 52.325 70.4516 52.351 70.2576C52.3983 70.0257 52.5044 69.8098 52.659 69.6306C52.681 69.6006 52.727 69.5886 52.744 69.5786Z" fill="#323393"/>
<path d="M45.011 70.0204C44.9785 70.2504 44.862 70.4602 44.684 70.6094C44.53 70.7194 44.422 70.5094 44.294 70.4474C44.189 70.3944 44.106 70.3184 44.181 70.1794C44.239 70.0724 44.272 69.9514 44.336 69.8494C44.4 69.7474 44.436 69.5324 44.623 69.5924C44.7172 69.6274 44.8017 69.6846 44.8692 69.7591C44.9367 69.8336 44.9854 69.9232 45.011 70.0204Z" fill="#323393"/>
<path d="M25.874 68.2517C25.8224 68.4473 25.7285 68.6292 25.599 68.7847C25.516 68.8917 25.424 68.8307 25.362 68.7677C25.246 68.6517 24.962 68.6537 25.052 68.3877C25.0912 68.2617 25.1466 68.1413 25.217 68.0297C25.286 67.9227 25.317 67.7077 25.509 67.7947C25.6085 67.8258 25.6963 67.8859 25.7614 67.9674C25.8264 68.0488 25.8656 68.1478 25.874 68.2517Z" fill="#323393"/>
<path d="M61.388 69.4375C61.3422 69.6544 61.2385 69.8548 61.088 70.0175C60.97 70.1395 60.872 69.9995 60.8 69.9425C60.7 69.8585 60.473 69.8365 60.554 69.6175C60.5971 69.4929 60.6527 69.3729 60.72 69.2595C60.788 69.1495 60.811 68.9425 61.009 69.0135C61.1005 69.0503 61.1824 69.1077 61.2481 69.1812C61.3138 69.2547 61.3617 69.3425 61.388 69.4375Z" fill="#323393"/>
<path d="M62.949 68.9916C62.9017 69.1876 62.8081 69.3693 62.6759 69.5216C62.5759 69.6416 62.4759 69.5576 62.4099 69.4926C62.2939 69.3926 62.0389 69.3726 62.1309 69.1216C62.1698 69.0051 62.2218 68.8933 62.2859 68.7886C62.3579 68.6796 62.386 68.4596 62.571 68.5326C62.6726 68.5627 62.7629 68.6224 62.8302 68.7042C62.8976 68.786 62.9389 68.8861 62.949 68.9916Z" fill="#323393"/>
<path d="M38.739 68.5247C38.874 68.8247 38.7 69.0627 38.554 69.3037C38.486 69.4167 38.408 69.3807 38.326 69.3207C38.244 69.2607 38.185 69.1697 38.066 69.1807C38.0462 69.0288 38.0596 68.8745 38.1052 68.7283C38.1508 68.5821 38.2274 68.4475 38.33 68.3337C38.535 68.2347 38.61 68.4497 38.739 68.5247Z" fill="#323393"/>
<path d="M40.906 68.1503C40.6308 68.5809 40.2962 68.9704 39.912 69.3073C39.865 69.1743 40.005 69.1243 40.004 69.0323L40.067 68.9613C40.1722 68.8764 40.2581 68.77 40.319 68.6493L40.697 68.2423L40.828 68.1303L40.914 68.1113L40.925 68.1213C40.9215 68.1211 40.918 68.1219 40.9148 68.1234C40.9117 68.125 40.909 68.1274 40.9071 68.1303C40.9052 68.1333 40.9041 68.1367 40.9039 68.1402C40.9037 68.1437 40.9044 68.1472 40.906 68.1503Z" fill="#323393"/>
<path d="M40.071 68.9614L40.008 69.0324L40.071 68.9614Z" fill="#FAFAF9"/>
<path d="M41.185 68.7123C41.195 68.6513 41.21 68.5913 41.292 68.6043C41.311 68.6043 41.344 68.6473 41.339 68.6593C41.311 68.7313 41.239 68.7053 41.185 68.7133V68.7123Z" fill="#FDFDFD"/>
<path d="M19.998 38.9815L20.091 38.8815C20.3883 38.6534 20.657 38.3902 20.891 38.0975C21.573 37.4795 22.233 36.8385 22.86 36.1665C23.1574 35.9364 23.4277 35.6734 23.666 35.3825C24.894 34.1895 26.119 32.9925 27.354 31.8065C27.567 31.6065 27.511 31.3635 27.511 31.1325C27.511 27.9205 27.519 24.7075 27.499 21.4945C27.499 21.0735 27.593 20.9595 28.04 20.9625C31.34 20.9845 34.645 20.9675 37.948 20.9805C38.0956 20.9865 38.2428 20.9606 38.3795 20.9045C38.5162 20.8484 38.6392 20.7635 38.74 20.6555C41.088 18.3415 43.448 16.0405 45.793 13.7235C46.039 13.4805 46.164 13.4585 46.426 13.7185C48.759 16.0265 51.113 18.3185 53.451 20.6185C53.559 20.7385 53.6919 20.8336 53.8405 20.897C53.989 20.9603 54.1496 20.9906 54.311 20.9855C57.628 20.9695 60.946 20.9855 64.263 20.9675C64.635 20.9675 64.747 21.0425 64.746 21.4295C64.729 24.6985 64.746 27.9675 64.735 31.2365C64.7261 31.3678 64.7468 31.4994 64.7956 31.6216C64.8444 31.7438 64.9201 31.8535 65.017 31.9425C67.382 34.2425 69.729 36.5585 72.096 38.8545C72.391 39.1405 72.396 39.2865 72.096 39.5765C69.726 41.8685 67.378 44.1835 65.014 46.4825C64.9212 46.5658 64.848 46.6686 64.7997 46.7836C64.7515 46.8986 64.7294 47.0229 64.735 47.1475C64.741 50.4305 64.735 53.7145 64.744 56.9975C64.744 57.3425 64.669 57.4525 64.299 57.4505C60.981 57.4355 57.664 57.4455 54.347 57.4305C54.1852 57.4225 54.0235 57.4497 53.8732 57.5101C53.7228 57.5705 53.5873 57.6628 53.476 57.7805C51.128 60.0985 48.764 62.4005 46.418 64.7195C46.175 64.9595 46.049 64.9425 45.818 64.7125C43.5213 62.4458 41.2177 60.1878 38.907 57.9385C38.857 57.8895 38.798 57.8475 38.743 57.8035L38.667 57.7325C38.539 57.4495 38.295 57.4325 38.019 57.4325C34.675 57.4375 31.332 57.4325 27.989 57.4465C27.6 57.4465 27.514 57.3415 27.515 56.9755C27.53 53.9065 27.503 50.8375 27.542 47.7695C27.5888 47.4514 27.5473 47.1267 27.4221 46.8306C27.2969 46.5345 27.0928 46.2785 26.832 46.0905C26.8081 46.0767 26.783 46.065 26.757 46.0555L26.725 46.0325L26.663 45.9715L26.644 45.9515C26.2485 45.5012 25.8192 45.0816 25.36 44.6965V44.6735H25.337L25.28 44.6155V44.5945H25.258C24.8649 44.1416 24.4359 43.7212 23.975 43.3375V43.3155H23.953C23.953 43.2745 23.942 43.2525 23.896 43.2625V43.2375H23.871C23.7694 43.0706 23.6304 42.9295 23.465 42.8255L23.351 42.7255C23.1347 42.4447 22.8794 42.1962 22.593 41.9875V41.9625H22.568C22.576 41.9205 22.558 41.9035 22.515 41.9095V41.8865H22.491C22.0716 41.4043 21.6149 40.9559 21.125 40.5455V40.5225H21.102C20.746 40.1605 20.402 39.7895 20.03 39.4405C19.855 39.2765 19.845 39.1435 19.998 38.9815ZM64.247 45.7945C64.416 45.6435 64.593 45.4945 64.754 45.3395C66.737 43.3855 68.707 41.4195 70.71 39.4875C70.997 39.2105 70.938 39.1215 70.704 38.8935C68.472 36.7255 66.252 34.5455 64.022 32.3745C63.9192 32.2805 63.8384 32.165 63.7853 32.0363C63.7323 31.9075 63.7082 31.7686 63.715 31.6295C63.726 28.5725 63.715 25.5155 63.731 22.4585C63.731 22.0775 63.638 21.9655 63.24 21.9675C60.11 21.9835 56.98 21.9745 53.85 21.9825C53.7163 21.9894 53.5827 21.9675 53.4583 21.9181C53.3339 21.8688 53.2216 21.7932 53.129 21.6965C50.929 19.5185 48.703 17.3605 46.504 15.1765C46.196 14.8695 46.045 14.8845 45.744 15.1835C43.535 17.3745 41.303 19.5435 39.085 21.7245C39.0034 21.8111 38.9041 21.8791 38.7938 21.9239C38.6835 21.9686 38.5649 21.9889 38.446 21.9835C35.316 21.9735 32.187 21.9835 29.057 21.9665C28.595 21.9665 28.503 22.0955 28.505 22.5255C28.524 25.5825 28.51 28.6395 28.52 31.6965C28.5236 31.8225 28.499 31.9477 28.448 32.0629C28.3969 32.1781 28.3207 32.2805 28.225 32.3625C25.985 34.5445 23.758 36.7395 21.512 38.9165C21.257 39.1645 21.292 39.2985 21.519 39.5165C23.75 41.6855 25.971 43.8655 28.205 46.0315C28.3093 46.1235 28.3917 46.2378 28.446 46.3658C28.5003 46.4939 28.5253 46.6325 28.519 46.7715C28.508 49.8565 28.519 52.9425 28.503 56.0275C28.503 56.3805 28.603 56.4715 28.955 56.4695C32.099 56.4555 35.243 56.4695 38.388 56.4555C38.5353 56.4491 38.6823 56.4747 38.8188 56.5305C38.9554 56.5862 39.0782 56.6708 39.179 56.7785C41.363 58.9365 43.566 61.0785 45.743 63.2395C46.058 63.5525 46.213 63.5205 46.51 63.2265C48.699 61.0545 50.91 58.9035 53.105 56.7385C53.1909 56.6451 53.2959 56.5715 53.413 56.5227C53.53 56.4738 53.6563 56.4509 53.783 56.4555C56.8837 56.4662 59.9837 56.4685 63.083 56.4625C63.843 56.4625 63.71 56.5275 63.711 55.8685C63.7163 53.0378 63.7163 50.2072 63.711 47.3765C63.711 46.7765 63.675 46.1925 64.245 45.7895L64.247 45.7945Z" fill="#323393"/>
<path d="M26.665 45.9736L26.727 46.0346L26.665 45.9736Z" fill="#FAFAF9"/>
<path d="M25.281 44.6177L25.338 44.6737C25.3153 44.6592 25.2959 44.6401 25.281 44.6177Z" fill="#FAFAF9"/>
<path d="M57.742 46.7865C58.794 47.0235 59.869 47.1185 60.929 47.3045C61.269 47.3635 61.61 47.4265 61.953 47.4565C62.218 47.4795 62.282 47.6005 62.276 47.8425C62.253 48.8425 62.238 49.8495 62.237 50.8525C62.237 51.1275 62.152 51.1585 61.908 51.0685C61.008 50.7375 60.094 50.4205 59.185 50.1025C58.997 50.0365 58.802 49.9885 58.61 49.9325C58.4624 49.8194 58.2837 49.7545 58.098 49.7465L56.138 49.0085C56.355 49.6035 56.533 50.0975 56.713 50.5905C57.143 51.7625 57.579 52.9315 58.002 54.1055C58.302 54.9505 58.302 54.9575 57.371 54.9835C56.564 55.0055 55.756 55.0035 54.95 55.0415C54.65 55.0555 54.566 54.9525 54.523 54.6725C54.093 51.8725 53.647 49.0825 53.204 46.2885C53.204 46.2655 53.177 46.2455 53.141 46.1885C52.902 46.3885 52.667 46.5885 52.428 46.7755C50.7695 48.112 48.727 48.883 46.599 48.9755C46.477 48.9815 46.31 48.9235 46.243 49.0475C46.176 49.1715 46.332 49.2695 46.404 49.3665C48.0366 51.5578 49.6733 53.7461 51.314 55.9315C51.524 56.2105 51.498 56.3595 51.243 56.5875C50.543 57.2145 49.856 57.8645 49.187 58.5265C48.938 58.7735 48.841 58.7845 48.682 58.4455C47.927 56.8265 47.147 55.2195 46.373 53.6085C46.301 53.4595 46.216 53.3155 46.107 53.1145L44.501 56.4585C44.169 57.1495 43.828 57.8365 43.513 58.5345C43.4 58.7845 43.313 58.7835 43.131 58.6035C42.412 57.9085 41.692 57.2165 40.952 56.5435C40.726 56.3385 40.711 56.2095 40.899 55.9615C42.531 53.8048 44.153 51.6408 45.765 49.4695C45.8983 49.3413 45.9935 49.1786 46.04 48.9995C43.44 48.959 40.9486 47.9503 39.053 46.1705C38.789 47.8455 38.526 49.5315 38.258 51.2165C38.071 52.3895 37.872 53.5605 37.695 54.7355C37.662 54.9585 37.602 55.0475 37.356 55.0415C36.333 55.0115 35.31 54.9975 34.286 54.9875C33.991 54.9875 33.931 54.9005 34.038 54.6145C34.725 52.7865 35.394 50.9525 36.101 49.0335C35.476 49.2475 34.911 49.4335 34.351 49.6335C33.029 50.1005 31.706 50.5645 30.391 51.0465C30.091 51.1575 30.024 51.0865 30.023 50.7905C30.018 49.8145 30.003 48.8385 29.962 47.8625C29.95 47.5625 30.062 47.4865 30.338 47.4455C33.0453 47.0455 35.751 46.6368 38.455 46.2195C38.603 46.1965 38.814 46.2475 38.87 46.0645C38.921 45.8975 38.746 45.7975 38.644 45.6815C37.0471 43.9317 36.1585 41.6503 36.151 39.2815C35.986 39.2495 35.903 39.3815 35.798 39.4605C33.5493 41.0671 31.3043 42.6788 29.063 44.2955C28.791 44.4955 28.634 44.4955 28.4 44.2465C27.7453 43.5498 27.074 42.8695 26.386 42.2055C26.131 41.9585 26.155 41.8645 26.473 41.7215C28.137 40.9735 29.792 40.2085 31.448 39.4445C31.6133 39.4025 31.7604 39.3077 31.867 39.1745C30.82 38.6905 29.783 38.2085 28.743 37.7295C27.974 37.3745 27.207 37.0145 26.432 36.6725C26.188 36.5655 26.121 36.4845 26.339 36.2725C27.08 35.5405 27.807 34.7945 28.539 34.0505C28.685 33.9005 28.765 33.9075 28.951 34.0435C31.267 35.7265 33.598 37.3915 35.925 39.0605C35.98 39.1005 36.043 39.1305 36.137 39.1845C36.1481 37.9038 36.4136 36.6381 36.9181 35.4609C37.4227 34.2838 38.1562 33.2187 39.076 32.3275C40.939 30.4918 43.4416 29.4504 46.057 29.4225C45.9311 29.1531 45.7652 28.9043 45.565 28.6845C44.011 26.5945 42.4503 24.5095 40.883 22.4295C40.722 22.2165 40.714 22.1015 40.92 21.9135C41.6466 21.2468 42.3613 20.5695 43.064 19.8815C43.306 19.6435 43.407 19.6435 43.564 19.9675C44.352 21.6505 45.164 23.3235 45.964 24.9995C46.006 25.0885 46.057 25.1745 46.135 25.3205L48.877 19.6055C49.586 20.2745 50.27 20.9155 50.949 21.5625C51.574 22.1625 51.565 22.1555 51.049 22.8385C49.479 24.9345 47.9123 27.0345 46.349 29.1385C46.283 29.2265 46.192 29.3065 46.202 29.4385C48.7963 29.4519 51.286 30.4631 53.155 32.2625C53.2384 32.0734 53.2819 31.8691 53.283 31.6625C53.6736 29.2371 54.06 26.8111 54.442 24.3845C54.4543 24.2722 54.461 24.1594 54.462 24.0465C54.642 23.4065 54.642 23.3995 55.377 23.4055C56.227 23.4115 57.077 23.4435 57.928 23.4385C58.27 23.4385 58.308 23.5385 58.198 23.8315C57.537 25.5955 56.89 27.3645 56.239 29.1315C56.22 29.1825 56.204 29.2315 56.173 29.3315C56.5711 29.272 56.9587 29.1558 57.324 28.9865C58.818 28.4691 60.3083 27.9411 61.795 27.4025C62.134 27.2795 62.248 27.3085 62.244 27.6965C62.234 28.6295 62.244 29.5645 62.289 30.4965C62.305 30.8545 62.165 30.9465 61.838 30.9965C59.189 31.3865 56.538 31.7965 53.894 32.1965C53.8221 32.2017 53.7506 32.2114 53.68 32.2255C53.406 32.3065 53.257 32.4095 53.532 32.6865C53.832 32.9865 54.09 33.3215 54.368 33.6405L54.406 33.7235C54.9381 34.5518 55.3701 35.4404 55.693 36.3705C55.6903 36.3771 55.6891 36.3842 55.6893 36.3913C55.6896 36.3984 55.6913 36.4054 55.6944 36.4118C55.6975 36.4182 55.7019 36.4239 55.7074 36.4285C55.7128 36.4331 55.7191 36.4365 55.726 36.4385C55.959 37.3441 56.0829 38.2744 56.095 39.2095C56.355 39.0285 56.549 38.8965 56.739 38.7605C58.889 37.2195 61.039 35.6825 63.183 34.1275C63.468 33.9215 63.614 33.9435 63.846 34.1905C64.489 34.8765 65.146 35.5515 65.831 36.1975C66.148 36.4975 66.039 36.5745 65.712 36.7225C63.935 37.5225 62.167 38.3485 60.372 39.1755C60.452 39.3275 60.594 39.3555 60.714 39.4115C62.394 40.1865 64.071 40.9675 65.759 41.7275C66.086 41.8745 66.09 41.9655 65.849 42.2055C65.114 42.9405 64.401 43.6975 63.68 44.4455C63.6669 44.4455 63.6543 44.4506 63.645 44.4598C63.6356 44.4689 63.6302 44.4814 63.63 44.4945C63.292 44.4945 63.112 44.2225 62.873 44.0625C61.848 43.3725 60.891 42.5895 59.838 41.9375C58.667 41.0055 57.43 40.1615 56.201 39.3075C56.185 39.2965 56.149 39.3145 56.117 39.3195C56.1 39.5715 56.086 39.8245 56.065 40.0775C55.9036 41.7163 55.3466 43.2915 54.442 44.6675C54.097 45.0785 53.758 45.4935 53.405 45.8985C53.264 46.0605 53.233 46.1535 53.492 46.1905C54.8506 46.3865 56.209 46.5845 57.567 46.7845L57.742 46.7865ZM47.431 40.4605C49.781 40.4605 52.131 40.4525 54.481 40.4695C54.857 40.4695 54.971 40.3695 54.995 40.0025C55.1415 38.5113 54.8912 37.0079 54.2695 35.6446C53.6479 34.2813 52.6769 33.1066 51.455 32.2395C50.081 31.2189 48.4422 30.6155 46.7344 30.5014C45.0267 30.3872 43.3222 30.7673 41.8246 31.596C40.3271 32.4247 39.0998 33.6671 38.2895 35.1746C37.4791 36.6822 37.12 38.3912 37.255 40.0975C37.414 41.4381 37.8759 42.725 38.6058 43.8607C39.3356 44.9964 40.3143 45.9512 41.4677 46.6528C42.621 47.3544 43.9189 47.7845 45.2631 47.9103C46.6072 48.0362 47.9624 47.8547 49.226 47.3795C51.1895 46.6892 52.8383 45.3141 53.87 43.5065C54.122 43.0815 54.112 43.0735 53.6 43.0735C52.879 43.0735 52.158 43.0845 51.437 43.0685C51.3112 43.0594 51.1851 43.0796 51.0685 43.1275C50.9519 43.1753 50.848 43.2496 50.765 43.3445C50.0057 44.1912 49.0258 44.81 47.9348 45.1314C46.8439 45.4528 45.685 45.4643 44.588 45.1645C43.5205 44.9283 42.5371 44.4071 41.7426 43.6562C40.948 42.9053 40.372 41.9529 40.076 40.9005C39.952 40.5205 40.051 40.4525 40.425 40.4545C42.76 40.4705 45.096 40.4605 47.431 40.4605Z" fill="#323393"/>
<path d="M36.092 29.3734C35.4 27.4884 34.74 25.6664 34.057 23.8524C33.925 23.5024 33.996 23.4294 34.357 23.4314C35.3656 23.436 36.3746 23.4197 37.384 23.3824C37.639 23.3734 37.658 23.4824 37.684 23.6694C37.93 25.2344 38.184 26.7974 38.433 28.3624C38.624 29.5624 38.802 30.7624 39.009 31.9624C39.061 32.2624 38.972 32.2884 38.709 32.2474C35.949 31.8207 33.1876 31.4017 30.425 30.9904C30.087 30.9404 29.932 30.8554 29.954 30.4724C30.008 29.5124 30.02 28.5504 30.022 27.5884C30.022 27.2734 30.122 27.2774 30.374 27.3674C32.2 28.0234 34.03 28.6674 35.86 29.3154C35.911 29.3354 35.966 29.3424 36.092 29.3734Z" fill="#323393"/>
<path d="M47.961 19.3645C47.9607 19.8487 47.7688 20.313 47.4272 20.6561C47.0857 20.9992 46.6221 21.1931 46.138 21.1955C45.6536 21.1979 45.1875 21.011 44.8388 20.6749C44.4901 20.3387 44.2864 19.8797 44.271 19.3955C44.2742 18.9113 44.469 18.4481 44.8129 18.1072C45.1568 17.7662 45.6218 17.5755 46.106 17.5765C46.346 17.5692 46.585 17.6099 46.8089 17.6963C47.0329 17.7827 47.2374 17.9131 47.4102 18.0797C47.5831 18.2463 47.7208 18.4458 47.8154 18.6665C47.91 18.8871 47.9595 19.1245 47.961 19.3645Z" fill="#323393"/>
<path d="M46.135 60.8476C45.8945 60.8546 45.655 60.8135 45.4307 60.7267C45.2063 60.6399 45.0015 60.5092 44.8283 60.3421C44.6552 60.1751 44.5171 59.9751 44.4223 59.754C44.3275 59.5328 44.2779 59.295 44.2763 59.0544C44.2747 58.8138 44.3212 58.5753 44.413 58.3529C44.5049 58.1306 44.6402 57.9288 44.8112 57.7594C44.9821 57.5901 45.1851 57.4566 45.4083 57.3668C45.6315 57.2771 45.8704 57.2328 46.111 57.2366C46.3515 57.2296 46.591 57.2707 46.8154 57.3575C47.0398 57.4443 47.2446 57.5751 47.4177 57.7421C47.5909 57.9092 47.7289 58.1091 47.8237 58.3303C47.9185 58.5514 47.9681 58.7892 47.9697 59.0298C47.9713 59.2704 47.9248 59.5089 47.833 59.7313C47.7411 59.9537 47.6058 60.1554 47.4349 60.3248C47.264 60.4941 47.0609 60.6276 46.8377 60.7174C46.6145 60.8072 46.3756 60.8514 46.135 60.8476Z" fill="#323393"/>
<path d="M31.796 51.4414C32.149 51.4483 32.4922 51.5589 32.7828 51.7594C33.0734 51.9599 33.2987 52.2415 33.4305 52.569C33.5623 52.8966 33.5949 53.2557 33.5242 53.6016C33.4535 53.9475 33.2826 54.265 33.0328 54.5146C32.7829 54.7641 32.4653 54.9346 32.1193 55.005C31.7733 55.0753 31.4142 55.0424 31.0868 54.9102C30.7594 54.778 30.4781 54.5524 30.2779 54.2616C30.0777 53.9707 29.9675 53.6274 29.961 53.2744C29.9483 53.0302 29.9871 52.786 30.0748 52.5578C30.1626 52.3295 30.2974 52.1222 30.4704 51.9494C30.6434 51.7766 30.8508 51.642 31.0792 51.5545C31.3075 51.467 31.5518 51.4285 31.796 51.4414Z" fill="#323393"/>
<path d="M24.051 39.1915C24.0523 38.9516 24.1012 38.7143 24.195 38.4935C24.2888 38.2727 24.4256 38.0727 24.5973 37.9052C24.7691 37.7377 24.9725 37.606 25.1956 37.5178C25.4187 37.4297 25.6571 37.3867 25.897 37.3915C26.3813 37.3957 26.8443 37.5907 27.1856 37.9343C27.5269 38.2779 27.719 38.7422 27.72 39.2265C27.7147 39.7043 27.5208 40.1608 27.1804 40.4962C26.8401 40.8317 26.3809 41.0191 25.903 41.0175C25.6593 41.0274 25.4162 40.9872 25.1887 40.8993C24.9613 40.8114 24.7543 40.6777 24.5806 40.5065C24.407 40.3353 24.2704 40.1302 24.1792 39.904C24.0881 39.6778 24.0445 39.4353 24.051 39.1915Z" fill="#323393"/>
<path d="M59.049 51.9953C59.3255 51.7329 59.6703 51.5535 60.0439 51.4777C60.4175 51.4018 60.805 51.4325 61.162 51.5663C61.3996 51.6706 61.6125 51.8239 61.7867 52.0162C61.961 52.2085 62.0926 52.4354 62.1729 52.6822C62.2533 52.9289 62.2806 53.1898 62.253 53.4479C62.2254 53.7059 62.1436 53.9552 62.013 54.1793C61.892 54.3838 61.7317 54.5623 61.5414 54.7045C61.3511 54.8467 61.1345 54.9498 60.9041 55.0079C60.6738 55.066 60.4342 55.0779 60.1992 55.043C59.9642 55.0081 59.7385 54.927 59.535 54.8043C59.3299 54.6972 59.148 54.5508 58.9996 54.3733C58.8512 54.1959 58.7392 53.9909 58.67 53.7702C58.6008 53.5495 58.5758 53.3172 58.5964 53.0868C58.617 52.8564 58.6828 52.6323 58.79 52.4273C58.819 52.3633 58.84 52.2963 58.864 52.2273C58.9521 52.1755 59.018 52.0928 59.049 51.9953Z" fill="#323393"/>
<path d="M62.273 25.1824C62.2805 25.5473 62.1793 25.9062 61.9821 26.2133C61.785 26.5204 61.5009 26.7619 61.166 26.907C60.8311 27.052 60.4606 27.0941 60.1017 27.0279C59.7428 26.9616 59.4118 26.7901 59.1508 26.535C58.8897 26.2799 58.7106 25.9529 58.6361 25.5957C58.5616 25.2384 58.5951 24.867 58.7324 24.5289C58.8697 24.1908 59.1046 23.9012 59.4071 23.697C59.7096 23.4928 60.066 23.3833 60.431 23.3824C60.9139 23.3771 61.3791 23.5637 61.7245 23.9012C62.0699 24.2387 62.2672 24.6995 62.273 25.1824Z" fill="#323393"/>
<path d="M29.962 25.2096C29.9505 24.8428 30.0485 24.4809 30.2435 24.1701C30.4385 23.8592 30.7217 23.6135 31.057 23.4643C31.3922 23.3151 31.7644 23.2691 32.1258 23.3322C32.4873 23.3954 32.8218 23.5648 33.0866 23.8188C33.3515 24.0728 33.5346 24.4 33.6127 24.7585C33.6908 25.1171 33.6604 25.4908 33.5252 25.8319C33.3901 26.1731 33.1564 26.4663 32.8539 26.6741C32.5514 26.8819 32.1939 26.9948 31.827 26.9986C31.343 27.0067 30.8754 26.8232 30.5261 26.4881C30.1768 26.153 29.974 25.6935 29.962 25.2096Z" fill="#323393"/>
<path d="M64.535 39.2416C64.5291 38.758 64.7153 38.2918 65.0528 37.9454C65.3903 37.5989 65.8514 37.4005 66.335 37.3936C66.8116 37.389 67.2719 37.5671 67.6213 37.8912C67.9708 38.2154 68.1828 38.661 68.214 39.1366C68.2219 39.3803 68.1808 39.6231 68.0933 39.8507C68.0057 40.0783 67.8734 40.2859 67.7042 40.4615C67.535 40.637 67.3323 40.7769 67.1081 40.8727C66.8839 40.9686 66.6428 41.0186 66.399 41.0196C66.1591 41.0282 65.92 40.9887 65.6956 40.9034C65.4712 40.8182 65.2662 40.6889 65.0925 40.5233C64.9188 40.3576 64.78 40.1589 64.6843 39.9388C64.5885 39.7187 64.5378 39.4816 64.535 39.2416Z" fill="#323393"/>
<path d="M46.107 37.9486C44.191 37.9486 42.275 37.9436 40.36 37.9546C40.053 37.9546 39.967 37.9126 40.06 37.5826C40.4438 36.2805 41.2368 35.1366 42.3215 34.3203C43.4062 33.504 44.725 33.0587 46.0825 33.0504C47.44 33.0421 48.7641 33.4712 49.8587 34.2742C50.9534 35.0771 51.7603 36.2113 52.16 37.5086C52.271 37.8806 52.195 37.9596 51.814 37.9566C49.91 37.9366 48.009 37.9486 46.107 37.9486Z" fill="#323393"/>
</g>
</svg>
