<svg width="146" height="40" viewBox="0 0 146 40" fill="none" xmlns="http://www.w3.org/2000/svg">
<path d="M51.194 27.4699V23.3759H48.8163V18.7099C48.8698 17.4689 48.4918 16.2476 47.7464 15.2539C47.4297 14.8283 47.0162 14.4842 46.5402 14.2502C46.0641 14.0161 45.5391 13.8988 45.0087 13.9079C44.2053 13.9794 43.4367 14.2692 42.786 14.7459C40.9261 15.9349 39.36 17.5303 38.2056 19.412C37.699 20.1557 37.4032 21.0226 37.3497 21.9209C37.3206 22.845 37.5834 23.7547 38.1006 24.5209C38.6091 25.2336 39.2744 25.82 40.0453 26.235C40.8611 26.6843 41.7419 27.0037 42.656 27.1819C43.5703 27.3722 44.5018 27.4681 45.4357 27.468C45.0057 28.1507 44.438 28.7361 43.7689 29.187C42.9887 29.7502 42.1746 30.2648 41.3312 30.7279C40.4746 31.1946 39.6467 31.6056 38.8475 31.9609C38.0482 32.3163 37.4506 32.5809 37.0547 32.7549L38.6785 36.011C39.6484 35.5443 40.7029 35.0826 41.8421 34.6259C42.9659 34.1803 44.0472 33.6341 45.0727 32.994C46.0533 32.3925 46.9223 31.6258 47.6414 30.7279C48.3583 29.7905 48.7561 28.648 48.7763 27.468L51.194 27.4699ZM117.026 10.0859C116.419 10.0684 115.821 10.2323 115.308 10.5567C114.795 10.8811 114.39 11.3512 114.145 11.9068C113.901 12.4625 113.827 13.0785 113.934 13.6761C114.042 14.2737 114.325 14.8257 114.748 15.2615C115.17 15.6974 115.713 15.9972 116.307 16.1227C116.901 16.2483 117.519 16.1938 118.082 15.9662C118.645 15.7386 119.127 15.3483 119.467 14.8452C119.807 14.3421 119.989 13.7491 119.99 13.1419C119.993 12.3365 119.682 11.5614 119.124 10.981C118.852 10.6976 118.526 10.4718 118.166 10.3172C117.805 10.1626 117.417 10.0822 117.024 10.0809L117.026 10.0859ZM110.539 10.0859C111.146 10.0684 111.744 10.2323 112.257 10.5567C112.77 10.8811 113.175 11.3512 113.42 11.9068C113.664 12.4625 113.738 13.0785 113.63 13.6761C113.523 14.2737 113.24 14.8257 112.817 15.2615C112.395 15.6974 111.852 15.9972 111.258 16.1227C110.664 16.2483 110.046 16.1938 109.483 15.9662C108.92 15.7386 108.438 15.3483 108.098 14.8452C107.758 14.3421 107.576 13.7491 107.575 13.1419C107.572 12.3365 107.883 11.5614 108.441 10.981C108.713 10.6976 109.039 10.4719 109.399 10.3173C109.76 10.1626 110.148 10.0823 110.541 10.0809L110.539 10.0859ZM58.2381 29.1519C57.6313 29.1344 57.0331 29.2983 56.5199 29.6227C56.0067 29.9471 55.6019 30.4171 55.3573 30.9728C55.1126 31.5285 55.0393 32.1445 55.1466 32.7421C55.2539 33.3397 55.5369 33.8917 55.9596 34.3275C56.3823 34.7634 56.9253 35.0632 57.5193 35.1888C58.1132 35.3143 58.7311 35.2598 59.294 35.0322C59.8568 34.8046 60.3389 34.4143 60.6788 33.9112C61.0187 33.4081 61.2007 32.8151 61.2018 32.2079C61.2046 31.4028 60.894 30.6282 60.3359 30.0479C60.0642 29.7655 59.7385 29.5407 59.3781 29.3867C59.0177 29.2328 58.63 29.153 58.2381 29.1519ZM51.7469 29.1519C52.3537 29.1344 52.952 29.2983 53.4652 29.6227C53.9784 29.9471 54.3832 30.4171 54.6278 30.9728C54.8724 31.5285 54.9458 32.1445 54.8385 32.7421C54.7312 33.3397 54.4481 33.8917 54.0255 34.3275C53.6028 34.7634 53.0598 35.0632 52.4658 35.1888C51.8718 35.3143 51.2539 35.2598 50.6911 35.0322C50.1283 34.8046 49.6461 34.4143 49.3063 33.9112C48.9664 33.4081 48.7843 32.8151 48.7833 32.2079C48.7808 31.4027 49.0917 30.628 49.6502 30.0479C49.9223 29.7652 50.2485 29.5402 50.6094 29.3862C50.9703 29.2323 51.3585 29.1526 51.7509 29.1519H51.7469ZM92.678 9.08893C93.1428 8.64486 93.6631 8.2627 94.2258 7.95193C94.5651 7.76397 94.9432 7.65687 95.3307 7.63895C95.6329 7.64621 95.932 7.70193 96.2166 7.80396C96.5372 7.91662 96.8788 8.03394 97.2414 8.15594C97.6044 8.28194 97.9714 8.39893 98.3463 8.50793C98.7254 8.62 99.1189 8.6756 99.5142 8.67294C100.366 8.64927 101.204 8.46044 101.984 8.11694C103.128 7.58603 104.191 6.89621 105.143 6.06793L102.886 3.29395C102.289 3.86146 101.621 4.3489 100.899 4.74396C100.469 4.96652 99.9958 5.09245 99.5122 5.11295C99.1837 5.11229 98.8577 5.05547 98.5483 4.94495C98.2243 4.83595 97.8894 4.70995 97.5404 4.57095C97.1915 4.43195 96.8315 4.31093 96.4566 4.19693C96.0784 4.08718 95.6865 4.03165 95.2927 4.03195C94.5353 4.04977 93.7893 4.21981 93.099 4.53195C92.1055 4.99503 91.1892 5.60819 90.3823 6.34995L92.677 9.08395L92.678 9.08893ZM41.0082 20.9129C41.3855 20.4466 41.8002 20.0119 42.2481 19.6129C42.6934 19.2071 43.1654 18.8316 43.6609 18.489C43.9615 18.239 44.3219 18.0715 44.7068 18.0029C45.3607 18.0029 45.6897 18.4629 45.6897 19.3709V23.4209C45.2344 23.3903 44.7071 23.3236 44.1078 23.2209C43.5079 23.1209 42.94 22.9999 42.395 22.8649C41.9277 22.7582 41.4704 22.6113 41.0282 22.4259C40.6569 22.2653 40.4713 22.0959 40.4713 21.9179C40.5425 21.5338 40.7295 21.1807 41.0072 20.9059L41.0082 20.9129ZM61.3288 23.3789C60.5045 23.4124 59.6859 23.2297 58.9541 22.8489C58.6016 22.5931 58.3098 22.2627 58.0997 21.8813C57.8895 21.4998 57.7661 21.0766 57.7382 20.6419L56.9243 16.4149L53.0738 17.4739L53.8877 21.8739C53.9526 22.2375 53.8837 22.6123 53.6937 22.929C53.5087 23.224 53.0348 23.3719 52.2599 23.3719H51.19C50.9962 23.3713 50.8029 23.3931 50.6141 23.437C50.4291 23.4799 50.3361 23.5619 50.3361 23.6799V27.201C50.3361 27.293 50.4291 27.3569 50.6141 27.4009C50.8029 27.4449 50.9961 27.4667 51.19 27.4659H51.9149C52.8986 27.5027 53.8799 27.3464 54.8036 27.006C55.5364 26.6939 56.1981 26.2359 56.7483 25.6599C57.291 26.2084 57.9208 26.6632 58.6121 27.006C59.4736 27.3543 60.4006 27.5112 61.3288 27.4659V23.373V23.3789ZM60.4729 27.2069C60.4729 27.2979 60.5659 27.363 60.7508 27.407C60.9397 27.4506 61.1329 27.4724 61.3268 27.472H62.8446C63.7385 27.4848 64.6285 27.3514 65.4793 27.0769C66.2145 26.8374 66.8961 26.457 67.486 25.9569C68.0256 25.493 68.4634 24.9223 68.7719 24.2809C69.0759 23.626 69.2287 22.911 69.2188 22.1889C69.2104 21.5028 69.073 20.8243 68.8139 20.1889C68.5134 19.4463 68.1477 18.7319 67.721 18.054L64.8993 13.5179L70.6736 8.54294L68.2359 5.41794L59.809 12.9009L64.8993 20.9129C65.1089 21.2596 65.2266 21.6541 65.2413 22.0589C65.2486 22.2445 65.2115 22.4292 65.133 22.5976C65.0546 22.7659 64.9371 22.9131 64.7903 23.0269C64.3789 23.2926 63.8918 23.4163 63.4035 23.3789H61.3268C61.1329 23.3785 60.9397 23.4003 60.7508 23.4439C60.5659 23.4869 60.4729 23.569 60.4729 23.687V27.2079V27.2069ZM82.6862 34.7809C84.1972 34.2764 85.6679 33.6583 87.0857 32.9319C88.34 32.2962 89.5618 31.598 90.7462 30.8399C91.8161 30.1489 92.59 29.633 93.075 29.278L91.6661 23.558C90.333 23.5922 89.0013 23.4496 87.7056 23.1339C86.9278 22.9652 86.2055 22.6023 85.6059 22.0789C85.4136 21.9041 85.2709 21.6814 85.1925 21.4336C85.114 21.1858 85.1024 20.9217 85.1589 20.6679C85.3307 20.0719 85.6994 19.5516 86.2048 19.192C86.9415 18.639 87.7577 18.2007 88.6255 17.8919C89.783 17.4655 90.9909 17.1912 92.2191 17.076L91.2752 13.1599C89.5905 13.3506 87.9574 13.8597 86.4627 14.6599C85.1936 15.33 84.0562 16.2241 83.1051 17.299C82.2984 18.2034 81.7248 19.2913 81.4344 20.468C81.1716 21.5055 81.2696 22.6015 81.7123 23.576C82.254 24.6313 83.1264 25.4803 84.196 25.993C85.7505 26.7385 87.4534 27.1228 89.1774 27.1169C88.3508 27.7029 87.475 28.2613 86.5497 28.7919C85.6486 29.3055 84.7192 29.7679 83.7661 30.1769C82.89 30.5567 81.9877 30.8732 81.0664 31.1239C80.2936 31.3445 79.4952 31.4629 78.6917 31.476C78.0842 31.5032 77.4778 31.4038 76.9108 31.1841C76.3438 30.9645 75.8287 30.6293 75.3981 30.2C74.502 29.1511 74.0564 27.7908 74.1582 26.4149C74.176 25.2559 74.3334 24.1033 74.6272 22.9819C75.0307 21.4967 75.6055 20.0634 76.34 18.7109L72.4894 17.6989C71.1809 20.7384 70.4421 23.9924 70.3097 27.299C70.1592 29.5332 70.8888 31.7377 72.3424 33.4409C73.0987 34.1794 74.0013 34.751 74.9922 35.1189C75.983 35.4868 77.0399 35.6429 78.0947 35.5769C79.6547 35.5635 81.202 35.295 82.6752 34.782L82.6862 34.7809ZM99.2402 10.868H95.4737V26.942H99.2402V10.868ZM115.697 27.468V23.3739H115.355C114.833 23.3904 114.312 23.3157 113.815 23.153C113.427 23.0139 113.075 22.7882 112.787 22.493C112.486 22.1774 112.241 21.8137 112.062 21.4169C111.862 20.9929 111.662 20.517 111.462 19.985L107.695 21.304C108.132 22.271 108.464 23.2826 108.683 24.321C108.894 25.2673 109.009 26.2325 109.025 27.2019C109.032 28.0544 108.809 28.893 108.379 29.6289C107.705 30.571 106.791 31.3154 105.732 31.7849L101.026 34.2549L102.865 37.9049L107.31 35.4879C108.09 35.0565 108.833 34.5629 109.533 34.0119C110.205 33.4782 110.81 32.8643 111.333 32.1839C111.839 31.5189 112.248 30.7852 112.548 30.0049C112.852 29.2114 113.005 28.3678 112.999 27.5179C113.002 27.1772 112.975 26.8367 112.917 26.5009C113.271 26.8269 113.685 27.0818 114.135 27.252C114.526 27.3941 114.939 27.4675 115.354 27.4689L115.697 27.468ZM125.836 23.3739C125.012 23.4074 124.193 23.2247 123.461 22.8439C123.11 22.5886 122.818 22.2593 122.608 21.8792C122.397 21.4991 122.272 21.0775 122.242 20.644L121.429 16.4169L117.578 17.476L118.392 21.8759C118.459 22.2395 118.39 22.615 118.198 22.9309C118.013 23.2259 117.539 23.3739 116.764 23.3739H115.694C115.5 23.3735 115.307 23.3953 115.118 23.4389C114.933 23.4819 114.84 23.5639 114.84 23.6819V27.2029C114.84 27.2949 114.933 27.359 115.118 27.403C115.307 27.4466 115.5 27.4684 115.694 27.468H116.419C117.403 27.5052 118.384 27.3489 119.308 27.0079C120.041 26.6949 120.704 26.2371 121.257 25.662C121.798 26.2103 122.426 26.6651 123.116 27.0079C123.978 27.3559 124.905 27.5128 125.833 27.468V23.3739H125.836ZM125.836 27.468H129.447C130.303 27.4902 131.154 27.3335 131.946 27.0079C132.607 26.7292 133.194 26.2998 133.659 25.7539C134.103 25.2228 134.436 24.609 134.641 23.9479C134.86 23.2501 134.97 22.5224 134.966 21.791C134.967 21.0828 134.866 20.3783 134.666 19.6989C134.482 19.04 134.179 18.4204 133.772 17.8709C133.352 17.3255 132.809 16.888 132.186 16.5949C131.464 16.2575 130.673 16.0912 129.876 16.1089H128.193L133.532 10.653L131.094 7.52396L123.84 15.45L125.68 19.6769H130.179C130.432 19.6558 130.685 19.704 130.911 19.8165C131.138 19.9289 131.33 20.1013 131.465 20.3149C131.716 20.7191 131.849 21.1853 131.849 21.6609C131.847 22.0761 131.72 22.481 131.486 22.8239C131.306 23.0316 131.076 23.1909 130.818 23.2873C130.561 23.3837 130.283 23.4142 130.011 23.3759H125.84C125.646 23.3755 125.453 23.3973 125.264 23.4409C125.079 23.4839 124.986 23.5659 124.986 23.6839V27.205C124.986 27.297 125.079 27.3609 125.264 27.4049C125.453 27.4486 125.646 27.4704 125.84 27.4699L125.836 27.468ZM140.049 27.468C140.835 27.4737 141.618 27.3847 142.382 27.2029C143.062 27.0512 143.702 26.7601 144.264 26.3479C144.797 25.9456 145.23 25.4258 145.53 24.8289C145.857 24.1429 146.018 23.389 145.999 22.6289C145.995 21.8185 145.828 21.017 145.51 20.2719C145.159 19.4521 144.766 18.651 144.333 17.8719L141.747 13.2239C141.173 13.6059 140.624 13.9589 140.1 14.2829C139.573 14.6039 138.978 14.9739 138.325 15.3829L141.682 21.6159C141.861 21.9296 141.977 22.275 142.024 22.6329C142.024 23.1329 141.612 23.3799 140.784 23.3799H135.938V27.4729L140.049 27.468Z" fill="#9689A8"/>
<path d="M23.1112 12.956C23.0792 13.177 22.8113 13.361 22.6393 13.561C22.4623 13.371 22.1903 13.197 22.1484 12.984C22.1144 12.815 22.3683 12.584 22.5913 12.223C22.8573 12.574 23.1322 12.788 23.1082 12.957L23.1112 12.956ZM21.8574 12.239C21.5449 12.2354 21.2439 12.1205 21.0086 11.9148C20.7732 11.7091 20.619 11.4262 20.5735 11.117C20.5223 10.8072 20.5815 10.4893 20.7409 10.2187C20.9003 9.94819 21.1497 9.74229 21.4454 9.63699C21.5413 9.58638 21.6464 9.55544 21.7544 9.54599C21.9365 9.52719 22.1206 9.54882 22.2934 9.60931C22.4662 9.66981 22.6236 9.7677 22.7543 9.896C22.887 10.0264 22.9905 10.1835 23.0579 10.357C23.1253 10.5304 23.155 10.7162 23.1452 10.902C23.1447 11.2479 23.0101 11.5801 22.7697 11.8289C22.5294 12.0776 22.202 12.2236 21.8564 12.236L21.8574 12.239ZM22.7563 15.02C23.4123 14.5867 23.8942 13.9357 24.117 13.1817C24.3398 12.4278 24.2892 11.6193 23.9741 10.899C23.7064 10.2956 23.2876 9.77139 22.7583 9.37698C22.2218 9.0371 21.6005 8.85516 20.9655 8.85199C20.2704 8.92522 19.586 9.07787 18.9257 9.30698C19.0565 9.02695 19.2121 8.75922 19.3907 8.50699C20.0125 7.78085 20.8857 7.31653 21.8354 7.207C23.1602 6.98773 24.52 7.23701 25.6809 7.91199C26.0158 8.11429 26.3071 8.38112 26.538 8.69699C26.7689 9.01286 26.9347 9.37148 27.0258 9.75198C27.2218 10.4964 27.2633 11.273 27.1477 12.0341C27.0322 12.7951 26.762 13.5244 26.3538 14.177C25.953 14.8211 25.4204 15.3732 24.791 15.7968C24.1617 16.2204 23.4499 16.5061 22.7023 16.635C22.0068 16.8059 21.2808 16.8098 20.5835 16.6463C19.8863 16.4827 19.2377 16.1564 18.6908 15.694C18.3618 15.4099 18.1026 15.0538 17.9333 14.6534C17.7641 14.253 17.6894 13.819 17.7149 13.385C20.0386 15.778 21.1515 16.123 22.7553 15.021L22.7563 15.02ZM12.9025 26.847C12.7329 27.8694 12.3591 28.8471 11.8033 29.7218C11.2476 30.5965 10.5213 31.3502 9.66784 31.938C9.0336 32.4076 8.31207 32.746 7.54549 32.9333C6.77892 33.1206 5.98269 33.1531 5.20338 33.029C4.7137 32.953 4.26985 32.6974 3.95837 32.3119C3.64689 31.9264 3.4901 31.4388 3.51857 30.944C3.59615 30.0236 3.73748 29.1098 3.94153 28.209C4.42247 25.754 4.92342 23.3 5.42336 20.845C5.42802 20.6248 5.48481 20.4088 5.5891 20.2148C5.69338 20.0208 5.84218 19.8543 6.02328 19.729C6.20222 19.6061 6.40864 19.5292 6.62434 19.5049C6.84004 19.4807 7.05839 19.5099 7.26013 19.59C10.3868 20.19 12.0646 22.247 12.7365 25.307C12.8065 25.625 12.8505 25.95 12.8985 26.287C12.9281 26.4711 12.9281 26.6588 12.8985 26.843L12.9025 26.847ZM8.19002 12.984C8.19902 13.195 7.95105 13.417 7.81606 13.633L7.57909 13.639C7.44411 13.425 7.17914 13.194 7.20813 13.003C7.24521 12.8826 7.31156 12.7732 7.40126 12.6848C7.49095 12.5963 7.60118 12.5314 7.72208 12.496C7.85906 12.473 8.18303 12.803 8.19002 12.985V12.984ZM7.39012 10.133C7.50928 9.95408 7.67028 9.80692 7.85915 9.70428C8.04801 9.60165 8.25906 9.54662 8.47399 9.54398C8.64281 9.54076 8.81051 9.57192 8.96692 9.63553C9.12334 9.69913 9.2652 9.79388 9.38388 9.914C9.62736 10.1605 9.76326 10.4935 9.76183 10.84C9.77563 11.1214 9.70022 11.3999 9.54634 11.6359C9.39246 11.8719 9.16797 12.0532 8.90493 12.154C8.6437 12.2507 8.35811 12.2599 8.0912 12.1802C7.8243 12.1005 7.59053 11.9361 7.42512 11.712C7.25602 11.4848 7.16188 11.2106 7.15579 10.9274C7.14969 10.6443 7.23194 10.3662 7.39111 10.132L7.39012 10.133ZM11.9456 15.366C11.4022 15.9574 10.7046 16.3854 9.93122 16.6018C9.15786 16.8182 8.33944 16.8145 7.56809 16.591C6.52157 16.3583 5.56645 15.8234 4.82129 15.0525C4.07613 14.2817 3.57377 13.3089 3.37659 12.255C2.96164 10.121 3.3766 8.73998 4.64445 7.91898C5.52801 7.3786 6.54749 7.10181 7.58298 7.12112C8.61847 7.14043 9.62692 7.45505 10.4897 8.02798C10.942 8.34379 11.264 8.81332 11.3956 9.349C9.50886 8.64 7.79606 8.47898 6.62021 10.42C6.24241 10.9966 6.05951 11.6793 6.09839 12.3676C6.13726 13.0559 6.39586 13.7136 6.83618 14.244C8.76395 16.392 10.6587 15.824 12.5115 13.811C12.5279 14.0952 12.486 14.3798 12.3883 14.6472C12.2906 14.9146 12.1393 15.1593 11.9436 15.366H11.9456ZM1.57981 9.47598C1.52082 9.75498 1.46183 10.041 1.42283 10.325V10.351C1.36581 10.7069 1.36345 11.0694 1.41583 11.426C1.60134 12.5778 2.06394 13.6672 2.76378 14.6006C3.46363 15.5339 4.37977 16.2833 5.43335 16.784C6.22842 17.2649 7.12321 17.557 8.04887 17.6378C8.97452 17.7186 9.90637 17.5859 10.7727 17.25C11.5191 16.9984 12.1745 16.5321 12.6569 15.9095C13.1393 15.2868 13.4272 14.5356 13.4844 13.75C13.5174 13.316 13.5184 12.879 13.5734 12.45C13.5884 12.335 13.7504 12.239 13.8513 12.135C13.9403 12.226 14.0993 12.304 14.1173 12.408C14.1633 12.763 14.1533 13.126 14.1773 13.484C14.188 14.1497 14.2438 14.8139 14.3443 15.472C14.3757 15.6295 14.4514 15.7749 14.5627 15.8907C14.674 16.0066 14.8161 16.0882 14.9722 16.126C15.1275 16.162 15.29 16.152 15.4397 16.0971C15.5894 16.0422 15.7199 15.9449 15.8151 15.817C16.062 15.4074 16.2013 14.9419 16.22 14.464C16.284 13.703 16.237 12.932 16.237 12.138C16.651 12.166 16.806 12.328 16.812 12.659C16.7931 13.0767 16.8101 13.4952 16.863 13.91C17.4459 16.963 19.7256 17.829 22.0784 17.679C23.9019 17.5565 25.6071 16.7321 26.8358 15.379C27.0458 15.154 27.2747 14.945 27.4957 14.73L27.6727 14.801C27.7117 15.754 27.7727 16.71 27.7837 17.659C27.8107 19.734 27.8277 21.809 27.8197 23.883C27.7993 25.6592 27.2459 27.3883 26.2313 28.8463C25.2167 30.3043 23.7877 31.4239 22.1293 32.06C19.4687 33.042 16.73 32.715 14.0023 32.619C13.2474 32.593 13.2374 32.477 13.6924 31.85C14.6678 30.5778 15.2807 29.0654 15.4661 27.473C15.5454 25.8971 15.0581 24.3448 14.0923 23.097C13.0838 21.6117 11.7358 20.3883 10.16 19.5283C8.58414 18.6683 6.826 18.1965 5.03139 18.152C4.67643 18.127 4.52546 18.289 4.44847 18.623C3.46659 22.842 2.46271 27.056 1.49883 31.28C1.37332 31.7276 1.35609 32.1986 1.44859 32.6542C1.54108 33.1098 1.74064 33.5368 2.03076 33.9C2.28795 34.186 2.60695 34.4096 2.96353 34.5537C3.3201 34.6979 3.70485 34.7589 4.08851 34.732C7.23213 34.776 10.3758 34.817 13.5194 34.839C13.9703 34.839 14.1403 34.965 14.1303 35.457C14.0993 36.657 14.1183 37.857 14.1253 39.057C14.0989 39.2661 14.1536 39.4774 14.2782 39.6475C14.4028 39.8175 14.5878 39.9332 14.7952 39.971C15.015 40.0278 15.248 40.0012 15.4492 39.8963C15.6505 39.7914 15.8058 39.6157 15.8851 39.403C15.9721 39.1849 16.0149 38.9517 16.0111 38.717C16.0351 37.699 16.0231 36.679 16.0651 35.661C16.0741 35.435 16.2231 35.061 16.365 35.025C16.7862 34.9713 17.2117 34.9613 17.6349 34.995C17.6759 35.647 17.7129 36.223 17.7479 36.795C17.7889 37.474 18.0478 37.795 18.5608 37.788C18.6859 37.7826 18.8084 37.7512 18.9207 37.6958C19.033 37.6403 19.1324 37.5621 19.2127 37.466C19.2946 37.3688 19.3562 37.2561 19.3938 37.1347C19.4314 37.0132 19.4443 36.8855 19.4317 36.759C19.4447 36.323 19.4147 35.884 19.4467 35.449C19.4541 35.3687 19.4794 35.2911 19.5208 35.2219C19.5622 35.1527 19.6185 35.0936 19.6856 35.049C20.0674 34.9059 20.4632 34.8037 20.8665 34.744C22.9422 34.5331 24.8853 33.6251 26.3788 32.168C27.2427 31.3133 27.9252 30.293 28.3853 29.1682C28.8454 28.0433 29.0737 26.8372 29.0565 25.622C29.0315 20.713 29.0785 15.793 29.0105 10.88C28.9639 9.97835 28.7216 9.09762 28.3006 8.29898C27.3007 6.29898 25.4559 5.623 23.4302 5.543C21.9009 5.55363 20.4235 6.09876 19.2537 7.08401C18.084 8.06927 17.2956 9.43262 17.025 10.938C16.982 11.164 17.032 11.538 16.645 11.438C16.311 11.354 16.363 11.063 16.426 10.766C16.6727 9.57577 17.1577 8.44778 17.8519 7.44998C18.6964 6.14435 19.9465 5.15243 21.4099 4.62683C22.8732 4.10123 24.4687 4.07106 25.9509 4.54099C26.3658 4.68599 26.7998 4.77697 27.2197 4.89297C27.7107 4.24797 28.2006 3.64798 28.6386 3.01498C29.1915 2.21498 29.7134 1.39898 30.2214 0.569977C30.3043 0.434977 30.2474 0.205994 30.2544 0.0249939C30.1062 0.00918857 29.9563 0.0189899 29.8114 0.0539856C29.5195 0.180986 29.2445 0.354003 28.9625 0.509003C27.9752 1.15793 26.8233 1.51176 25.6419 1.52899C24.3361 1.43799 23.0422 1.17498 21.7424 0.983978C20.2006 0.754978 18.6648 0.414976 17.1149 0.306976C13.741 0.143594 10.3612 0.472737 7.08216 1.284C6.07184 1.55312 5.01651 1.60861 3.98354 1.44693C2.95058 1.28525 1.96268 0.909962 1.08288 0.345001C0.778862 0.192136 0.457604 0.0763064 0.125992 0L0 0.145996C0.0749005 0.408132 0.177465 0.661539 0.305963 0.901978C1.06987 2.03598 1.85179 3.157 2.63669 4.276C3.11463 4.957 3.12463 4.961 3.92754 4.681C5.39307 4.10063 7.01106 4.02951 8.52185 4.47906C10.0326 4.92862 11.3486 5.87278 12.2585 7.16C13.0415 8.18177 13.5953 9.36011 13.8823 10.615C13.9323 10.815 13.8133 11.215 13.6764 11.27C13.3214 11.412 13.3214 11.022 13.2674 10.802C12.9434 9.30881 12.1233 7.96936 10.9407 7.00198C10.2177 6.37875 9.35348 5.94137 8.42315 5.72781C7.49282 5.51426 6.52444 5.53099 5.60203 5.77652C4.67963 6.02205 3.83106 6.48899 3.12996 7.13681C2.42887 7.78463 1.89642 8.59375 1.57882 9.49399" fill="#9689A8"/>
</svg>
