<svg width="138" height="40" viewBox="0 0 138 40" fill="none" xmlns="http://www.w3.org/2000/svg">
<path d="M122.31 11.2277C122.177 11.0144 122.035 10.7964 121.885 10.5737H121.877C122.026 10.7957 122.169 11.0127 122.302 11.2277C122.68 11.8221 123.022 12.4386 123.326 13.0737H123.335C123.031 12.4382 122.689 11.8217 122.31 11.2277Z" fill="#9689A8"/>
<path d="M137.954 29.4379C137.913 29.9609 137.854 30.4469 137.77 30.8979C137.698 31.3181 137.598 31.7331 137.47 32.1399C137.359 32.4935 137.219 32.8371 137.05 33.1669C136.951 33.3599 136.832 33.5419 136.695 33.7099C136.632 33.7841 136.566 33.8546 136.495 33.9209C136.428 33.9833 136.356 34.0408 136.281 34.0929C136.245 34.1179 136.207 34.1419 136.168 34.1649C136.129 34.1879 136.092 34.2069 136.053 34.2269C136.014 34.2469 135.974 34.2639 135.933 34.2799C135.892 34.2959 135.851 34.3099 135.81 34.3239C134.707 34.6558 133.561 34.8223 132.41 34.8179C131.149 34.8141 129.892 34.6838 128.658 34.4289C127.307 34.1507 125.977 33.7832 124.675 33.3289C124.506 33.2719 124.336 33.2119 124.167 33.1509C123.998 33.0899 123.827 33.0289 123.657 32.9659C123.487 32.9029 123.316 32.8389 123.146 32.7719C122.976 32.7049 122.805 32.6409 122.635 32.5719C122.465 32.5029 122.293 32.4359 122.122 32.3639C121.951 32.2919 121.779 32.2239 121.608 32.1499C119.95 31.4229 118.386 30.496 116.952 29.3899C115.827 28.5332 114.755 27.6102 113.74 26.6259L113.733 26.6189C113.26 26.1629 112.818 25.6962 112.407 25.2189C112.004 24.7545 111.628 24.268 111.279 23.7619C110.945 23.2791 110.645 22.7743 110.379 22.2509C110.124 21.7469 109.91 21.2232 109.739 20.6849C109.686 20.5176 109.659 20.3432 109.66 20.1679C109.661 19.9791 109.688 19.7914 109.74 19.6099C109.801 19.4021 109.882 19.2011 109.984 19.0099C110.156 18.6833 110.357 18.3724 110.584 18.0809C110.846 17.7448 111.13 17.4261 111.434 17.1269C111.758 16.8059 112.123 16.4759 112.528 16.1439C112.933 15.8119 113.382 15.4799 113.874 15.1499C114.88 14.4774 115.923 13.8627 116.999 13.3089C117.904 12.8422 118.83 12.4212 119.776 12.0459C119.914 12.4499 120.041 12.8699 120.158 13.3059C120.191 13.4229 120.22 13.5409 120.251 13.6589C117.545 14.8029 117.969 17.4539 119.927 20.7099C120.5 21.6492 121.122 22.5574 121.791 23.4309C122.2 23.9719 122.636 24.5229 123.091 25.0789C127.881 29.9789 132.198 32.7509 133.399 27.5449C133.557 26.8587 133.665 26.1618 133.721 25.4599C133.782 24.7101 133.795 23.9573 133.76 23.2059C133.723 22.3937 133.641 21.5841 133.515 20.7809C133.419 20.1662 133.299 19.5682 133.155 18.9869C133.012 18.4069 132.843 17.8409 132.655 17.2929C131.83 14.9289 130.442 14.2619 128.364 13.6339C127.84 13.4763 127.309 13.3478 126.772 13.2489C126.062 13.1173 125.344 13.0344 124.622 13.0009C124.189 12.9823 123.755 12.9857 123.322 13.0109C123.019 12.3746 122.676 11.7575 122.297 11.1629C122.779 11.0155 123.265 10.8799 123.756 10.7559C131.328 8.82887 133.531 10.6509 135.957 17.1359C136.382 18.2703 136.743 19.4274 137.04 20.6019C137.628 22.9435 137.947 25.3448 137.989 27.7589C138.013 28.3569 137.995 28.9159 137.954 29.4379Z" fill="#9689A8"/>
<path d="M120.179 13.3681C120.061 12.9314 119.933 12.5101 119.794 12.1041H119.785C119.922 12.5081 120.05 12.9281 120.167 13.3641C120.2 13.4811 120.229 13.5991 120.26 13.7171H120.27C120.241 13.6001 120.21 13.4841 120.179 13.3681ZM122.309 11.2261H122.301C122.679 11.8205 123.021 12.4369 123.325 13.0721H123.334C123.03 12.4365 122.688 11.8201 122.309 11.2261Z" fill="#9689A8"/>
<path d="M121.799 23.4898C121.13 22.6164 120.508 21.7081 119.935 20.7688C120.749 19.4253 121.039 17.8287 120.749 16.2848C120.705 15.9158 120.643 15.5328 120.573 15.1328C120.49 14.6595 120.39 14.1858 120.273 13.7118C120.244 13.5958 120.214 13.4798 120.183 13.3648C120.065 12.9281 119.937 12.5068 119.798 12.1008C119.716 11.8568 119.63 11.6198 119.54 11.3868L119.562 11.4408C120.325 11.1141 121.098 10.8241 121.879 10.5708C122.028 10.7928 122.171 11.0098 122.304 11.2248C122.682 11.8192 123.024 12.4356 123.328 13.0708H123.337C125.088 16.7728 124.368 19.5268 121.799 23.4898Z" fill="#9689A8"/>
<path d="M120.633 8.85593C119.986 9.07193 119.345 9.3106 118.708 9.57193C118.725 9.60293 118.742 9.63493 118.759 9.67193C118.798 9.74593 118.837 9.81993 118.876 9.89593C118.915 9.97193 118.955 10.0539 118.993 10.1339C119.031 10.2139 119.074 10.3009 119.112 10.3859C119.15 10.4709 119.179 10.5299 119.212 10.6039L119.226 10.6359C119.244 10.6759 119.261 10.7149 119.278 10.7559C119.331 10.8799 119.385 11.0049 119.435 11.1309C119.47 11.2179 119.504 11.3039 119.535 11.3919C119.625 11.6239 119.711 11.8609 119.793 12.1039H119.784C119.669 11.7666 119.549 11.4406 119.422 11.1259C119.158 10.4662 118.848 9.82628 118.493 9.21093C118.21 8.72138 117.891 8.25344 117.539 7.81093V7.80293C117.491 7.74193 117.439 7.68193 117.392 7.62293C114.272 3.88593 111.571 8.92293 109.301 16.0809C107.555 23.3879 107.275 29.0909 111.878 27.4869C112.491 27.2713 113.084 27.0036 113.651 26.6869L113.731 26.6429L113.738 26.6499C114.753 27.632 115.825 28.5526 116.95 29.4069C116.779 29.5729 116.607 29.7359 116.432 29.8959C115.574 30.6842 114.668 31.419 113.719 32.0959C113.291 32.4017 112.847 32.6841 112.388 32.9419C111.992 33.1649 111.584 33.3652 111.165 33.5419C110.809 33.6952 110.441 33.8196 110.065 33.9139C109.855 33.966 109.642 34.0047 109.427 34.0299C109.211 34.0556 108.993 34.058 108.776 34.0369C107.694 33.9239 107.128 32.8729 106.621 32.0369C106.299 31.5054 106.01 30.9547 105.756 30.3879C105.489 29.8026 105.246 29.1853 105.025 28.5359C104.804 27.8866 104.603 27.2103 104.42 26.5069C103.374 22.6539 102.938 18.6609 103.128 14.6729C103.177 13.8579 103.241 13.0509 103.321 12.2609C103.401 11.4709 103.495 10.6969 103.609 9.94393C103.723 9.19093 103.853 8.45493 104.009 7.74393C104.165 7.03293 104.331 6.34393 104.524 5.69093C104.717 5.03793 104.933 4.40393 105.171 3.80893C105.4 3.23168 105.664 2.66867 105.961 2.12293C106.239 1.61221 106.556 1.12316 106.908 0.659929C106.92 0.641728 106.934 0.624358 106.949 0.607929C106.964 0.591929 106.978 0.57393 106.993 0.55893C107.007 0.542155 107.021 0.526132 107.037 0.510929C107.051 0.494929 107.067 0.480929 107.083 0.464929C107.099 0.448929 107.114 0.435929 107.13 0.421929L107.178 0.38193C107.194 0.36793 107.212 0.354929 107.228 0.342929C107.244 0.330929 107.263 0.317929 107.28 0.304929C107.297 0.291929 107.315 0.281929 107.333 0.270929C107.351 0.258625 107.37 0.247276 107.389 0.236929L107.444 0.206929L107.502 0.177929L107.562 0.151929L107.624 0.126929L107.686 0.10393L107.752 0.0849296C107.94 0.0318759 108.134 0.00363552 108.329 0.000928986C108.662 -0.00367752 108.994 0.0278402 109.32 0.0949288C109.701 0.172672 110.074 0.280682 110.438 0.417929C110.864 0.576675 111.281 0.759298 111.686 0.964929C112.156 1.20148 112.613 1.46388 113.054 1.75093C114.032 2.38372 114.97 3.07638 115.862 3.82493C116.771 4.5886 117.635 5.40465 118.449 6.26893C119.225 7.09188 119.957 7.95437 120.644 8.85293L120.633 8.85593Z" fill="#9689A8"/>
<path d="M120.749 16.285L120.738 16.279C120.692 15.913 120.633 15.532 120.563 15.132C120.478 14.6606 120.378 14.1893 120.263 13.718C120.233 13.6 120.203 13.482 120.17 13.365C120.053 12.929 119.926 12.509 119.788 12.105H119.797C119.935 12.5096 120.063 12.931 120.182 13.369C120.213 13.485 120.244 13.601 120.272 13.716C120.391 14.19 120.491 14.6636 120.572 15.137C120.643 15.534 120.705 15.916 120.749 16.285Z" fill="#9689A8"/>
<path d="M129.423 7.30371V9.36271C126.864 9.38009 124.323 9.79055 121.888 10.5797H121.88C121.098 10.8317 120.326 11.1217 119.563 11.4497L119.541 11.3957C119.507 11.3057 119.474 11.2187 119.441 11.1337C119.391 11.0077 119.341 10.8817 119.284 10.7577C119.268 10.7177 119.25 10.6777 119.232 10.6377L119.218 10.6057C119.185 10.5317 119.152 10.4597 119.118 10.3877C119.084 10.3157 119.04 10.2177 118.999 10.1347C118.958 10.0517 118.922 9.97571 118.882 9.89671C118.842 9.81771 118.805 9.74671 118.765 9.67271C118.748 9.63971 118.731 9.60771 118.714 9.57271C119.351 9.31138 119.993 9.07204 120.639 8.85471H120.647C123.478 7.89973 126.436 7.37686 129.423 7.30371Z" fill="#9689A8"/>
<path fill-rule="evenodd" clip-rule="evenodd" d="M107.471 35.3657H112.105V39.9997H107.471V35.3657Z" fill="#9689A8"/>
<path d="M91.8974 22.2237C91.8644 21.9237 91.8754 21.8537 91.8194 21.3657C91.4304 21.8507 90.1084 23.3937 90.1324 23.3657L91.0324 32.3347C91.3879 31.9157 91.6531 31.4279 91.8114 30.9017C92.0474 30.4134 92.1902 29.8854 92.2324 29.3447C92.2324 27.3997 92.0734 25.4497 91.9894 23.5067C91.9624 23.0817 91.9414 22.6507 91.8974 22.2237Z" fill="#9689A8"/>
<path d="M94.0524 18.8081C93.9884 18.5901 93.8594 18.5991 93.7284 18.6781C93.6187 18.7553 93.5156 18.8416 93.4204 18.9361C92.9684 19.3596 92.3748 19.5995 91.7554 19.6091C91.1361 19.6187 90.5354 19.3973 90.0704 18.9881C90.0139 18.9406 89.9419 18.9155 89.8681 18.9177C89.7943 18.9199 89.7239 18.9493 89.6704 19.0001C89.2395 19.4711 88.9266 20.0376 88.7574 20.6531C88.2064 22.2631 89.8494 20.3221 89.8494 20.3221C90.0328 20.565 90.2747 20.7574 90.5526 20.8814C90.8304 21.0054 91.1352 21.0569 91.4384 21.0311C91.941 20.9559 92.4205 20.7693 92.8418 20.4851C93.263 20.2008 93.6155 19.826 93.8734 19.3881C94.0023 19.2234 94.0661 19.0169 94.0524 18.8081Z" fill="#9689A8"/>
<path d="M86.8698 24.0562C85.7548 24.0562 84.2228 25.6312 83.6698 26.7342C83.3518 27.3562 83.0018 27.9272 82.7588 28.3042C82.6657 28.4467 82.5385 28.5637 82.3886 28.6444C82.2387 28.7251 82.071 28.7669 81.9008 28.7662H78.8038C78.7128 26.0772 77.5508 24.3762 75.7298 24.3762C74.2688 24.3762 72.9208 26.8502 72.9208 28.5052C72.9208 29.6522 73.2908 31.2752 74.8128 31.2752C75.7173 31.2752 76.5879 30.9308 77.2478 30.3122C76.5352 32.1156 75.1528 33.5736 73.3898 34.3812L75.5778 36.2452C77.9568 33.6902 78.5848 32.3662 78.7508 30.8632C78.8718 30.9977 79.0199 31.1053 79.1853 31.1789C79.3507 31.2525 79.5298 31.2904 79.7108 31.2902H81.3348C81.6714 31.2909 82.0007 31.1918 82.2809 31.0052C82.5612 30.8186 82.7797 30.5531 82.9088 30.2422L83.1238 29.7162C84.6493 30.6607 86.32 31.3475 88.0688 31.7492C88.0688 31.7492 90.0688 29.3812 89.2088 27.1302C88.3488 24.8792 87.9878 24.0562 86.8698 24.0562ZM75.4628 28.7972C74.5528 28.7972 74.3158 28.2392 74.3158 27.8722C74.3158 27.5052 74.7568 26.5492 75.4628 26.5492C75.8642 26.6264 76.2337 26.8209 76.5246 27.108C76.8156 27.395 77.0151 27.7619 77.0978 28.1622C76.6361 28.5456 76.0622 28.7685 75.4628 28.7972ZM87.1488 28.8542C86.2289 28.5483 85.3845 28.0503 84.6718 27.3932C84.8189 27.1562 84.9942 26.938 85.1938 26.7432C85.3774 26.5834 85.5928 26.4645 85.8258 26.3942C86.1215 26.2957 86.4437 26.3147 86.7258 26.4472C87.0224 26.6587 87.2707 26.9308 87.4545 27.2453C87.6382 27.5599 87.7532 27.9099 87.7918 28.2722C87.9038 28.7852 87.6598 29.0252 87.1478 28.8562L87.1488 28.8542Z" fill="#9689A8"/>
<path d="M68.9395 27.5701C70.7395 28.7961 70.9835 29.8791 70.9835 29.8791C70.0235 32.3321 66.4425 34.3151 66.4425 34.3151L68.8955 36.4151C75.2085 30.4491 70.5275 25.0581 70.5275 25.0581L68.9395 27.5701Z" fill="#9689A8"/>
<path d="M70.4933 20.6783L68.7885 22.3831L70.4933 24.0879L72.1982 22.3831L70.4933 20.6783Z" fill="#9689A8"/>
<path d="M51.4048 24.7688L53.0668 26.4308L54.7289 24.7688L56.3908 26.4308L58.0909 24.7308L56.3908 23.0308L54.7289 24.6928L53.0668 23.0308L51.4048 24.6928L49.7428 23.0308L48.0428 24.7308L49.7428 26.4308L51.4048 24.7688Z" fill="#9689A8"/>
<path d="M67.3947 29.709L67.4867 29.523L67.6347 29.134L67.9137 28.318C68.0317 27.9883 68.124 27.65 68.1897 27.306C68.2201 27.0428 68.1973 26.7762 68.1227 26.522C67.9742 25.7734 67.6549 25.0691 67.1897 24.464L65.7986 26.278L66.3737 27.149C66.6235 27.4674 66.8182 27.8253 66.9497 28.208C66.7317 28.389 66.4777 28.5216 66.2046 28.597C65.8875 28.7015 65.5565 28.7575 65.2226 28.763C64.9934 28.7794 64.7643 28.7308 64.5614 28.6229C64.3585 28.515 64.1902 28.3522 64.0756 28.153C63.8428 27.6487 63.7397 27.0943 63.7756 26.54H62.9605C62.949 27.0166 62.8344 27.485 62.6245 27.913C62.4512 28.1783 62.2136 28.3954 61.9339 28.5442C61.6541 28.6929 61.3413 28.7686 61.0245 28.764C59.9131 28.764 59.3567 28.023 59.3554 26.541H58.5614C58.5696 26.9982 58.4615 27.45 58.2473 27.854C58.1348 28.1179 57.9489 28.344 57.7118 28.5055C57.4746 28.667 57.1961 28.757 56.9093 28.765H54.5622H51.1671L50.151 31.119C53.9972 31.486 54.2172 32.665 54.2172 32.665C52.3961 34.313 48.701 34.105 47.1269 34.105C45.5529 34.105 43.5698 33.455 43.5698 31.342C43.5555 30.1114 43.8972 28.9029 44.5538 27.862L44.4968 27.827L44.8118 27.381C42.6035 27.1919 40.4659 26.5084 38.5576 25.381C37.1473 24.4943 35.5446 23.9593 33.8844 23.821C31.3763 23.708 31.1843 26.67 31.1843 26.67C31.8363 26.1927 32.6378 25.9649 33.4434 26.028C35.0245 26.028 38.0876 27.654 38.0876 27.654C37.2818 27.7996 36.4956 28.0379 35.7445 28.364C34.8835 28.7408 33.9487 28.9192 33.0094 28.886H30.5883C30.4963 26.197 29.3353 24.496 27.5142 24.496C26.0531 24.496 24.7051 26.97 24.7051 28.625C24.7051 29.772 25.0751 31.395 26.5971 31.395C27.5017 31.3951 28.3724 31.0508 29.0322 30.432C28.32 32.2354 26.9379 33.6934 25.1751 34.501L27.3632 36.365C29.7423 33.81 30.3703 32.486 30.5363 30.983C30.6577 31.1164 30.8059 31.2228 30.9711 31.2951C31.1363 31.3675 31.315 31.4042 31.4953 31.403H32.9374C34.2808 31.3482 35.5849 30.9338 36.7135 30.203C38.6223 29.2368 40.8086 28.9676 42.8948 29.442C42.4151 30.5451 42.1824 31.7396 42.2127 32.942C42.2127 34.604 43.4798 36.415 47.2059 36.415C49.6195 36.4623 52.0044 35.886 54.1302 34.742C54.5499 34.5256 54.9029 34.1993 55.1516 33.7979C55.4003 33.3966 55.5353 32.9352 55.5422 32.463C55.5422 31.524 55.1642 31.252 55.1642 31.252H56.7383C57.2607 31.2394 57.7585 31.0272 58.1293 30.659C58.4904 30.297 58.7789 29.8693 58.9794 29.399C59.4874 30.634 60.1584 31.252 61.0014 31.252C61.2908 31.2679 61.5802 31.2233 61.8514 31.1212C62.1225 31.0191 62.3695 30.8617 62.5765 30.659C62.9038 30.3036 63.1336 29.8695 63.2435 29.399C63.3277 29.8652 63.5476 30.2962 63.8756 30.638C64.0349 30.8181 64.2283 30.9651 64.4445 31.0704C64.6607 31.1758 64.8955 31.2375 65.1356 31.252C65.6075 31.233 66.0619 31.0677 66.4357 30.779C66.8384 30.5065 67.1678 30.139 67.3947 29.709ZM27.2432 28.918C26.3331 28.918 26.0961 28.36 26.0961 27.993C26.0961 27.626 26.5371 26.67 27.2432 26.67C27.6444 26.7474 28.0137 26.9417 28.3047 27.2286C28.5957 27.5154 28.7952 27.882 28.8782 28.282C28.417 28.6657 27.8435 28.889 27.2442 28.918H27.2432Z" fill="#9689A8"/>
<path d="M19.1761 24.8649C18.9471 24.8749 18.7141 24.8649 18.4811 24.8649H16.9571C15.331 25.022 13.6903 24.8108 12.1571 24.2469C11.5461 24.0349 11.8571 23.6569 11.8571 23.6569C13.6361 21.2259 18.0651 20.0919 18.0651 20.0919V18.1099C12.0721 19.9419 9.61606 24.0629 9.61606 25.4259C9.61606 26.2549 11.1541 26.5479 11.7371 26.6819C12.9811 26.9693 14.2543 27.1116 15.5311 27.1059C18.3441 27.0919 15.6981 27.1059 18.5101 27.1059C23.4301 27.1059 22.9571 28.9449 22.9571 28.9449L10.5901 28.8779V28.8669H9.62306C9.62306 28.8669 8.38806 28.7859 8.33806 27.7099C8.28806 26.6339 7.66006 18.8839 7.66006 18.8839L6.00806 20.2569C6.3709 22.2085 6.63093 24.1779 6.78706 26.1569C6.99606 28.3379 7.12906 30.2119 7.12906 30.2119C7.14599 30.5324 7.28551 30.8342 7.51874 31.0548C7.75196 31.2753 8.06105 31.3978 8.38206 31.3969H22.6921C22.8927 31.3957 23.088 31.3318 23.2507 31.2142C23.4133 31.0966 23.5351 30.9311 23.5991 30.7409C23.8819 29.8935 24.0224 29.0051 24.0151 28.1119C24.0151 24.6559 19.1761 24.8649 19.1761 24.8649Z" fill="#9689A8"/>
<path d="M2.498 26.554C4.298 27.78 4.542 28.863 4.542 28.863C3.581 31.317 0 33.299 0 33.299L2.453 35.399C8.767 29.433 4.086 24.042 4.086 24.042L2.498 26.554Z" fill="#9689A8"/>
<path d="M38.8074 31.3931L37.1025 33.0979L38.8074 34.8027L40.5122 33.0979L38.8074 31.3931Z" fill="#9689A8"/>
<path d="M52.313 12.8149C52.113 13.1149 51.931 13.4229 51.763 13.7389C51.2945 14.4949 51.026 15.3576 50.983 16.2459C50.9802 16.5837 51.0819 16.9141 51.274 17.1919C52.026 18.2169 53.493 17.7999 54.489 17.4429C55.1383 17.2418 55.7171 16.8603 56.158 16.3429C56.4415 15.9551 56.604 15.492 56.625 15.0119C56.6783 14.101 56.4564 13.1951 55.988 12.4119C55.43 11.4696 54.5634 10.7492 53.535 10.3729C53.1612 10.2379 52.7745 10.1417 52.381 10.0859L51.758 12.2509L52.558 12.4509C52.4645 12.5639 52.3824 12.6858 52.313 12.8149ZM53.133 12.6639C53.133 12.6639 55.208 13.3009 55.51 14.7579C55.51 14.7579 53.64 16.0059 52.554 15.4089C51.374 14.7539 53.133 12.6639 53.133 12.6639Z" fill="#9689A8"/>
<path d="M59.7852 17.112C60.7069 17.1118 61.594 16.7607 62.2662 16.13C61.5402 17.9677 60.1316 19.4533 58.3352 20.276L60.5652 22.176C63.8592 18.641 63.8592 17.414 63.8592 14.912C63.8592 11.967 62.6592 10.082 60.7192 10.082C59.2312 10.082 57.8572 12.603 57.8572 14.289C57.8572 15.458 58.2352 17.112 59.7852 17.112ZM60.4462 12.297C60.8552 12.3758 61.2318 12.574 61.5283 12.8666C61.8248 13.1592 62.028 13.5331 62.1122 13.941C61.6417 14.3317 61.057 14.5588 60.4462 14.588C59.5192 14.588 59.2782 14.02 59.2782 13.646C59.2782 13.272 59.7272 12.299 60.4462 12.299V12.297Z" fill="#9689A8"/>
<path d="M67.8117 15.8791C67.8117 15.8791 67.4627 17.7791 63.1865 20.4001L65.3276 22.2051C67.2124 20.6924 68.4454 18.5145 68.7727 16.1201C68.7727 16.1201 69.2548 17.1421 70.0638 17.1421H91.3726C91.5776 17.1409 91.7772 17.0758 91.9436 16.9559C92.1099 16.836 92.2347 16.6672 92.3006 16.4731C92.5892 15.6097 92.7315 14.7043 92.7216 13.7941C92.7216 10.2811 87.7945 10.4941 87.7945 10.4941C87.5605 10.5051 87.3194 10.4941 87.0854 10.4941H83.6853C81.5153 10.655 79.3338 10.4419 77.2361 9.86407C76.614 9.64907 76.93 9.26407 76.93 9.26407C78.7431 6.78707 83.2563 5.63207 83.2563 5.63207V3.60107C77.1491 5.46807 74.646 9.66808 74.646 11.0571C74.646 11.9021 76.214 12.2001 76.807 12.3381C78.0748 12.6303 79.3722 12.7749 80.6732 12.7691C83.5403 12.7541 84.2443 12.7691 87.1074 12.7691C92.1206 12.7691 91.6426 14.6431 91.6426 14.6431L70.0598 14.5671C69.894 14.5676 69.7318 14.5191 69.5935 14.4277C69.4552 14.3362 69.3471 14.2059 69.2828 14.0531C68.8591 12.9005 68.199 11.8493 67.3447 10.9671L65.7266 13.5281C65.7266 13.5281 67.4847 14.7861 67.8117 15.8791Z" fill="#9689A8"/>
<path d="M81.1128 3.6609L80.6918 2.5459C78.6979 3.3554 76.8739 4.53251 75.3148 6.0159L76.1748 6.8429C77.5889 5.45946 79.2687 4.37699 81.1128 3.6609Z" fill="#9689A8"/>
</svg>
