<svg width="160" height="40" viewBox="0 0 160 40" fill="none" xmlns="http://www.w3.org/2000/svg">
<path d="M26.0917 22.206C24.9147 20.068 22.2087 19.541 19.9807 19.392C19.7627 19.377 19.5437 19.367 19.3257 19.359C16.6651 19.3341 14.0108 19.0947 11.3887 18.643C8.57572 18.082 5.63672 16.959 8.80172 14.861L8.81672 14.844C10.1277 15.2818 11.4953 15.527 12.8767 15.572C13.0557 15.578 13.2337 15.581 13.4087 15.581C19.0917 15.581 23.7277 12.338 23.8757 8.171C23.9078 6.78064 23.471 5.41994 22.6357 4.308L25.3697 4.408H25.4077C25.548 4.4105 25.6873 4.38534 25.8179 4.33397C25.9484 4.28261 26.0675 4.20603 26.1685 4.10862C26.2694 4.01122 26.3502 3.89488 26.4061 3.76626C26.4621 3.63764 26.4922 3.49925 26.4947 3.359C26.4972 3.21875 26.4721 3.07938 26.4207 2.94885C26.3693 2.81832 26.2927 2.69918 26.1953 2.59824C26.0979 2.49731 25.9816 2.41654 25.853 2.36057C25.7244 2.30459 25.586 2.2745 25.4457 2.272L20.2747 2.088C18.2252 0.783155 15.8577 0.0641772 13.4287 0.009C13.2507 0 13.0727 0 12.8997 0C7.21472 0 2.57872 3.242 2.42972 7.41C2.32972 10.234 4.31572 12.781 7.37072 14.254C6.8316 14.5498 6.31098 14.878 5.81172 15.237C5.33962 15.5673 4.88934 15.9277 4.46372 16.316C4.25136 16.5124 4.0532 16.7236 3.87072 16.948C3.45536 17.3665 3.17076 17.8968 3.05161 18.4742C2.93247 19.0517 2.98393 19.6513 3.19972 20.2C3.60919 20.8698 4.23343 21.3813 4.97072 21.651L5.13172 21.726L5.08572 21.756C4.58572 22.078 0.0857165 25.032 0.00371647 27.277C-0.0882835 29.877 3.44172 31.122 5.43172 31.599C7.54109 32.0851 9.70011 32.3227 11.8647 32.307C13.5808 32.3028 15.2945 32.1806 16.9937 31.941C17.6084 31.855 18.2197 31.753 18.8277 31.635C20.7289 31.3519 22.5439 30.6519 24.1427 29.585C25.2987 28.7934 26.1316 27.6125 26.4894 26.2579C26.8471 24.9033 26.706 23.4652 26.0917 22.206ZM7.22172 7.584C7.20835 5.96237 7.82232 4.39833 8.93528 3.21884C10.0482 2.03935 11.574 1.33571 13.1937 1.255C13.2577 1.255 13.3217 1.255 13.3877 1.255C16.6657 1.371 19.2187 4.391 19.0877 8C19.1011 9.62163 18.4871 11.1857 17.3741 12.3652C16.2612 13.5446 14.7354 14.2483 13.1157 14.329C13.0517 14.329 12.9857 14.329 12.9157 14.329C9.64672 14.213 7.09272 11.192 7.22172 7.584ZM24.4927 25.547C24.4087 26.0968 24.1636 26.6094 23.7884 27.02C23.4132 27.4306 22.9247 27.7208 22.3847 27.854C19.9021 28.653 17.3018 29.025 14.6947 28.954C14.5127 28.954 14.3297 28.954 14.1467 28.954C11.9915 28.9607 9.84171 28.7378 7.73372 28.289C6.41572 27.989 4.28472 27.433 4.37572 25.701C4.39024 25.392 4.4664 25.0891 4.59972 24.81C4.92583 24.2222 5.33354 23.6835 5.81072 23.21C6.03546 22.971 6.27421 22.7456 6.52572 22.535C6.59672 22.475 6.77072 22.299 6.94572 22.148C6.95272 22.148 6.95872 22.138 6.96572 22.132C7.10572 22.151 7.20872 22.178 7.35572 22.209C7.75972 22.293 8.16772 22.366 8.57972 22.428C9.57972 22.583 10.5907 22.686 11.5797 22.782C13.0447 22.924 14.5147 23.018 15.9857 23.082C17.1857 23.136 18.3887 23.172 19.5947 23.19C21.0207 23.212 22.7197 23.166 23.8497 24.037C24.0725 24.2167 24.2477 24.4484 24.3598 24.7117C24.4719 24.975 24.5176 25.2619 24.4927 25.547Z" fill="#9689A8"/>
<path d="M8.05066 36.8841C8.05066 37.5006 7.86786 38.1032 7.52536 38.6158C7.18287 39.1284 6.69607 39.528 6.12652 39.7639C5.55697 39.9998 4.93026 40.0615 4.32563 39.9413C3.72101 39.821 3.16562 39.5241 2.7297 39.0882C2.29379 38.6522 1.99693 38.0969 1.87666 37.4922C1.7564 36.8876 1.81812 36.2609 2.05404 35.6913C2.28995 35.1217 2.68946 34.6349 3.20203 34.2924C3.71461 33.9499 4.31724 33.7671 4.93372 33.7671C5.76038 33.7671 6.55319 34.0955 7.13773 34.6801C7.72227 35.2646 8.05066 36.0574 8.05066 36.8841Z" fill="#9689A8"/>
<path d="M23.8987 36.8841C23.8987 37.5006 23.7159 38.1032 23.3734 38.6158C23.0309 39.1284 22.5441 39.5279 21.9745 39.7639C21.4049 39.9998 20.7782 40.0615 20.1736 39.9412C19.569 39.821 19.0135 39.5241 18.5776 39.0881C18.1417 38.6522 17.8448 38.0968 17.7246 37.4922C17.6043 36.8875 17.666 36.2608 17.902 35.6913C18.1379 35.1217 18.5374 34.6349 19.05 34.2924C19.5626 33.9499 20.1652 33.7671 20.7817 33.7671C21.191 33.7671 21.5963 33.8478 21.9745 34.0044C22.3527 34.161 22.6963 34.3906 22.9857 34.6801C23.2752 34.9695 23.5048 35.3131 23.6614 35.6913C23.8181 36.0695 23.8987 36.4748 23.8987 36.8841Z" fill="#9689A8"/>
<path d="M52.7198 14.737L50.7198 14.665L50.5877 14.819C50.9145 15.1505 51.1579 15.555 51.2978 15.999C51.4738 16.5179 51.5601 17.0631 51.5528 17.611C51.5877 18.2704 51.4723 18.9292 51.2152 19.5374C50.9581 20.1457 50.5661 20.6875 50.0688 21.122C48.8676 22.015 47.3884 22.4526 45.8947 22.357C45.1882 22.3718 44.4839 22.2728 43.8087 22.064C43.0661 22.604 42.6937 23.1343 42.6917 23.655C42.6707 23.9317 42.7441 24.2073 42.8997 24.437C43.0835 24.6385 43.3304 24.7715 43.5998 24.814C44.0882 24.9023 44.5845 24.9398 45.0807 24.926H48.5807C49.4452 24.8941 50.3063 25.0514 51.1037 25.387C51.6893 25.6353 52.177 26.0692 52.4917 26.622C52.816 27.2818 52.951 28.0185 52.8818 28.7504C52.8126 29.4823 52.5419 30.1806 52.0998 30.768C51.501 31.5026 50.7099 32.0565 49.8147 32.368C48.7005 32.7697 47.522 32.9636 46.3377 32.94C45.4373 32.9451 44.5376 32.889 43.6447 32.772C42.9259 32.6862 42.2235 32.4959 41.5597 32.207C41.0304 31.9801 40.5693 31.6192 40.2218 31.16C39.8941 30.6828 39.7302 30.1123 39.7547 29.534C39.7587 28.9426 39.9798 28.3732 40.3758 27.934C40.864 27.3979 41.4572 26.968 42.1187 26.671C41.6932 26.5171 41.3198 26.246 41.0417 25.889C40.7791 25.5397 40.6423 25.1118 40.6537 24.675C40.654 24.1508 40.8199 23.6402 41.1277 23.216C41.5974 22.6274 42.1566 22.1162 42.7848 21.701C42.1116 21.3359 41.5589 20.7832 41.1938 20.11C40.8234 19.4049 40.6386 18.6172 40.6568 17.821C40.6434 17.1024 40.7888 16.3898 41.0827 15.734C41.3485 15.1607 41.746 14.6584 42.2428 14.268C42.7636 13.8678 43.3577 13.5736 43.9917 13.402C44.7007 13.2064 45.4333 13.1102 46.1687 13.116C46.8708 13.116 47.5706 13.1955 48.2547 13.353H52.6397C52.8413 13.3513 53.0356 13.4283 53.1812 13.5676C53.3269 13.7069 53.4125 13.8975 53.4198 14.099C53.4182 14.1876 53.3986 14.2751 53.3621 14.3559C53.3256 14.4367 53.2729 14.5092 53.2074 14.569C53.1418 14.6287 53.0648 14.6744 52.9809 14.7033C52.8971 14.7322 52.8082 14.7437 52.7198 14.737ZM43.5927 26.921C43.1493 27.2192 42.7682 27.601 42.4707 28.045C42.2182 28.4485 42.0867 28.916 42.0918 29.392C42.0699 29.767 42.1556 30.1404 42.339 30.4682C42.5224 30.796 42.7957 31.0644 43.1267 31.242C44.1238 31.6998 45.2187 31.9035 46.3137 31.835C47.0796 31.8519 47.8428 31.7387 48.5708 31.5C49.1331 31.3218 49.6334 30.9879 50.0138 30.537C50.3445 30.1206 50.5211 29.6027 50.5138 29.071C50.515 28.814 50.4813 28.558 50.4137 28.31C50.3445 28.0598 50.2123 27.8315 50.0297 27.647C49.802 27.4282 49.5248 27.2677 49.2218 27.179C48.7766 27.0498 48.314 26.9911 47.8507 27.005H45.6757C44.8904 27.005 44.1961 26.977 43.5927 26.921ZM43.2718 17.596C43.2064 18.5507 43.4642 19.4996 44.0037 20.29C44.2591 20.6077 44.5868 20.8596 44.9594 21.0247C45.3321 21.1898 45.7389 21.2633 46.1457 21.239C46.5851 21.2515 47.021 21.1582 47.4167 20.967C47.76 20.7926 48.0548 20.536 48.2747 20.22C48.5029 19.8861 48.668 19.5133 48.7617 19.12C48.8673 18.693 48.9207 18.2548 48.9207 17.815C48.946 17.1138 48.8251 16.415 48.5658 15.763C48.3697 15.2681 48.0248 14.8464 47.5788 14.556C47.1431 14.2947 46.6426 14.1616 46.1347 14.172C45.7375 14.1469 45.3397 14.2132 44.9721 14.3658C44.6044 14.5183 44.2766 14.753 44.0138 15.052C43.4771 15.7874 43.2146 16.6874 43.2718 17.596Z" fill="#9689A8"/>
<path d="M62.7448 24.7019L62.5258 24.6459C61.8296 25.3621 61.0183 25.9567 60.1258 26.4049C59.3815 26.7491 58.5707 26.9255 57.7508 26.9219C57.0765 26.9358 56.408 26.7949 55.7968 26.5099C55.2606 26.2596 54.8104 25.8564 54.5028 25.3509C54.1971 24.8288 54.0433 24.2317 54.0588 23.6269C54.0673 22.9522 54.2729 22.2948 54.6503 21.7355C55.0277 21.1762 55.5603 20.7394 56.1828 20.4789C58.1807 19.6095 60.339 19.1697 62.5178 19.1879V18.2809C62.5481 17.5078 62.4532 16.7348 62.2368 15.9919C62.0855 15.4881 61.762 15.0534 61.3228 14.7639C60.8111 14.4799 60.2303 14.3445 59.6458 14.3729C58.9858 14.3411 58.3358 14.5437 57.8108 14.9449C57.451 15.2529 57.167 15.6395 56.9808 16.0749C56.8972 16.2535 56.7637 16.404 56.5963 16.5082C56.4289 16.6124 56.2349 16.6658 56.0377 16.6619C55.7311 16.6642 55.4357 16.5468 55.2142 16.3347C54.9927 16.1225 54.8627 15.8324 54.8518 15.5259V15.4469C54.8521 15.2642 54.9046 15.0853 55.0031 14.9314C55.1016 14.7774 55.242 14.6548 55.4078 14.5779C55.9899 14.2947 56.5864 14.042 57.1948 13.8209C57.8058 13.6056 58.4309 13.4328 59.0658 13.3039C59.6913 13.1782 60.3278 13.1152 60.9658 13.1159C61.7623 13.0824 62.5558 13.233 63.2848 13.5559C63.8615 13.8427 64.3231 14.318 64.5928 14.9029C64.9279 15.7742 65.0728 16.707 65.0178 17.6389L64.9948 22.4969C64.9914 23.1856 64.9941 23.6719 65.0028 23.9559C65.0091 24.2208 65.0372 24.4847 65.0868 24.7449C65.1201 24.9502 65.1936 25.1469 65.3028 25.3239C65.4133 25.4805 65.5606 25.6076 65.7318 25.6939C65.9258 25.7906 66.1287 25.8683 66.3377 25.9259C66.4273 25.9512 66.5065 26.0044 66.5637 26.0778C66.6209 26.1512 66.6531 26.2409 66.6557 26.3339C66.655 26.3833 66.6443 26.4321 66.6245 26.4773C66.6046 26.5226 66.576 26.5634 66.5401 26.5974C66.5043 26.6314 66.4619 26.6579 66.4156 26.6753C66.3694 26.6928 66.3201 26.7008 66.2707 26.6989H64.7548C64.4906 26.7013 64.2286 26.6513 63.9838 26.5519C63.7391 26.4524 63.5165 26.3055 63.3289 26.1195C63.1413 25.9336 62.9923 25.7123 62.8907 25.4685C62.7891 25.2246 62.7368 24.9631 62.7368 24.6989L62.7448 24.7019ZM62.5167 20.3329C60.9994 20.2666 59.4853 20.5236 58.0748 21.0869C57.6354 21.2604 57.2586 21.5624 56.9937 21.9535C56.7287 22.3446 56.5879 22.8065 56.5897 23.2789C56.5632 23.722 56.6788 24.1621 56.9198 24.5349C57.1268 24.8305 57.4223 25.0528 57.7638 25.1699C58.1551 25.2942 58.5642 25.3533 58.9748 25.3449C59.6064 25.3523 60.229 25.1933 60.7797 24.8839C61.2925 24.6033 61.7281 24.2003 62.0478 23.7109C62.3329 23.2947 62.4923 22.8052 62.5068 22.3009L62.5167 20.3329Z" fill="#9689A8"/>
<path d="M71.3727 26.4331C71.4028 27.4926 71.2548 28.5497 70.9347 29.5601C70.6422 30.3504 70.1297 31.0406 69.4577 31.5491C68.7771 32.0494 68.0172 32.4314 67.2097 32.6791C67.0287 32.7345 66.8335 32.7204 66.6623 32.6396C66.491 32.5588 66.356 32.4171 66.2837 32.2421C66.2517 32.1673 66.2348 32.0869 66.234 32.0055C66.2333 31.9241 66.2485 31.8434 66.2791 31.768C66.3097 31.6926 66.355 31.624 66.4123 31.5662C66.4695 31.5084 66.5376 31.4625 66.6127 31.4311C66.8957 31.3152 67.1691 31.1775 67.4307 31.0191C67.731 30.8335 67.9964 30.5966 68.2148 30.3191C68.4447 29.9998 68.6054 29.6361 68.6867 29.2511C68.808 28.6871 68.8648 28.111 68.8557 27.5341L68.9047 17.1621C68.908 16.4361 68.896 15.9148 68.8687 15.5981C68.856 15.3394 68.7928 15.0856 68.6826 14.8511C68.5793 14.6629 68.4224 14.5098 68.2317 14.4111C67.9969 14.2995 67.7489 14.2179 67.4937 14.1681C67.3921 14.1467 67.3006 14.0918 67.2339 14.0122C67.1672 13.9326 67.129 13.8329 67.1256 13.7291V13.7221C67.1272 13.6196 67.169 13.5219 67.242 13.4498C67.3149 13.3778 67.4132 13.3374 67.5157 13.3371L70.5447 13.2261C70.774 13.2241 70.995 13.3118 71.1607 13.4704C71.3263 13.6289 71.4236 13.8459 71.4317 14.0751L71.3727 26.4331Z" fill="#9689A8"/>
<path d="M78.2777 15.4742L78.4777 15.5302C78.9358 15.0834 79.4179 14.6618 79.9218 14.2672C80.2629 14.0052 80.6282 13.7761 81.0127 13.5832C81.3274 13.4246 81.6584 13.3005 81.9998 13.2132C82.3082 13.1384 82.6244 13.1008 82.9418 13.1012C83.7815 13.0637 84.6121 13.2881 85.3187 13.7432C85.9647 14.2238 86.413 14.9235 86.5797 15.7112C87.1406 15.1537 87.7354 14.6314 88.3607 14.1472C88.7873 13.8273 89.2552 13.5666 89.7517 13.3722C90.2396 13.1881 90.7573 13.0958 91.2787 13.1002C91.8523 13.0869 92.4235 13.1791 92.9637 13.3722C93.4254 13.5471 93.8356 13.8353 94.1567 14.2102C94.4987 14.6219 94.7413 15.1067 94.8657 15.6272C95.0324 16.3783 95.1046 17.1472 95.0807 17.9162L95.0557 23.1792C95.0405 23.6688 95.0626 24.1589 95.1217 24.6452C95.1521 24.8656 95.223 25.0785 95.3307 25.2732C95.4346 25.4336 95.577 25.5656 95.7448 25.6572C95.939 25.7595 96.1438 25.8399 96.3557 25.8972C96.4456 25.9221 96.5252 25.9752 96.5828 26.0486C96.6403 26.122 96.6729 26.212 96.6757 26.3052C96.675 26.3546 96.6645 26.4033 96.6448 26.4486C96.625 26.4938 96.5965 26.5346 96.5607 26.5686C96.5249 26.6027 96.4826 26.6292 96.4364 26.6466C96.3902 26.6641 96.3411 26.6721 96.2917 26.6702H91.3777C91.2641 26.6711 91.1546 26.6275 91.0726 26.5489C90.9906 26.4703 90.9426 26.3627 90.9387 26.2492C90.939 26.1729 90.9637 26.0988 91.0093 26.0376C91.0548 25.9764 91.1188 25.9314 91.1918 25.9092C91.3858 25.8513 91.5753 25.7791 91.7587 25.6932C91.923 25.6106 92.0662 25.4912 92.1768 25.3442C92.3134 25.1353 92.404 24.8998 92.4427 24.6532C92.5193 24.1849 92.5528 23.7106 92.5427 23.2362L92.5597 19.5792C92.5637 18.7879 92.545 18.1342 92.5037 17.6182C92.4782 17.2009 92.4113 16.7872 92.3037 16.3832C92.2352 16.1241 92.1229 15.8785 91.9717 15.6572C91.8451 15.4846 91.6962 15.3295 91.5287 15.1962C91.3537 15.0607 91.1564 14.9568 90.9457 14.8892C90.6567 14.8058 90.3564 14.768 90.0557 14.7772C89.681 14.774 89.3099 14.85 88.9667 15.0002C88.5635 15.1936 88.1925 15.4479 87.8667 15.7542C87.5151 16.0523 87.2235 16.4148 87.0077 16.8222C86.8228 17.2172 86.7308 17.6492 86.7388 18.0852L86.7147 23.1852C86.6997 23.6748 86.7218 24.1649 86.7808 24.6512C86.8112 24.8716 86.882 25.0845 86.9897 25.2792C87.0936 25.4397 87.2359 25.5717 87.4037 25.6632C87.5979 25.7655 87.8029 25.846 88.0148 25.9032C88.1047 25.9281 88.1842 25.9812 88.2418 26.0546C88.2994 26.128 88.3319 26.2179 88.3347 26.3112C88.3341 26.3606 88.3236 26.4093 88.3038 26.4546C88.2841 26.4998 88.2554 26.5406 88.2196 26.5747C88.1838 26.6087 88.1416 26.6352 88.0955 26.6526C88.0493 26.6701 88 26.6781 87.9507 26.6762H83.0367C82.9231 26.6771 82.8137 26.6335 82.7317 26.5549C82.6497 26.4763 82.6016 26.3687 82.5977 26.2552C82.598 26.1789 82.6228 26.1048 82.6683 26.0436C82.7139 25.9824 82.7778 25.9374 82.8507 25.9152C83.0448 25.8573 83.2343 25.7851 83.4177 25.6992C83.582 25.6164 83.7249 25.497 83.8357 25.3502C83.9724 25.1413 84.063 24.9058 84.1017 24.6592C84.178 24.1909 84.2115 23.7166 84.2017 23.2422L84.2188 19.5852C84.2227 18.7565 84.2013 18.0819 84.1547 17.5612C84.1259 17.1359 84.0522 16.7149 83.9347 16.3052C83.8539 16.027 83.7216 15.7665 83.5447 15.5372C83.4079 15.3626 83.2434 15.2115 83.0577 15.0902C82.8775 14.9818 82.6805 14.9041 82.4747 14.8602C82.2254 14.8063 81.9708 14.7805 81.7157 14.7832C81.3258 14.7811 80.9407 14.8694 80.5907 15.0412C80.1997 15.2406 79.8374 15.4919 79.5137 15.7882C79.1782 16.0754 78.8971 16.4205 78.6837 16.8072C78.4972 17.16 78.4 17.5531 78.4008 17.9522L78.3757 23.1872C78.3757 23.7205 78.3884 24.1252 78.4137 24.4012C78.4297 24.6249 78.4754 24.8455 78.5497 25.0572C78.6023 25.2002 78.6836 25.3309 78.7887 25.4412C78.9108 25.5563 79.0511 25.6505 79.2037 25.7202C79.362 25.794 79.5258 25.8552 79.6937 25.9032C79.7832 25.9286 79.8623 25.9819 79.9194 26.0552C79.9766 26.1286 80.0089 26.2182 80.0117 26.3112C80.011 26.3606 80.0003 26.4094 79.9805 26.4546C79.9606 26.4999 79.9319 26.5407 79.896 26.5747C79.8601 26.6087 79.8179 26.6352 79.7716 26.6526C79.7254 26.6701 79.6761 26.6781 79.6267 26.6762H74.7267C74.6127 26.6771 74.503 26.6335 74.4207 26.5547C74.3383 26.4759 74.2899 26.3681 74.2858 26.2542C74.2861 26.1782 74.3106 26.1043 74.3557 26.0432C74.4008 25.9821 74.4642 25.9369 74.5367 25.9142C74.7242 25.8564 74.9071 25.7846 75.0837 25.6992C75.2464 25.6141 75.3889 25.4951 75.5017 25.3502C75.6417 25.1456 75.7327 24.9116 75.7677 24.6662C75.8396 24.1904 75.8711 23.7093 75.8617 23.2282L75.8907 17.1422C75.8907 16.5469 75.8833 16.0675 75.8687 15.7042C75.8654 15.4025 75.7972 15.1051 75.6687 14.8322C75.5529 14.6132 75.3655 14.4406 75.1377 14.3432C74.9318 14.2558 74.7177 14.1888 74.4987 14.1432C74.3961 14.1222 74.3037 14.0672 74.2362 13.9872C74.1687 13.9072 74.1302 13.8068 74.1267 13.7022C74.128 13.5994 74.1699 13.5012 74.243 13.4289C74.3162 13.3567 74.4149 13.3162 74.5177 13.3162L77.5457 13.2052C77.6559 13.2041 77.7654 13.2252 77.8673 13.2674C77.9692 13.3096 78.0614 13.3719 78.1387 13.4506C78.2159 13.5293 78.2764 13.6228 78.3167 13.7255C78.3569 13.8282 78.3759 13.938 78.3727 14.0482L78.2777 15.4742Z" fill="#9689A8"/>
<path d="M106.127 24.6741L105.908 24.6181C105.211 25.3342 104.4 25.9288 103.508 26.3771C102.763 26.7212 101.953 26.8977 101.133 26.8941C100.458 26.908 99.7899 26.767 99.1787 26.4821C98.6425 26.2318 98.1922 25.8286 97.8846 25.3231C97.579 24.801 97.4253 24.2039 97.4406 23.5991C97.4492 22.9244 97.6548 22.267 98.0322 21.7076C98.4096 21.1483 98.9422 20.7116 99.5646 20.4511C101.563 19.5817 103.721 19.1419 105.9 19.1601V18.2531C105.93 17.4799 105.835 16.707 105.619 15.9641C105.468 15.4599 105.144 15.0248 104.705 14.7351C104.193 14.4511 103.612 14.3157 103.028 14.3441C102.368 14.3123 101.718 14.5149 101.193 14.9161C100.833 15.224 100.549 15.6107 100.363 16.0461C100.279 16.2247 100.145 16.3752 99.9781 16.4794C99.8107 16.5836 99.6167 16.6369 99.4196 16.6331C99.113 16.6354 98.8175 16.5179 98.596 16.3058C98.3745 16.0937 98.2445 15.8036 98.2336 15.4971V15.4181C98.2342 15.2352 98.2869 15.0564 98.3856 14.9025C98.4842 14.7485 98.6247 14.6259 98.7906 14.5491C99.3727 14.2659 99.9692 14.0132 100.578 13.7921C101.189 13.5768 101.814 13.404 102.449 13.2751C103.074 13.1494 103.711 13.0864 104.349 13.0871C105.145 13.0537 105.939 13.2042 106.668 13.5271C107.244 13.8141 107.705 14.2893 107.975 14.8741C108.31 15.7453 108.455 16.6782 108.4 17.6101L108.377 22.4681C108.373 23.1567 108.376 23.6431 108.385 23.9271C108.391 24.1919 108.419 24.4558 108.469 24.7161C108.502 24.9213 108.575 25.1181 108.685 25.2951C108.795 25.4516 108.943 25.5786 109.114 25.6651C109.308 25.7617 109.511 25.8394 109.72 25.8971C109.809 25.9224 109.888 25.9756 109.946 26.049C110.003 26.1224 110.035 26.2121 110.038 26.3051C110.037 26.3545 110.026 26.4033 110.006 26.4485C109.987 26.4938 109.958 26.5346 109.922 26.5686C109.886 26.6026 109.844 26.6291 109.798 26.6465C109.751 26.6639 109.702 26.6719 109.653 26.6701H108.137C107.872 26.6726 107.61 26.6227 107.365 26.5233C107.121 26.4239 106.898 26.277 106.71 26.0911C106.522 25.9051 106.373 25.6837 106.272 25.4399C106.17 25.196 106.118 24.9343 106.118 24.6701L106.127 24.6741ZM105.899 20.3051C104.381 20.2388 102.867 20.4958 101.457 21.0591C101.017 21.2326 100.641 21.5346 100.376 21.9257C100.111 22.3168 99.9698 22.7787 99.9716 23.2511C99.9451 23.6942 100.061 24.1342 100.302 24.5071C100.509 24.8027 100.804 25.025 101.146 25.1421C101.537 25.2664 101.946 25.3255 102.357 25.3171C102.988 25.3244 103.611 25.1655 104.162 24.8561C104.674 24.5754 105.11 24.1725 105.43 23.6831C105.715 23.2669 105.874 22.7774 105.889 22.2731L105.899 20.3051Z" fill="#9689A8"/>
<path d="M115.532 15.6371L115.732 15.6791C116.183 15.1409 116.685 14.6476 117.232 14.2061C117.68 13.8532 118.182 13.5728 118.718 13.3751C119.296 13.1722 119.905 13.073 120.518 13.0821H120.535C120.925 13.0793 121.301 13.2287 121.583 13.4987C121.865 13.7687 122.031 14.138 122.045 14.5281V15.4851C122.044 15.6059 122.018 15.7252 121.97 15.836C121.922 15.9468 121.852 16.0467 121.764 16.1298C121.677 16.213 121.573 16.2776 121.46 16.3199C121.347 16.3623 121.226 16.3814 121.106 16.3761H121.053C120.862 16.3739 120.676 16.3235 120.51 16.2296C120.345 16.1356 120.205 16.0013 120.106 15.8391C119.982 15.6313 119.829 15.4429 119.651 15.2801C119.346 15.0375 118.962 14.9158 118.573 14.9381C118.205 14.9429 117.845 15.0439 117.528 15.2311C117.148 15.4561 116.81 15.7442 116.528 16.0831C116.246 16.3906 116.019 16.7449 115.859 17.1301C115.728 17.5022 115.664 17.8947 115.671 18.2891L115.648 23.1751C115.617 23.7634 115.669 24.353 115.801 24.9271C115.885 25.2176 116.074 25.4668 116.331 25.6271C116.575 25.761 116.838 25.8564 117.111 25.9101C117.203 25.9298 117.286 25.98 117.346 26.0525C117.407 26.125 117.441 26.2158 117.444 26.3101C117.443 26.3576 117.433 26.4045 117.414 26.448C117.395 26.4914 117.367 26.5307 117.332 26.5634C117.298 26.5961 117.257 26.6215 117.213 26.6383C117.169 26.6551 117.121 26.6629 117.074 26.6611H112.001C111.887 26.662 111.777 26.6184 111.694 26.5396C111.612 26.4608 111.564 26.353 111.56 26.2391C111.56 26.1631 111.585 26.0892 111.63 26.0281C111.675 25.967 111.738 25.9218 111.811 25.8991C111.998 25.8414 112.181 25.7695 112.358 25.6841C112.521 25.5991 112.663 25.4801 112.776 25.3351C112.916 25.1306 113.007 24.8965 113.042 24.6511C113.114 24.1753 113.145 23.6942 113.136 23.2131L113.165 17.1271C113.165 16.5318 113.157 16.0524 113.143 15.6891C113.14 15.3874 113.072 15.09 112.943 14.8171C112.827 14.5983 112.64 14.4257 112.413 14.3281C112.204 14.2404 111.988 14.1734 111.767 14.1281C111.666 14.1077 111.575 14.0538 111.508 13.9752C111.442 13.8967 111.404 13.798 111.401 13.6951C111.402 13.5944 111.443 13.4982 111.514 13.4272C111.585 13.3561 111.682 13.3159 111.783 13.3151L114.819 13.1911C114.929 13.19 115.039 13.2112 115.141 13.2533C115.243 13.2954 115.335 13.3577 115.413 13.4363C115.491 13.515 115.552 13.6084 115.592 13.7111C115.633 13.8139 115.652 13.9237 115.65 14.0341L115.532 15.6371Z" fill="#9689A8"/>
<path d="M126.951 18.8948H127.418C127.684 18.9013 127.95 18.8675 128.207 18.7948C128.491 18.6886 128.76 18.5454 129.007 18.3688C129.441 18.0553 129.857 17.7174 130.253 17.3568C130.617 17.0425 130.957 16.702 131.272 16.3378C131.471 16.1088 131.632 15.8495 131.75 15.5698C131.827 15.3839 131.868 15.185 131.87 14.9838C131.877 14.8615 131.857 14.7391 131.811 14.6256C131.764 14.5121 131.693 14.4104 131.603 14.3278C131.443 14.1997 131.254 14.1113 131.054 14.0698C130.962 14.0494 130.88 13.999 130.82 13.9266C130.76 13.8541 130.726 13.7638 130.723 13.6698C130.723 13.6224 130.733 13.5756 130.752 13.5322C130.771 13.4887 130.799 13.4496 130.833 13.417C130.868 13.3843 130.909 13.3589 130.953 13.3422C130.997 13.3255 131.044 13.3179 131.092 13.3198H136.592C136.702 13.3189 136.809 13.3612 136.888 13.4376C136.968 13.514 137.015 13.6184 137.019 13.7288C137.018 13.8065 136.991 13.8817 136.943 13.9425C136.895 14.0033 136.827 14.0464 136.752 14.0648C136.342 14.183 135.949 14.3548 135.584 14.5758C135.023 14.9132 134.498 15.3062 134.017 15.7488L130.645 18.7918L134.825 24.0408C135.204 24.5483 135.646 25.0056 136.14 25.4018C136.436 25.6242 136.769 25.7934 137.124 25.9018C137.208 25.9255 137.282 25.9752 137.336 26.0439C137.39 26.1125 137.421 26.1965 137.424 26.2838V26.3218C137.423 26.3678 137.413 26.4133 137.395 26.4554C137.376 26.4976 137.349 26.5356 137.316 26.5673C137.282 26.5989 137.243 26.6236 137.2 26.6398C137.157 26.6561 137.111 26.6635 137.065 26.6618H132.234C132.126 26.6626 132.022 26.6212 131.944 26.5465C131.867 26.4718 131.821 26.3696 131.818 26.2618C131.819 26.1837 131.847 26.1083 131.896 26.0481C131.946 25.9879 132.015 25.9465 132.092 25.9308C132.194 25.9088 132.293 25.87 132.383 25.8158C132.446 25.7711 132.496 25.7106 132.528 25.6404C132.561 25.5702 132.574 25.4927 132.567 25.4158C132.568 25.2747 132.541 25.1349 132.489 25.0038C132.401 24.8087 132.292 24.6239 132.163 24.4528C131.998 24.2201 131.698 23.8151 131.263 23.2378L129.537 21.0038C129.321 20.7145 129.087 20.4393 128.837 20.1798C128.709 20.0578 128.558 19.9629 128.393 19.9008C128.19 19.8381 127.978 19.8097 127.766 19.8168H126.948L126.932 23.1668C126.91 23.7251 126.946 24.2841 127.041 24.8348C127.099 25.1171 127.255 25.3696 127.483 25.5468C127.714 25.7014 127.969 25.8163 128.238 25.8868C128.326 25.9121 128.405 25.965 128.461 26.0379C128.518 26.1107 128.549 26.1996 128.552 26.2918C128.551 26.341 128.541 26.3896 128.521 26.4348C128.501 26.4799 128.473 26.5206 128.437 26.5545C128.401 26.5885 128.359 26.6149 128.313 26.6323C128.267 26.6497 128.218 26.6577 128.169 26.6558H123.19C123.078 26.6566 122.97 26.6139 122.89 26.5365C122.809 26.4592 122.762 26.3535 122.758 26.2418C122.758 26.1639 122.785 26.0883 122.833 26.0268C122.88 25.9653 122.947 25.9214 123.023 25.9018C123.287 25.8376 123.541 25.7341 123.775 25.5948C123.952 25.4794 124.094 25.3175 124.186 25.1268C124.283 24.8907 124.343 24.6412 124.365 24.3868C124.404 23.981 124.423 23.5735 124.421 23.1658L124.461 14.6658C124.465 13.7725 124.46 13.1488 124.448 12.7948C124.441 12.4918 124.404 12.1902 124.336 11.8948C124.291 11.6857 124.202 11.4884 124.076 11.3158C123.955 11.1691 123.8 11.0541 123.625 10.9808C123.412 10.8982 123.192 10.837 122.968 10.7978C122.866 10.7785 122.774 10.7252 122.707 10.6466C122.64 10.5681 122.602 10.469 122.599 10.3658C122.6 10.2657 122.641 10.1701 122.712 10.0996C122.783 10.0291 122.879 9.98931 122.979 9.98879L126.119 9.86379C126.344 9.86209 126.562 9.94836 126.724 10.1043C126.887 10.2602 126.983 10.4735 126.991 10.6988L126.951 18.8948Z" fill="#9689A8"/>
<path d="M148.695 23.8602C148.752 23.9135 148.797 23.9777 148.829 24.0491C148.861 24.1205 148.878 24.1976 148.879 24.2756C148.88 24.3537 148.865 24.4312 148.836 24.5034C148.806 24.5757 148.762 24.6412 148.707 24.6962C148.299 25.0845 147.862 25.4409 147.399 25.7622C146.285 26.518 144.966 26.9128 143.62 26.8932C142.784 26.9544 141.946 26.8317 141.163 26.5339C140.38 26.236 139.671 25.7702 139.088 25.1692C137.975 23.7173 137.437 21.9052 137.579 20.0812C137.56 18.8123 137.833 17.556 138.379 16.4102C138.868 15.3893 139.646 14.5349 140.617 13.9532C141.503 13.4669 142.484 13.1777 143.492 13.1054C144.5 13.0331 145.512 13.1793 146.459 13.5342C147.102 13.7976 147.67 14.2173 148.11 14.7552C148.553 15.3373 148.878 16.0013 149.064 16.7092C149.317 17.7154 149.442 18.7496 149.437 19.7872H140.237V20.0382C140.209 20.9761 140.335 21.9122 140.611 22.8092C140.834 23.5146 141.275 24.1307 141.872 24.5682C142.551 25.019 143.357 25.2414 144.172 25.2032C144.912 25.2146 145.647 25.0695 146.327 24.7772C146.866 24.5278 147.364 24.198 147.804 23.7992C147.933 23.6941 148.097 23.6419 148.263 23.653C148.429 23.6642 148.585 23.7378 148.699 23.8592L148.695 23.8602ZM146.695 18.6292C146.669 17.7952 146.54 16.9677 146.312 16.1652C146.155 15.5986 145.838 15.0894 145.399 14.6992C144.944 14.3436 144.376 14.1626 143.799 14.1892C143.335 14.1744 142.874 14.2714 142.455 14.4719C142.036 14.6723 141.671 14.9705 141.392 15.3412C140.721 16.3088 140.347 17.4518 140.318 18.6292H146.695Z" fill="#9689A8"/>
<path d="M150.47 14.317C150.471 14.2337 150.5 14.1534 150.554 14.0897C150.608 14.0261 150.682 13.983 150.764 13.968C151.078 13.9062 151.379 13.7923 151.656 13.631C151.949 13.4539 152.193 13.2068 152.367 12.912C152.558 12.5681 152.695 12.1972 152.774 11.812C152.84 11.526 152.907 11.1556 152.974 10.701C153.013 10.4655 153.137 10.2524 153.322 10.1012C153.507 9.95003 153.74 9.87105 153.979 9.87896C154.283 9.87668 154.577 9.99325 154.797 10.2039C155.017 10.4145 155.146 10.7026 155.157 11.007L155.146 13.327H157.953C158.158 13.3253 158.356 13.4038 158.504 13.5457C158.652 13.6877 158.739 13.8819 158.746 14.087C158.744 14.1749 158.726 14.2618 158.69 14.3424C158.655 14.4229 158.604 14.4956 158.54 14.5562C158.476 14.6168 158.401 14.6639 158.319 14.695C158.236 14.726 158.149 14.7403 158.061 14.737H155.139L155.11 20.949C155.096 21.6695 155.131 22.3902 155.216 23.106C155.259 23.5527 155.408 23.9829 155.648 24.362C155.83 24.6375 156.081 24.8611 156.375 25.011C156.706 25.1547 157.065 25.223 157.426 25.211C157.805 25.2141 158.18 25.1356 158.526 24.981C158.752 24.878 158.967 24.753 159.169 24.608C159.279 24.535 159.411 24.5049 159.542 24.5233C159.672 24.5418 159.792 24.6075 159.877 24.708C159.919 24.7527 159.953 24.8054 159.974 24.8631C159.996 24.9208 160.007 24.9823 160.004 25.044C160.002 25.1057 159.987 25.1663 159.961 25.2223C159.935 25.2783 159.898 25.3285 159.853 25.37C159.36 25.8086 158.811 26.1786 158.22 26.47C157.619 26.7545 156.963 26.9024 156.298 26.903C155.781 26.9445 155.261 26.8702 154.777 26.6854C154.293 26.5006 153.856 26.2101 153.498 25.835C152.811 24.8623 152.493 23.6777 152.598 22.492L152.634 14.744H150.911C150.798 14.7448 150.69 14.7017 150.608 14.6239C150.527 14.546 150.479 14.4395 150.475 14.327L150.47 14.317Z" fill="#9689A8"/>
<path d="M71.4122 9.99591C71.4637 9.13201 70.6488 8.38063 69.5919 8.31764C68.535 8.25465 67.6365 8.90392 67.585 9.76781C67.5335 10.6317 68.3484 11.3831 69.4053 11.4461C70.4622 11.5091 71.3607 10.8598 71.4122 9.99591Z" fill="#9689A8"/>
</svg>
