<svg width="115" height="40" viewBox="0 0 115 40" fill="none" xmlns="http://www.w3.org/2000/svg">
<path fill-rule="evenodd" clip-rule="evenodd" d="M36.8503 20.2064C35.0352 20.1222 33.2232 20.4313 31.5387 21.1124C31.0134 21.3171 30.5628 21.6767 30.2465 22.1434C29.9303 22.61 29.7635 23.1618 29.7681 23.7254C29.7336 24.2557 29.8742 24.7827 30.1683 25.2254C30.4249 25.5708 30.7762 25.8345 31.1796 25.9844C31.6484 26.1389 32.1406 26.2103 32.634 26.1954C33.3859 26.2016 34.1266 26.0128 34.7837 25.6474C35.3966 25.316 35.9179 24.8381 36.3012 24.2564C36.6397 23.7575 36.8298 23.1729 36.8493 22.5704V20.2064H36.8503ZM37.1244 25.4314L36.8713 25.3684C36.041 26.2264 35.0722 26.9387 34.0055 27.4754C33.1153 27.8908 32.1428 28.0997 31.1606 28.0864C30.3544 28.0995 29.5553 27.9339 28.8209 27.6014C28.1803 27.3022 27.6443 26.8176 27.2824 26.2104C26.9189 25.5841 26.7364 24.8692 26.7552 24.1454C26.7624 23.3413 27.006 22.5571 27.4556 21.8903C27.9053 21.2235 28.5411 20.7037 29.284 20.3954C31.6712 19.3609 34.2485 18.837 36.8503 18.8574V17.7794C36.8844 16.8543 36.7706 15.9296 36.5132 15.0404C36.3328 14.434 35.9428 13.9112 35.4129 13.5654C34.803 13.2255 34.1095 13.0646 33.4123 13.1014C32.6257 13.0657 31.8511 13.3039 31.2206 13.7754C30.7915 14.1429 30.4527 14.6041 30.2303 15.1234C30.1308 15.3349 29.9725 15.5133 29.7744 15.6374C29.5763 15.7615 29.3467 15.8261 29.1129 15.8234C28.7493 15.8233 28.3997 15.6832 28.1367 15.4321C27.8737 15.1811 27.7175 14.8385 27.7005 14.4754V14.3914C27.7001 14.1724 27.7637 13.9581 27.8835 13.7748C28.0033 13.5914 28.174 13.4471 28.3747 13.3594C29.0672 13.0188 29.7778 12.7163 30.5034 12.4534C31.2337 12.2009 31.9799 11.9968 32.7371 11.8424C33.4864 11.6901 34.2491 11.6124 35.0138 11.6104C35.9627 11.5658 36.9088 11.7464 37.7746 12.1374C38.4607 12.4787 39.0105 13.0429 39.3341 13.7374C39.7267 14.7794 39.899 15.8914 39.8402 17.0034L39.8192 22.7974V24.5464C39.8205 24.8652 39.8558 25.183 39.9243 25.4944C39.9682 25.7404 40.0538 25.9771 40.1773 26.1944C40.3105 26.3781 40.4835 26.5292 40.6835 26.6364C40.912 26.7525 41.152 26.8443 41.3997 26.9104C41.5069 26.9393 41.6018 27.0023 41.6701 27.0897C41.7385 27.1772 41.7766 27.2844 41.7788 27.3954C41.7778 27.455 41.7649 27.5138 41.741 27.5684C41.717 27.623 41.6824 27.6723 41.6392 27.7134C41.596 27.7546 41.5451 27.7867 41.4894 27.808C41.4337 27.8292 41.3743 27.8392 41.3147 27.8374H39.5021C38.8696 27.8254 38.2669 27.5668 37.8225 27.1167C37.3781 26.6666 37.1272 26.0608 37.1234 25.4284L37.1244 25.4314Z" fill="#9689A8"/>
<path fill-rule="evenodd" clip-rule="evenodd" d="M54.5202 14.4143L54.7733 14.4773C55.3199 13.9389 55.8971 13.4324 56.5018 12.9603C56.9108 12.6463 57.3481 12.3711 57.8082 12.1383C58.1834 11.9462 58.5795 11.7979 58.9886 11.6963C60.3418 11.4008 61.7567 11.6265 62.9508 12.3283C63.7288 12.8995 64.2642 13.7416 64.4513 14.6883C65.1234 14.022 65.8342 13.3959 66.5799 12.8133C67.0896 12.4288 67.6501 12.1169 68.2454 11.8863C68.8329 11.6724 69.4538 11.5654 70.079 11.5703C70.7595 11.5537 71.4373 11.6607 72.0796 11.8863C72.6316 12.0934 73.124 12.4334 73.513 12.8763C73.9213 13.3652 74.21 13.9424 74.3563 14.5623C74.5479 15.4622 74.6328 16.3815 74.6094 17.3013L74.5804 23.5803C74.5618 24.1646 74.5899 24.7494 74.6644 25.3293C74.7099 25.5936 74.7952 25.8495 74.9175 26.0883C75.0412 26.2783 75.2072 26.4371 75.4026 26.5523C75.6401 26.6709 75.887 26.7696 76.1408 26.8473C76.248 26.8762 76.3429 26.9392 76.4112 27.0266C76.4796 27.1141 76.5178 27.2213 76.52 27.3323C76.5189 27.3919 76.5061 27.4507 76.4821 27.5053C76.4581 27.5599 76.4236 27.6092 76.3804 27.6503C76.3372 27.6914 76.2863 27.7236 76.2305 27.7449C76.1748 27.7661 76.1154 27.7761 76.0558 27.7743H70.197C70.0611 27.7734 69.9306 27.7204 69.8326 27.6263C69.7345 27.5322 69.6763 27.404 69.6699 27.2683C69.6686 27.1785 69.6968 27.0909 69.7501 27.0186C69.8034 26.9464 69.8788 26.8936 69.965 26.8683C70.26 26.7633 70.4921 26.6783 70.6391 26.6153C70.8354 26.5117 71.0078 26.3683 71.1453 26.1943C71.3046 25.9442 71.4121 25.6647 71.4614 25.3723C71.561 24.8161 71.6032 24.2511 71.5875 23.6863L71.6085 19.3253C71.6085 18.3773 71.5874 17.5976 71.5454 16.9863C71.5193 16.4879 71.4415 15.9936 71.3134 15.5113C71.2358 15.2006 71.1 14.9074 70.9132 14.6473C70.7652 14.4399 70.5876 14.2552 70.3861 14.0993C70.1765 13.9382 69.9392 13.8169 69.6859 13.7413C69.3426 13.6473 68.9873 13.6049 68.6315 13.6153C68.1811 13.6083 67.7348 13.7019 67.3251 13.8893C66.8433 14.1182 66.402 14.4242 66.0187 14.7953C65.5955 15.1536 65.2451 15.5898 64.9864 16.0803C64.7643 16.5544 64.656 17.0739 64.6703 17.5973L64.6493 23.6863C64.6307 24.2706 64.6588 24.8554 64.7333 25.4353C64.7789 25.6996 64.8642 25.9555 64.9864 26.1943C65.1101 26.3843 65.2762 26.5432 65.4716 26.6583C65.7087 26.7769 65.9553 26.8756 66.2088 26.9533C66.316 26.9822 66.4109 27.0452 66.4792 27.1326C66.5476 27.2201 66.5857 27.3273 66.5879 27.4383C66.5869 27.4979 66.574 27.5567 66.55 27.6113C66.5261 27.6659 66.4915 27.7152 66.4483 27.7563C66.4051 27.7975 66.3542 27.8296 66.2985 27.8509C66.2428 27.8721 66.1834 27.8821 66.1238 27.8803H60.276C60.14 27.8794 60.0096 27.8265 59.9115 27.7323C59.8135 27.6382 59.7552 27.51 59.7488 27.3743C59.7476 27.2845 59.7758 27.1969 59.829 27.1246C59.8823 27.0524 59.9578 26.9996 60.0439 26.9743C60.339 26.8693 60.5711 26.7843 60.7181 26.7213C60.9143 26.6178 61.0868 26.4744 61.2243 26.3003C61.3836 26.0502 61.4911 25.7707 61.5404 25.4783C61.6399 24.9221 61.6822 24.3571 61.6664 23.7923L61.6874 19.4313C61.6874 18.4413 61.6664 17.6403 61.6034 17.0083C61.5613 16.5021 61.4766 16.0003 61.3503 15.5083C61.2474 15.1759 61.0906 14.8628 60.8862 14.5813C60.7278 14.3669 60.5269 14.1875 60.296 14.0543C60.0811 13.9213 59.8439 13.8285 59.5958 13.7803C59.2978 13.718 58.9938 13.6899 58.6895 13.6963C58.2213 13.6933 57.7591 13.8016 57.3411 14.0123C56.8781 14.2538 56.4465 14.551 56.0557 14.8973C55.6543 15.2413 55.3187 15.6553 55.0654 16.1193C54.8381 16.5398 54.7221 17.0114 54.7283 17.4893L54.7073 23.7473C54.7073 24.3793 54.7283 24.8643 54.7493 25.2013C54.7694 25.4678 54.8263 25.7303 54.9183 25.9813C54.9864 26.1532 55.0865 26.3107 55.2134 26.4453C55.3554 26.5933 55.5282 26.7084 55.7196 26.7823C55.9099 26.8694 56.1074 26.94 56.3098 26.9933C56.4169 27.0222 56.5118 27.0852 56.5802 27.1726C56.6485 27.2601 56.6867 27.3673 56.6889 27.4783C56.6879 27.5379 56.675 27.5967 56.651 27.6513C56.6271 27.7059 56.5925 27.7552 56.5493 27.7963C56.5061 27.8375 56.4552 27.8696 56.3995 27.8909C56.3437 27.9121 56.2844 27.9221 56.2247 27.9203H50.373C50.236 27.923 50.1035 27.8712 50.0046 27.7763C49.9058 27.6814 49.8487 27.5512 49.8458 27.4143C49.8476 27.3253 49.877 27.2391 49.9298 27.1675C49.9827 27.0959 50.0564 27.0423 50.1409 27.0143C50.436 26.9093 50.647 26.8243 50.7941 26.7613C50.9903 26.6578 51.1627 26.5144 51.3002 26.3403C51.4772 26.0995 51.5864 25.8156 51.6163 25.5183C51.6965 24.9529 51.7316 24.3822 51.7214 23.8113L51.7634 16.5423C51.7634 15.8263 51.7634 15.2573 51.7424 14.8353C51.7371 14.4789 51.6581 14.1276 51.5103 13.8033C51.3656 13.546 51.1448 13.3399 50.8781 13.2133C50.6346 13.1086 50.3803 13.0308 50.1199 12.9813C49.998 12.9553 49.8882 12.8893 49.8081 12.7938C49.728 12.6983 49.6821 12.5788 49.6777 12.4543C49.6822 12.3326 49.7325 12.2172 49.8186 12.1311C49.9047 12.0451 50.0202 11.9947 50.1419 11.9903L53.767 11.8643C53.8992 11.8629 54.0304 11.8882 54.1525 11.9388C54.2747 11.9894 54.3854 12.0641 54.4779 12.1586C54.5704 12.253 54.6429 12.3652 54.6909 12.4884C54.7389 12.6115 54.7615 12.7431 54.7573 12.8753L54.5202 14.4143Z" fill="#9689A8"/>
<path fill-rule="evenodd" clip-rule="evenodd" d="M87.5699 20.1843C85.7548 20.1002 83.9429 20.4093 82.2583 21.0903C81.733 21.2951 81.2824 21.6547 80.9662 22.1213C80.65 22.588 80.4831 23.1397 80.4878 23.7033C80.4533 24.2337 80.5938 24.7606 80.8879 25.2033C81.1445 25.5488 81.4958 25.8124 81.8992 25.9623C82.368 26.1168 82.8602 26.1882 83.3537 26.1733C84.1056 26.1796 84.8462 25.9908 85.5033 25.6253C86.1162 25.2939 86.6375 24.8161 87.0208 24.2343C87.3593 23.7355 87.5494 23.1509 87.569 22.5483V20.1883L87.5699 20.1843ZM87.844 25.3843L87.591 25.3213C86.7603 26.1795 85.7912 26.8918 84.7241 27.4283C83.834 27.8437 82.8614 28.0526 81.8792 28.0393C81.073 28.0525 80.274 27.8868 79.5395 27.5543C78.8989 27.2552 78.3629 26.7706 78.001 26.1633C77.6384 25.5385 77.456 24.8255 77.4739 24.1033C77.4811 23.2993 77.7246 22.515 78.1743 21.8483C78.6239 21.1815 79.2597 20.6616 80.0026 20.3533C82.3899 19.3188 84.9672 18.795 87.569 18.8153V17.7393C87.6031 16.8142 87.4893 15.8896 87.2319 15.0003C87.0514 14.3939 86.6615 13.8712 86.1315 13.5253C85.5217 13.1854 84.8282 13.0246 84.1309 13.0613C83.3443 13.0256 82.5697 13.2638 81.9392 13.7353C81.5101 14.1029 81.1713 14.5641 80.9489 15.0833C80.8494 15.2948 80.6912 15.4732 80.4931 15.5974C80.295 15.7215 80.0653 15.786 79.8316 15.7833C79.468 15.7832 79.1183 15.6431 78.8553 15.3921C78.5923 15.1411 78.4361 14.7985 78.4192 14.4353V14.3513C78.4188 14.1324 78.4824 13.9181 78.6021 13.7347C78.7219 13.5514 78.8926 13.407 79.0933 13.3193C79.7858 12.9787 80.4965 12.6763 81.222 12.4133C81.9524 12.1609 82.6985 11.9568 83.4557 11.8023C84.2051 11.65 84.9677 11.5723 85.7324 11.5703C86.6814 11.5258 87.6274 11.7064 88.4932 12.0973C89.1793 12.4387 89.7292 13.0028 90.0527 13.6973C90.4454 14.7393 90.6177 15.8514 90.5589 16.9633L90.5379 22.7573V24.5063C90.5392 24.8252 90.5744 25.1429 90.6429 25.4543C90.6868 25.7004 90.7723 25.9371 90.896 26.1543C91.0291 26.338 91.2022 26.4892 91.4021 26.5963C91.6306 26.7124 91.8707 26.8043 92.1184 26.8703C92.2255 26.8993 92.3204 26.9622 92.3887 27.0497C92.4571 27.1371 92.4953 27.2444 92.4975 27.3553C92.4964 27.415 92.4836 27.4738 92.4596 27.5284C92.4356 27.583 92.4011 27.6323 92.3579 27.6734C92.3147 27.7145 92.2638 27.7467 92.208 27.7679C92.1523 27.7892 92.0929 27.7992 92.0333 27.7973H90.2208C89.906 27.7967 89.5945 27.7337 89.3042 27.612C89.0139 27.4903 88.7506 27.3124 88.5296 27.0884C88.3085 26.8644 88.134 26.5988 88.0161 26.307C87.8983 26.0152 87.8395 25.703 87.843 25.3883L87.844 25.3843Z" fill="#9689A8"/>
<path fill-rule="evenodd" clip-rule="evenodd" d="M47.2 26.0924C47.243 27.393 47.0574 28.691 46.6518 29.9274C46.2903 30.8846 45.6611 31.7177 44.8392 32.3274C43.9952 32.9263 43.0541 33.3753 42.0574 33.6544C41.8309 33.7169 41.5892 33.6933 41.379 33.5883C41.1688 33.4832 41.005 33.3041 40.919 33.0854C40.8788 32.9944 40.8572 32.8961 40.8556 32.7966C40.854 32.697 40.8723 32.5982 40.9097 32.5058C40.947 32.4135 41.0025 32.3296 41.0728 32.2591C41.1431 32.1886 41.2269 32.133 41.3192 32.0954C41.6676 31.9585 42.0056 31.7964 42.3305 31.6104C42.7034 31.3924 43.0322 31.1065 43.2998 30.7674C43.5824 30.3762 43.7831 29.932 43.89 29.4614C44.0393 28.7692 44.1101 28.0625 44.101 27.3544L44.164 14.5654C44.164 13.6804 44.143 13.0274 44.122 12.6274C44.1057 12.3063 44.0268 11.9914 43.89 11.7004C43.7699 11.4644 43.5779 11.2725 43.3418 11.1524C43.0538 11.0104 42.7494 10.9042 42.4355 10.8364C42.3094 10.8073 42.196 10.7383 42.1124 10.6395C42.0287 10.5407 41.9793 10.4176 41.9714 10.2884C41.9724 10.226 41.9858 10.1644 42.0108 10.1072C42.0358 10.05 42.0719 9.99834 42.1171 9.95518C42.1622 9.91203 42.2154 9.87825 42.2737 9.85581C42.3319 9.83336 42.3941 9.8227 42.4565 9.82442L46.1887 9.78442C46.4742 9.79096 46.7465 9.90558 46.9508 10.1051C47.155 10.3047 47.2759 10.5742 47.289 10.8594L47.2 26.0924Z" fill="#9689A8"/>
<path fill-rule="evenodd" clip-rule="evenodd" d="M10.2188 23.8088L10.3238 23.9778L10.2188 23.8088ZM10.1978 23.8298L10.3028 23.9988L10.1978 23.8298ZM10.1978 23.8298L10.3028 23.9988L10.1978 23.8298ZM10.1978 23.8298L10.3028 23.9988L10.1978 23.8298ZM10.1978 23.8298L10.3028 23.9988L10.1978 23.8298ZM10.1978 23.8298L10.3028 23.9988L10.1978 23.8298ZM10.1978 23.8298L10.3028 23.9988L10.1978 23.8298ZM10.1978 23.8298L10.3028 23.9988L10.1978 23.8298ZM10.1768 23.8298L10.2818 23.9988L10.1768 23.8298ZM10.1768 23.8298L10.2818 23.9988L10.1768 23.8298ZM10.1768 23.8508L10.2818 24.0198L10.1768 23.8508ZM10.1768 23.8508L10.2818 24.0198L10.1768 23.8508ZM10.1768 23.8508L10.2818 24.0198L10.1768 23.8508ZM10.1768 23.8508L10.2818 24.0198L10.1768 23.8508ZM10.1768 23.8508L10.2818 24.0198L10.1768 23.8508ZM10.1768 23.8508L10.2818 24.0198L10.1768 23.8508ZM10.1558 23.8508L10.2608 24.0198L10.1558 23.8508ZM10.1558 23.8508L10.2608 24.0198L10.1558 23.8508ZM10.1558 23.8508L10.2608 24.0198L10.1558 23.8508ZM10.1558 23.8718L10.2608 24.0408L10.1558 23.8718ZM10.1558 23.8718L10.2608 24.0408L10.1558 23.8718ZM10.1558 23.8718L10.2608 24.0408L10.1558 23.8718ZM10.1558 23.8718L10.2608 24.0408L10.1558 23.8718ZM10.1348 23.8718L10.2398 24.0408L10.1348 23.8718ZM10.1348 23.8718L10.2398 24.0408L10.1348 23.8718ZM10.1348 23.8718L10.2398 24.0408L10.1348 23.8718ZM10.1348 23.8718L10.2398 24.0408L10.1348 23.8718ZM10.1348 23.8718L10.2398 24.0408L10.1348 23.8718ZM10.1348 23.8718L10.2398 24.0408L10.1348 23.8718ZM10.1348 23.8718L10.2398 24.0408L10.1348 23.8718ZM10.1348 23.8928L10.2398 24.0618L10.1348 23.8928ZM10.1138 23.8928L10.2188 24.0618L10.1138 23.8928ZM10.1138 23.8928L10.2188 24.0618L10.1138 23.8928ZM10.1138 23.8928L10.2188 24.0618L10.1138 23.8928ZM10.1138 23.8928L10.2188 24.0618L10.1138 23.8928ZM10.1138 23.8928L10.2188 24.0618L10.1138 23.8928ZM10.1138 23.8928L10.2188 24.0618L10.1138 23.8928ZM10.1138 23.8928L10.2188 24.0618L10.1138 23.8928ZM10.1138 23.9138L10.2188 24.0828L10.1138 23.9138ZM10.0928 23.9138L10.1978 24.0828L10.0928 23.9138ZM10.0928 23.9138L10.1978 24.0828L10.0928 23.9138ZM10.0928 23.9138L10.1978 24.0828L10.0928 23.9138ZM10.0928 23.9138L10.1978 24.0828L10.0928 23.9138ZM10.0928 23.9138L10.1978 24.0828L10.0928 23.9138ZM10.0928 23.9138L10.1978 24.0828L10.0928 23.9138ZM10.0928 23.9138L10.1978 24.0828L10.0928 23.9138ZM10.0718 23.9138L10.1768 24.0828L10.0718 23.9138ZM10.0718 23.9138L10.1768 24.0828L10.0718 23.9138ZM10.0718 23.9348L10.1768 24.1038L10.0718 23.9348ZM10.0718 23.9348L10.1768 24.1038L10.0718 23.9348ZM10.0718 23.9348L10.1768 24.1038L10.0718 23.9348ZM10.0718 23.9348L10.1768 24.1038L10.0718 23.9348ZM10.0718 23.9348L10.1768 24.1038L10.0718 23.9348ZM10.0718 23.9348L10.1768 24.1038L10.0718 23.9348ZM10.0508 23.9348L10.1558 24.1038L10.0508 23.9348ZM10.0508 23.9348L10.1558 24.1038L10.0508 23.9348ZM10.0508 23.9348L10.1558 24.1038L10.0508 23.9348ZM10.0508 23.9558L10.1558 24.1248L10.0508 23.9558ZM10.0508 23.9558L10.1558 24.1248L10.0508 23.9558ZM10.0508 23.9558L10.1558 24.1248L10.0508 23.9558Z" fill="#9689A8"/>
<path fill-rule="evenodd" clip-rule="evenodd" d="M113.093 33.4911C113.038 33.9955 112.837 34.473 112.515 34.8656C112.193 35.2582 111.764 35.5491 111.281 35.7031C109.155 36.4717 106.901 36.8291 104.642 36.7561H104.41V39.8741C105.147 39.8108 105.885 39.7264 106.622 39.6211C107.149 39.5371 107.676 39.4311 108.203 39.3261C109.87 39.0396 111.445 38.3606 112.797 37.3451C113.816 36.5087 114.533 35.3615 114.837 34.0792C115.142 32.7969 115.018 31.4501 114.484 30.2451C113.472 28.1801 111.133 27.6741 109.193 27.5451C109.003 27.5241 108.814 27.5241 108.624 27.5031C107.402 27.4611 105.884 27.3981 104.388 27.2501V31.0231C104.831 31.0441 105.273 31.0861 105.737 31.1071C106.769 31.1491 107.824 31.1911 108.856 31.2121C110.078 31.2331 111.557 31.1911 112.523 32.0341C112.723 32.2165 112.879 32.4426 112.977 32.6947C113.076 32.9469 113.115 33.2183 113.092 33.4881L113.093 33.4911ZM104.41 24.0311V22.5551C106.643 21.9441 108.351 19.5421 108.435 16.6341C108.54 13.5341 106.77 10.8611 104.389 10.2501V8.9861C106.223 9.20417 107.971 9.88597 109.468 10.9671L113.937 11.1361C114.192 11.1625 114.427 11.2871 114.592 11.4835C114.757 11.68 114.84 11.933 114.822 12.1891C114.814 12.4556 114.709 12.7101 114.527 12.9051C114.445 12.9911 114.347 13.0597 114.239 13.1068C114.13 13.1539 114.013 13.1785 113.895 13.1791H113.853L111.492 13.0951C112.146 14.2307 112.433 15.5403 112.314 16.8451C112.25 19.0161 109.573 23.6091 104.41 24.0301V24.0311ZM104.41 36.7781H104.157C102.29 36.7877 100.43 36.5756 98.6138 36.1461C97.4755 35.8511 95.6419 35.3241 95.705 33.6601C95.7255 33.3643 95.7896 33.0732 95.895 32.7961C96.177 32.2394 96.5311 31.7223 96.9483 31.2581C97.1384 31.0261 97.3484 30.8161 97.5595 30.6051C97.6225 30.5421 97.7706 30.3731 97.9176 30.2261C97.9232 30.2261 97.9285 30.2239 97.9325 30.2199C97.9364 30.216 97.9386 30.2107 97.9386 30.2051C98.0533 30.2231 98.166 30.2513 98.2757 30.2891C98.6338 30.3731 98.976 30.4361 99.3291 30.5001C100.193 30.6471 101.058 30.7531 101.922 30.8371C102.744 30.9211 103.565 30.9841 104.388 31.0481V27.2751C103.502 27.1859 102.622 27.0453 101.753 26.8541C99.3291 26.3061 96.5512 25.4241 99.286 23.4011C100.64 23.8459 102.055 24.0727 103.48 24.0731C103.79 24.0806 104.1 24.0666 104.408 24.0311V22.5551C104.03 22.6583 103.64 22.7078 103.248 22.7021H103.079C100.255 22.5971 98.0417 19.6891 98.1477 16.2121C98.2557 12.8231 100.552 10.1231 103.313 10.1231H103.482C103.787 10.1429 104.09 10.185 104.389 10.2491V8.9861C104.102 8.94416 103.814 8.9231 103.524 8.9231H103.063C98.1527 8.9231 94.1475 12.0411 94.0214 16.0451C94.0008 17.4232 94.3446 18.7823 95.0183 19.9848C95.6919 21.1874 96.6714 22.1906 97.8576 22.8931C97.7316 22.9771 97.9626 22.8091 97.8576 22.8931C97.5415 23.1041 97.2674 23.3141 96.9513 23.5671C96.5404 23.8826 96.1529 24.2275 95.792 24.5991C95.6069 24.7887 95.4377 24.993 95.2858 25.2101C94.9272 25.635 94.6844 26.1453 94.581 26.6916C94.4776 27.2379 94.5171 27.8016 94.6957 28.3281C95.0323 28.9555 95.5759 29.4471 96.2341 29.7191C96.2817 29.7439 96.3313 29.765 96.3822 29.7821C96.366 29.7836 96.351 29.7911 96.3401 29.8031C95.898 30.1191 92.0198 32.9631 91.9558 35.1131C91.8718 37.6201 94.9277 38.8001 96.6573 39.2641C98.4743 39.7329 100.345 39.9596 102.222 39.9381C102.959 39.9381 103.676 39.9171 104.414 39.8751L104.41 36.7781Z" fill="#9689A8"/>
<path d="M44.9475 8.1015C44.4123 8.10322 43.8822 7.99795 43.3883 7.79187C42.8944 7.58579 42.4467 7.28306 42.0716 6.90149C41.6886 6.53268 41.3836 6.09073 41.1747 5.60185C40.9658 5.11297 40.8573 4.58713 40.8555 4.05552C40.8537 3.5239 40.9588 2.99735 41.1644 2.50709C41.37 2.01683 41.6721 1.57285 42.0526 1.20149C42.4255 0.818114 42.8722 0.514156 43.3658 0.307926C43.8594 0.101696 44.3896 -0.00254041 44.9245 0.00149494C45.4571 -0.0119389 45.9868 0.0829584 46.4816 0.280427C46.9764 0.477895 47.4259 0.773816 47.8028 1.15023C48.1797 1.52664 48.4761 1.97569 48.6742 2.47012C48.8722 2.96456 48.9676 3.49406 48.9547 4.02649C48.9659 4.56212 48.87 5.09458 48.6724 5.5926C48.4749 6.09061 48.1797 6.54413 47.8044 6.9265C47.4352 7.30898 46.9907 7.61085 46.499 7.81308C46.0073 8.01531 45.479 8.11351 44.9475 8.1015ZM44.9225 0.312495C44.4286 0.307184 43.9388 0.40191 43.4825 0.590961C43.0262 0.780012 42.613 1.05947 42.2677 1.41249C41.9163 1.75576 41.6374 2.1661 41.4477 2.61916C41.2579 3.07222 41.1612 3.55878 41.1631 4.04994C41.1651 4.5411 41.2657 5.02687 41.4591 5.47841C41.6524 5.92994 41.9345 6.33805 42.2887 6.67849C42.6355 7.02954 43.049 7.30769 43.5049 7.4966C43.9608 7.68551 44.45 7.78135 44.9435 7.77849C45.433 7.78999 45.9197 7.70026 46.3729 7.51493C46.8261 7.3296 47.2361 7.05267 47.5773 6.70149C47.9234 6.34907 48.1957 5.9311 48.3781 5.4721C48.5605 5.0131 48.6494 4.5223 48.6396 4.02849C48.6517 3.53721 48.5638 3.04859 48.3813 2.59229C48.1987 2.13599 47.9254 1.72151 47.5778 1.37402C47.2302 1.02652 46.8156 0.753244 46.3591 0.57077C45.9027 0.388295 45.4139 0.300427 44.9225 0.312495Z" fill="#9689A8"/>
<path d="M44.942 7.39868C44.4988 7.40268 44.0593 7.31704 43.65 7.14691C43.2407 6.97678 42.8701 6.72567 42.5603 6.40868C42.2368 6.10305 41.98 5.73387 41.8059 5.3243C41.6319 4.91474 41.5444 4.47364 41.549 4.02868C41.5465 3.59192 41.6331 3.15922 41.8035 2.75705C41.974 2.35488 42.2247 1.99169 42.5403 1.68968C42.849 1.37129 43.2195 1.1192 43.629 0.948803C44.0385 0.778411 44.4785 0.693303 44.922 0.698683C45.3626 0.686829 45.801 0.764874 46.2104 0.928052C46.6197 1.09123 46.9916 1.33612 47.3031 1.64776C47.6147 1.9594 47.8594 2.33126 48.0224 2.74062C48.1854 3.14998 48.2632 3.58826 48.2511 4.02868C48.2603 4.47163 48.1812 4.91197 48.0184 5.32402C47.8555 5.73608 47.6123 6.1116 47.3028 6.42868C46.9974 6.74431 46.6301 6.99341 46.2238 7.16034C45.8176 7.32727 45.3812 7.40841 44.942 7.39868ZM44.922 1.16268C44.5415 1.15472 44.1634 1.22549 43.8116 1.37056C43.4597 1.51563 43.1417 1.73187 42.8774 2.00568C42.6034 2.26644 42.3854 2.58033 42.2368 2.92816C42.0882 3.27599 42.0121 3.65046 42.0131 4.02868C42.0086 4.41037 42.0831 4.78888 42.2318 5.14044C42.3805 5.49201 42.6003 5.80906 42.8774 6.07168C43.1403 6.34877 43.4576 6.56855 43.8094 6.71723C44.1613 6.86591 44.5401 6.94028 44.922 6.93568C45.3028 6.93859 45.6802 6.86506 46.032 6.71947C46.3837 6.57388 46.7027 6.35918 46.97 6.08809C47.2372 5.81701 47.4473 5.49505 47.5878 5.1413C47.7283 4.78755 47.7964 4.4092 47.7879 4.02868C47.7991 3.64974 47.7318 3.27257 47.5903 2.92084C47.4488 2.56911 47.2362 2.25039 46.9657 1.98468C46.7 1.71435 46.3814 1.50179 46.0297 1.36034C45.678 1.21889 45.3009 1.1516 44.922 1.16268Z" fill="#9689A8"/>
<path d="M44.8997 5.88243C44.656 5.8846 44.4145 5.83703 44.1899 5.74263C43.9652 5.64823 43.7622 5.50899 43.5933 5.33343C43.4167 5.16535 43.2769 4.96254 43.1825 4.73777C43.0882 4.51301 43.0414 4.27115 43.0451 4.02743C43.0456 3.78432 43.0942 3.54371 43.1883 3.31953C43.2824 3.09535 43.4201 2.89206 43.5933 2.72143C43.7623 2.5461 43.9654 2.40707 44.19 2.31285C44.4146 2.21863 44.6561 2.17119 44.8997 2.17343C45.1425 2.16394 45.3845 2.206 45.6099 2.29684C45.8353 2.38768 46.0388 2.52523 46.2071 2.70043C46.3792 2.87101 46.5148 3.0749 46.6054 3.29962C46.696 3.52435 46.7399 3.76519 46.7343 4.00743C46.7425 4.25284 46.6999 4.4973 46.6092 4.72548C46.5185 4.95366 46.3816 5.16064 46.2071 5.33343C46.038 5.50907 45.8349 5.64835 45.61 5.74275C45.3852 5.83715 45.1435 5.88468 44.8997 5.88243ZM44.8997 2.68243C44.7193 2.67873 44.54 2.71236 44.3732 2.78119C44.2064 2.85003 44.0557 2.95259 43.9304 3.08243C43.7367 3.27485 43.6044 3.52039 43.5502 3.788C43.4961 4.0556 43.5226 4.33324 43.6264 4.58578C43.7302 4.83832 43.9065 5.05442 44.1332 5.20673C44.3598 5.35904 44.6266 5.44072 44.8997 5.44143C45.0801 5.44525 45.2594 5.41168 45.4262 5.34284C45.593 5.274 45.7438 5.17137 45.869 5.04143C46.0012 4.91353 46.1051 4.75934 46.174 4.58882C46.2429 4.4183 46.2753 4.23524 46.2691 4.05143C46.2684 3.68839 46.1247 3.34024 45.869 3.08243C45.7465 2.94882 45.5963 2.84354 45.4289 2.77394C45.2614 2.70433 45.0809 2.67208 44.8997 2.67943V2.68243Z" fill="#9689A8"/>
<path d="M8.40577 24.3625L8.38477 24.3836V24.3625H8.40577Z" fill="#9689A8"/>
<path d="M8.82715 23.9983H8.84815C8.84815 24.0193 8.84815 24.0193 8.82715 23.9983Z" fill="#9689A8"/>
<path d="M9.58596 24.2405H9.60696L9.66996 24.2615L9.73296 24.2825H9.77496C9.71426 24.2585 9.65012 24.2443 9.58496 24.2405H9.58596Z" fill="#9689A8"/>
<path d="M8.86914 24.0188H8.89014C8.91114 24.0398 8.89014 24.0398 8.86914 24.0188Z" fill="#9689A8"/>
<path d="M9.375 24.1809L9.417 24.2019H9.543C9.48641 24.2172 9.4261 24.2096 9.375 24.1809Z" fill="#9689A8"/>
<path d="M9.18555 24.1194L9.22755 24.1404L9.26955 24.1614H9.35355C9.29553 24.1573 9.23868 24.143 9.18555 24.1194Z" fill="#9689A8"/>
<path d="M9.05859 24.0784H9.20559C9.18417 24.0938 9.15846 24.102 9.13209 24.102C9.10572 24.102 9.08001 24.0938 9.05859 24.0784Z" fill="#9689A8"/>
<path d="M8.9541 24.0598H9.0591C9.0171 24.0808 8.9751 24.0598 8.9541 24.0598Z" fill="#9689A8"/>
<path d="M7.35254 23.533C7.35811 23.533 7.36345 23.5307 7.36739 23.5268C7.37133 23.5229 7.37354 23.5175 7.37354 23.512C7.36797 23.512 7.36263 23.5142 7.35869 23.5181C7.35475 23.5221 7.35254 23.5274 7.35254 23.533Z" fill="#9689A8"/>
<path d="M7.35068 23.5257C6.49334 22.9545 5.73247 22.2503 5.09668 21.4397C5.73321 22.2496 6.49396 22.9537 7.35068 23.5257Z" fill="#9689A8"/>
<path d="M3.55811 17.8567C3.56299 17.7996 3.55583 17.742 3.53711 17.6877C3.55448 17.7423 3.5616 17.7996 3.55811 17.8567Z" fill="#9689A8"/>
<path d="M23.8159 30.2629C23.8159 30.2419 23.7949 30.2419 23.7949 30.2209C23.8274 30.2673 23.8555 30.3164 23.8789 30.3679L23.8579 30.3469C23.8369 30.3049 23.8369 30.2839 23.8159 30.2629Z" fill="#9689A8"/>
<path d="M23.6055 29.9802L23.5635 29.9382V29.9172C23.5985 29.9541 23.627 29.9967 23.6475 30.0432C23.6475 30.0222 23.6265 30.0012 23.6055 29.9802Z" fill="#9689A8"/>
<path d="M23.3311 29.6545C23.3521 29.6755 23.3731 29.7175 23.4151 29.7385L23.3731 29.6965C23.3521 29.6965 23.3521 29.6755 23.3311 29.6545Z" fill="#9689A8"/>
<path d="M15.277 27.8518C15.382 27.8518 15.488 27.8728 15.593 27.8728C15.319 27.8515 15.024 27.8305 14.708 27.8098C14.898 27.8308 15.087 27.8308 15.277 27.8518Z" fill="#9689A8"/>
<path d="M24.2574 31.099C24.2364 31.057 24.2364 31.015 24.2154 30.994C24.1944 30.952 24.1944 30.931 24.1734 30.889C24.1314 30.805 24.1104 30.741 24.0684 30.657C24.0438 30.6061 24.0158 30.557 23.9844 30.51C24.1104 30.742 24.1954 30.974 24.3004 31.21C24.2794 31.168 24.2584 31.147 24.2584 31.105L24.2574 31.099Z" fill="#9689A8"/>
<path d="M0.601839 15.1016V15.7226C0.598488 15.7922 0.605568 15.862 0.622846 15.9296C0.619602 15.9923 0.626699 16.0551 0.643853 16.1156C0.643853 16.1776 0.664859 16.2606 0.664859 16.3226C0.664859 16.3846 0.685865 16.4466 0.685865 16.5086C0.706872 16.5916 0.706872 16.6746 0.726878 16.7566C0.747884 16.8566 0.747884 16.9426 0.76789 17.0466C0.788897 17.1296 0.788897 17.2126 0.808903 17.2946C0.82991 17.3566 0.829909 17.4186 0.849916 17.4806C0.869922 17.5426 0.870922 17.6256 0.890928 17.6876C0.910934 17.7496 0.911934 17.8116 0.931941 17.8736C0.951947 17.9356 0.972953 18.0186 0.99396 18.0806L1.05598 18.2666C1.07699 18.3286 1.09699 18.4116 1.118 18.4736L1.18002 18.6596C1.20102 18.7216 1.22103 18.8046 1.24204 18.8666L1.30405 19.0526C1.32268 19.1249 1.35059 19.1944 1.38708 19.2596L1.4491 19.4456C1.47011 19.5076 1.51112 19.5906 1.53212 19.6526C1.54694 19.7134 1.57532 19.7702 1.61515 19.8186C1.63616 19.8806 1.67717 19.9636 1.69818 20.0256C1.71736 20.0847 1.74535 20.1407 1.7812 20.1916C1.82221 20.2536 1.84322 20.3366 1.88123 20.3986C1.90042 20.4577 1.92841 20.5137 1.96426 20.5646C2.00172 20.6315 2.03512 20.7006 2.06429 20.7716C2.08395 20.8241 2.11199 20.873 2.14731 20.9166C2.18785 21.0036 2.2364 21.0866 2.29236 21.1646C2.30858 21.2005 2.32943 21.2341 2.35438 21.2646L2.78951 21.9476C2.81052 21.9686 2.83052 22.0096 2.85153 22.0306C2.90187 22.1101 2.95734 22.1862 3.01758 22.2586C3.04028 22.2957 3.06825 22.3294 3.10061 22.3586C3.14162 22.4206 3.20064 22.5036 3.24565 22.5656C3.26666 22.6066 3.30767 22.6486 3.32868 22.6896C3.36969 22.7516 3.42871 22.8136 3.47372 22.8756C3.51473 22.9166 3.53574 22.9586 3.57375 22.9996C3.61476 23.0616 3.67378 23.1236 3.71879 23.1856C3.75981 23.2266 3.78081 23.2686 3.81883 23.3096C3.85984 23.3716 3.91886 23.4096 3.96387 23.4756C4.00488 23.5166 4.02589 23.5586 4.0639 23.5756L4.22995 23.7416L4.32998 23.8416L4.49603 24.0076L4.59606 24.1076C4.65853 24.1697 4.72802 24.2244 4.80313 24.2706C4.84414 24.2916 4.86515 24.3326 4.90316 24.3536C4.95999 24.4082 5.02234 24.4568 5.08921 24.4986C5.11022 24.5196 5.15123 24.5396 5.17224 24.5606C5.25526 24.6226 5.31728 24.6606 5.40031 24.7266C5.42132 24.7476 5.44132 24.7476 5.46233 24.7676C5.56236 24.8296 5.64839 24.8916 5.75242 24.9536C5.87646 24.8536 6.00049 24.7466 6.10453 24.6436C5.79443 24.4156 5.48334 24.1676 5.17324 23.9196C4.87543 23.6594 4.59224 23.383 4.32498 23.0916C2.97762 21.6202 2.04313 19.8191 1.61615 17.8706C1.32802 16.6003 1.28591 15.2866 1.49211 14.0006L0.76789 13.5706C0.699236 13.94 0.650815 14.3129 0.622846 14.6876V14.8946C0.604561 14.9619 0.597464 15.0319 0.601839 15.1016Z" fill="#9689A8"/>
<path d="M6.27705 24.5558C5.61901 24.0787 5.00534 23.5432 4.44349 22.9558C3.10371 21.5029 2.17196 19.7217 1.74266 17.7928C1.31509 15.9903 1.4063 14.1037 2.00575 12.3508L2.92503 12.9258C2.49896 13.7623 2.23105 14.6701 2.13478 15.6038C2.04794 16.5059 2.10841 17.4161 2.31384 18.2988C2.86369 20.5035 4.10408 22.4748 5.85392 23.9248C6.04843 24.0975 6.25248 24.2591 6.46511 24.4088C6.4331 24.4298 6.40609 24.4518 6.38209 24.4708C6.35608 24.4908 6.33007 24.5118 6.29906 24.5328L6.27905 24.5538L6.27705 24.5558ZM4.36647 23.1558L4.27444 23.1008C2.76287 21.4447 1.77484 19.3788 1.43457 17.1628C1.46758 17.3628 1.50759 17.5788 1.55561 17.7928C1.9918 19.7748 2.94425 21.6063 4.31645 23.1018L4.36747 23.1558H4.36647Z" fill="#9689A8"/>
<path d="M8.40587 24.1443L8.32185 24.2283C8.27984 24.2913 8.21682 24.3543 8.1748 24.4183C10.6406 25.9773 13.8235 26.2513 16.6894 26.5043C19.8294 26.7783 22.6542 27.0103 24.0027 28.8853C24.2723 29.2627 24.4919 29.6735 24.6559 30.1073C24.818 30.5355 24.9311 30.9807 24.993 31.4343C25.035 31.6243 25.077 31.8133 25.098 31.9823C25.1039 30.7695 24.718 29.5872 23.9977 28.6113C21.5969 25.2193 13.0173 26.9683 8.46389 24.0813C8.42188 24.1023 8.42188 24.1233 8.40088 24.1443H8.40587Z" fill="#9689A8"/>
<path d="M8.04793 24.6692L8.02693 24.6902C8.01895 24.6985 8.01291 24.7084 8.00928 24.7193C8.00564 24.7302 8.0045 24.7418 8.00592 24.7532V24.7742L7.9429 24.9002V24.9212C7.9429 24.9422 7.9219 24.9632 7.9219 24.9842V25.0052C7.90089 25.0682 7.90089 25.1312 7.87988 25.1742L7.98491 25.2372C11.0409 26.9442 14.1178 27.0912 16.8366 27.2182C19.9766 27.3652 22.6534 27.4712 24.3389 29.9362C24.1965 29.6446 24.0344 29.3629 23.8538 29.0932C21.346 25.6162 13.2505 27.9762 8.04893 24.6682L8.04793 24.6692Z" fill="#9689A8"/>
<path d="M10.5742 26.833C12.132 27.134 13.7103 27.3172 15.2956 27.381C15.1056 27.36 14.9165 27.36 14.7264 27.339C15.0425 27.3604 15.3376 27.3814 15.6117 27.402C16.8121 27.465 17.9514 27.507 18.7947 27.571C19.5215 27.6304 20.2411 27.7573 20.9444 27.95C21.7198 28.1399 22.4467 28.4905 23.078 28.979C23.099 28.979 23.099 29 23.12 29L23.141 29.021C23.204 29.084 23.2881 29.147 23.3521 29.211L23.3731 29.232L23.3941 29.253L23.4361 29.295L23.4781 29.337C23.5201 29.379 23.5411 29.421 23.5832 29.442C23.6042 29.463 23.6252 29.484 23.6252 29.505V29.547L23.6672 29.589C23.6882 29.61 23.6882 29.631 23.7092 29.652C23.7302 29.673 23.7512 29.694 23.7512 29.715C23.7722 29.736 23.7722 29.757 23.7932 29.778C23.8142 29.799 23.8142 29.82 23.8352 29.841C23.8352 29.862 23.8562 29.862 23.8562 29.883C23.8773 29.904 23.8773 29.925 23.8983 29.946L23.9193 29.967C23.932 29.9771 23.9424 29.9898 23.9497 30.0043C23.957 30.0189 23.9609 30.0348 23.9613 30.051C23.9823 30.072 23.9823 30.114 24.0033 30.135C24.0358 30.1813 24.0639 30.2305 24.0873 30.282C24.1293 30.366 24.1503 30.43 24.1924 30.514C24.2134 30.556 24.2134 30.577 24.2344 30.619C24.2554 30.661 24.2554 30.703 24.2764 30.724C24.2764 30.745 24.2974 30.787 24.2974 30.808V30.85C24.3184 30.892 24.3184 30.913 24.3394 30.955V30.976C24.3604 31.018 24.3604 31.039 24.3814 31.081V31.102C24.3814 31.144 24.4024 31.165 24.4024 31.207V31.228C24.4024 31.27 24.4234 31.291 24.4234 31.333V31.354C24.4234 31.396 24.4444 31.417 24.4444 31.459V31.501C24.4444 31.522 24.4654 31.564 24.4654 31.585V31.627C24.4654 31.648 24.4864 31.69 24.4864 31.711V31.732C24.4834 31.7616 24.4908 31.7914 24.5074 31.816V31.858C24.5044 31.8876 24.5118 31.9174 24.5285 31.942V32.363C24.5656 33.3173 24.3836 34.2673 23.9964 35.1403C23.6092 36.0132 23.0271 36.7859 22.2948 37.399C22.1945 37.4831 22.089 37.5606 21.9787 37.631C21.9577 37.652 21.9157 37.673 21.8946 37.694C21.8137 37.7453 21.7362 37.8017 21.6626 37.863C21.6416 37.884 21.5996 37.905 21.5786 37.926C21.4735 37.989 21.3675 38.052 21.2414 38.116H21.2204C21.1196 38.1805 21.0139 38.237 20.9043 38.285C20.8623 38.306 20.8413 38.327 20.7993 38.327L20.5462 38.453C20.5042 38.474 20.4832 38.474 20.4412 38.495C20.3152 38.537 20.2091 38.6 20.0831 38.643C20.0621 38.643 20.0621 38.643 20.0411 38.664L19.725 38.79C19.683 38.811 19.662 38.811 19.6199 38.832C19.5359 38.853 19.4299 38.895 19.3459 38.916C19.3249 38.916 19.3039 38.937 19.2828 38.937C20.7812 38.6847 22.1569 37.9527 23.203 36.851C24.0469 35.9226 24.6006 34.7676 24.7961 33.5285C24.9916 32.2894 24.8204 31.0201 24.3034 29.877C24.2404 29.793 24.1984 29.708 24.1343 29.624L24.1133 29.603C24.0503 29.498 23.9663 29.413 23.9023 29.308C23.8392 29.245 23.7972 29.182 23.7332 29.118C20.5082 25.389 14.0803 28.402 7.77832 24.967C7.89936 25.927 9.0167 26.496 10.5742 26.833Z" fill="#9689A8"/>
<path d="M25.288 31.8468L25.267 33.1948C25.5338 32.2213 25.5717 31.1994 25.3779 30.2088C25.1841 29.2183 24.7637 28.286 24.1496 27.4848C22.3371 25.4848 18.3119 25.4408 15.1469 24.9568C13.3224 24.7673 11.5313 24.3352 9.82125 23.6718C10.1373 23.7348 10.5375 23.8188 11.0016 23.8828C11.5708 23.9458 12.245 24.0088 13.0672 24.0298C18.863 24.1138 21.8559 19.0788 21.94 16.7398C22.0565 15.4281 21.7696 14.1121 21.1177 12.9678L23.4994 13.0518H23.5415C23.6599 13.0512 23.777 13.0266 23.8856 12.9795C23.9943 12.9324 24.0923 12.8638 24.1736 12.7778C24.3556 12.5827 24.4604 12.3283 24.4687 12.0618C24.4899 11.8027 24.4093 11.5456 24.244 11.3449C24.0788 11.1443 23.8418 11.0158 23.5835 10.9868L19.0241 10.8388C17.2847 9.5983 15.2159 8.9022 13.0802 8.83877H12.6221C10.2035 8.7957 7.849 9.61776 5.98307 11.1568C5.83603 11.2828 5.68798 11.4308 5.54094 11.5778L5.47792 11.6408C5.37289 11.7458 5.28786 11.8518 5.18283 11.9568C5.16182 11.9778 5.14082 11.9988 5.14082 12.0198C5.03578 12.1458 4.95076 12.2728 4.84573 12.3778C4.82472 12.3988 4.80371 12.4408 4.78271 12.4618C4.69868 12.5878 4.59265 12.7148 4.50862 12.8618H4.48462C4.46408 12.9083 4.43566 12.9509 4.40059 12.9878L4.37958 13.0088C4.35749 13.0319 4.34285 13.0612 4.33757 13.0928C4.33814 13.0982 4.33658 13.1036 4.33322 13.1079C4.32986 13.1122 4.32496 13.115 4.31956 13.1158V13.1388L4.29856 13.1808L4.23554 13.3068L4.21453 13.3278C4.21453 13.3488 4.19353 13.3698 4.19353 13.3908C4.19353 13.4118 4.17252 13.4118 4.17252 13.4328C4.17252 13.4538 4.15151 13.4538 4.15151 13.4748L4.13051 13.4958L4.06749 13.6218V13.6638C4.06749 13.6693 4.06527 13.6747 4.06134 13.6786C4.0574 13.6826 4.05205 13.6848 4.04648 13.6848C4.04648 13.7058 4.04648 13.7058 4.02547 13.7268C4.00447 13.7478 4.00447 13.7688 3.98346 13.8108V13.8318C3.96246 13.8738 3.94145 13.9368 3.92044 13.9788V13.9998V14.0208C3.89944 14.0628 3.89944 14.1048 3.87843 14.1468V14.1678C3.85489 14.2135 3.84061 14.2635 3.83642 14.3148V14.3388C3.81541 14.3808 3.81541 14.4438 3.7944 14.4858V14.5068C3.7944 14.5488 3.7734 14.5698 3.7734 14.6118V14.6958C3.75239 14.7588 3.75239 14.8008 3.73138 14.8648V14.8858C3.73229 14.9152 3.72502 14.9442 3.71038 14.9698V15.0538C3.71038 15.1168 3.68937 15.1588 3.68937 15.2228V15.3068C3.69243 15.3364 3.68499 15.3661 3.66837 15.3908C3.66837 15.4538 3.64736 15.5168 3.64736 15.5598V16.4868C3.64736 16.5918 3.66837 16.6978 3.66837 16.8028C3.66349 16.8599 3.67064 16.9175 3.68937 16.9718C3.71038 17.1188 3.73138 17.2458 3.75239 17.3928V17.4558C3.77733 17.6125 3.81241 17.7675 3.85742 17.9198V17.9388C3.89944 18.0858 3.94145 18.2548 3.98346 18.4028C4.02547 18.5498 4.08849 18.6978 4.13051 18.8448C4.13051 18.8503 4.13272 18.8557 4.13666 18.8596C4.1406 18.8636 4.14594 18.8658 4.15151 18.8658C4.21453 18.9918 4.25655 19.1188 4.32056 19.2658C4.34157 19.2868 4.34157 19.3078 4.36258 19.3498C4.41062 19.4593 4.46714 19.565 4.53163 19.6658C4.55155 19.719 4.57992 19.7686 4.61566 19.8128C4.65704 19.8947 4.70629 19.9724 4.7627 20.0448C4.80409 20.1267 4.85333 20.2044 4.90975 20.2768C4.93075 20.3188 4.97276 20.3608 4.99377 20.4028C5.06419 20.513 5.14171 20.6186 5.22584 20.7188C5.22584 20.7398 5.24685 20.7398 5.24685 20.7608C5.88886 21.5658 6.64903 22.2691 7.50154 22.8468C7.50711 22.8468 7.51245 22.849 7.51639 22.8529C7.52033 22.8569 7.52255 22.8622 7.52255 22.8678C7.43468 22.936 7.34319 22.9994 7.24846 23.0578C7.22746 23.0788 7.18544 23.0998 7.16444 23.1208L6.97438 23.2468C6.899 23.2965 6.82835 23.3531 6.76331 23.4158C6.70029 23.4578 6.65828 23.4998 6.59426 23.5418C6.54093 23.5785 6.49164 23.6207 6.44722 23.6678C6.30017 23.7938 6.17313 23.8998 6.02609 24.0258C6.04709 24.0048 6.0681 24.0048 6.0681 23.9838C5.96307 23.9208 5.87804 23.8578 5.77301 23.7938C5.752 23.7728 5.731 23.7728 5.70999 23.7518C5.62597 23.6888 5.56295 23.6468 5.47792 23.5828C5.45691 23.5618 5.4149 23.5408 5.39389 23.5198C5.33087 23.4778 5.26786 23.4148 5.20384 23.3728C5.16182 23.3518 5.14082 23.3098 5.0988 23.2888C5.03578 23.2468 4.97276 23.1838 4.90875 23.1418C4.86673 23.1208 4.84573 23.0788 4.80371 23.0368C4.74218 22.9859 4.68558 22.9293 4.63466 22.8678L4.52963 22.7628L4.36058 22.5938C4.31856 22.5518 4.29756 22.5098 4.25554 22.4888C4.20067 22.4378 4.15138 22.3812 4.1085 22.3198C4.06649 22.2778 4.04548 22.2358 4.00347 22.1938C3.96145 22.1308 3.89844 22.0678 3.85642 22.0038C3.81441 21.9618 3.7934 21.9198 3.75139 21.8778C3.70938 21.8148 3.64636 21.7518 3.60435 21.6878C3.58334 21.6458 3.54133 21.6038 3.52032 21.5618C3.47831 21.4988 3.41529 21.4148 3.37327 21.3508C3.35056 21.3118 3.32225 21.2765 3.28925 21.2458C3.23799 21.1648 3.18152 21.0874 3.1202 21.0138C3.09919 20.9928 3.07818 20.9508 3.05718 20.9298L2.61504 20.2298C2.5988 20.1921 2.57761 20.1568 2.55202 20.1248C2.51098 20.036 2.46175 19.9513 2.40498 19.8718C2.38379 19.8209 2.35476 19.7737 2.31895 19.7318C2.27561 19.6659 2.24035 19.5951 2.21392 19.5208C2.19291 19.4578 2.1509 19.4158 2.12989 19.3518C2.08788 19.2888 2.06687 19.2048 2.02486 19.1408C2.00549 19.0805 1.97716 19.0236 1.94084 18.9718C1.91983 18.9088 1.87782 18.8248 1.85681 18.7608C1.84186 18.6988 1.81314 18.6411 1.77278 18.5918C1.75178 18.5288 1.70976 18.4448 1.68876 18.3808L1.62574 18.1908C1.60695 18.1171 1.57871 18.0462 1.54171 17.9798L1.47869 17.7898C1.45769 17.7268 1.43668 17.6428 1.41568 17.5788L1.35266 17.3888C1.33165 17.3258 1.31064 17.2418 1.28964 17.1778L1.22662 16.9878C1.20561 16.9248 1.1846 16.8408 1.1636 16.7768C1.1396 16.7161 1.12541 16.6519 1.12158 16.5868C1.0975 16.5188 1.08335 16.4478 1.07957 16.3758C1.05857 16.3128 1.05857 16.2498 1.03756 16.1858C0.700456 16.2488 0.700456 16.1648 0.679449 16.0808C0.655157 15.9842 0.641075 15.8853 0.637437 15.7858C0.61643 15.7018 0.61643 15.6168 0.595424 15.5328C0.595424 15.4698 0.574417 15.4068 0.574417 15.3428C0.574417 15.2788 0.553411 15.1958 0.553411 15.1318C0.556913 15.0677 0.549816 15.0035 0.532404 14.9418C0.535902 14.8708 0.528822 14.7997 0.511398 14.7308V13.5798L0.0692623 13.4328C-0.457899 17.3518 2.09288 22.3458 5.38089 24.4948L5.67598 24.1998C5.54994 24.3258 5.4019 24.4528 5.27586 24.5788C5.0908 24.7683 4.92152 24.9727 4.7697 25.1898C4.40093 25.6132 4.15182 26.1273 4.04808 26.6791C3.94433 27.2309 3.98971 27.8004 4.17952 28.3288C4.51915 28.9547 5.05664 29.4505 5.70799 29.7388C5.75529 29.7636 5.80446 29.7846 5.85503 29.8018C5.8389 29.8033 5.82392 29.8108 5.81302 29.8228C5.37089 30.1388 1.47169 32.9828 1.41167 35.1538C1.31865 37.6628 4.40059 38.8638 6.12912 39.3268C7.95335 39.7956 9.8314 40.0222 11.7148 40.0008C13.2044 39.9993 14.6916 39.8796 16.1622 39.6428C16.6894 39.5588 17.2375 39.4528 17.7627 39.3478C18.2898 39.2218 18.838 39.0948 19.3632 38.9268C19.3842 38.9268 19.4052 38.9058 19.4262 38.9058C19.5102 38.8848 19.6163 38.8428 19.7003 38.8218C19.7423 38.8008 19.7633 38.8008 19.8053 38.7798L20.1214 38.6538C20.1424 38.6538 20.1424 38.6538 20.1634 38.6328C20.2895 38.5908 20.3955 38.5278 20.5215 38.4858C20.5635 38.4648 20.5845 38.4648 20.6266 38.4438L20.8796 38.3178C20.9217 38.2968 20.9427 38.2758 20.9847 38.2758C21.0897 38.2128 21.1957 38.1708 21.3008 38.1068H21.3248C21.4298 38.0438 21.5358 37.9808 21.6619 37.9168C21.6829 37.8958 21.7249 37.8748 21.7459 37.8538C21.8315 37.8097 21.9098 37.7527 21.978 37.6848C21.999 37.6638 22.041 37.6428 22.062 37.6218C22.167 37.5378 22.2731 37.4748 22.3781 37.3898C23.1104 36.7766 23.6925 36.0039 24.0797 35.131C24.4669 34.258 24.6489 33.308 24.6118 32.3538V31.9328C24.6148 31.9032 24.6074 31.8734 24.5908 31.8488V31.8068C24.5938 31.7772 24.5864 31.7474 24.5698 31.7228V31.7018C24.5728 31.6722 24.5654 31.6424 24.5488 31.6178V31.5758C24.5488 31.5548 24.5278 31.5128 24.5278 31.4918V31.4498C24.5278 31.4078 24.5068 31.3868 24.5068 31.3448V31.3238C24.5068 31.2818 24.4857 31.2608 24.4857 31.2188V31.1978C24.4857 31.1558 24.4647 31.1348 24.4647 31.0928V31.0718C24.4647 31.0298 24.4437 31.0088 24.4227 30.9668V30.9388C24.4017 30.8968 24.4017 30.8758 24.3807 30.8338V30.7918C24.2924 30.5511 24.1867 30.3172 24.0646 30.0918C24.0436 30.0708 24.0436 30.0288 24.0226 30.0078C24.0098 29.9978 23.9993 29.9851 23.9921 29.9705C23.9848 29.956 23.9809 29.94 23.9806 29.9238C23.9481 29.8775 23.92 29.8283 23.8966 29.7768C23.8756 29.7558 23.8756 29.7348 23.8545 29.7138C23.8335 29.6928 23.8335 29.6718 23.8125 29.6508C23.7915 29.6298 23.7705 29.6088 23.7705 29.5878C23.7495 29.5458 23.7075 29.5038 23.6865 29.4618V29.4408C23.6655 29.4198 23.6445 29.3988 23.6445 29.3778C23.6025 29.3358 23.5815 29.2938 23.5395 29.2728L23.4554 29.1888L23.4344 29.1678L23.4134 29.1468C23.3479 29.0783 23.2773 29.0147 23.2024 28.9568L23.1813 28.9358C23.17 28.9244 23.1552 28.917 23.1393 28.9148C22.5098 28.4258 21.7846 28.0742 21.0107 27.8828C20.3074 27.69 19.5878 27.5631 18.861 27.5038C18.0178 27.4408 16.8794 27.3988 15.678 27.3348C15.573 27.3348 15.467 27.3138 15.3619 27.3138C13.776 27.2579 12.1971 27.0747 10.6405 26.7658C9.10203 26.4078 7.98469 25.8598 7.92167 24.9118C7.91817 24.8269 7.92522 24.7419 7.94267 24.6588C7.94409 24.6 7.95844 24.5423 7.98469 24.4898V24.4688C7.98469 24.4478 8.00569 24.4268 8.00569 24.4058V24.3888L8.06871 24.2628V24.2388C8.06871 24.2178 8.08972 24.1968 8.08972 24.1758C8.08972 24.1548 8.11073 24.1548 8.11073 24.1338C8.13173 24.1128 8.13173 24.0918 8.15274 24.0708C8.15274 24.0498 8.17375 24.0498 8.17375 24.0288C8.17375 24.0232 8.17596 24.0179 8.1799 24.0139C8.18384 24.01 8.18918 24.0078 8.19475 24.0078L8.21576 23.9868C8.23676 23.9658 8.25777 23.9448 8.25777 23.9238L8.27878 23.9028L8.3418 23.8398L8.40482 23.7768L8.42582 23.7558L8.46784 23.7138L8.61488 23.5668C10.7015 24.8728 13.6524 25.2098 16.4553 25.5268C19.7433 25.9058 22.8202 26.2428 24.1486 28.1398L24.1907 28.1818C24.9659 29.2177 25.3605 30.4891 25.308 31.7818V31.8028L25.288 31.8468ZM8.86896 30.4988C9.73322 30.6458 10.6185 30.7518 11.4828 30.8358C12.7471 30.9828 14.0325 31.0678 15.3189 31.1308C16.3723 31.1728 17.4056 31.2148 18.4589 31.2358C19.7023 31.2568 21.1777 31.2148 22.147 32.0578C22.345 32.2419 22.499 32.4681 22.5975 32.7199C22.6961 32.9716 22.7366 33.2422 22.7162 33.5118C22.6604 34.0217 22.4574 34.5045 22.1318 34.901C21.8062 35.2975 21.3721 35.5907 20.8826 35.7448C18.7432 36.5206 16.4765 36.8853 14.2016 36.8198H13.7164C11.8419 36.834 9.97298 36.6146 8.15274 36.1668C7.01439 35.8718 5.15982 35.3448 5.24385 33.6598C5.26442 33.364 5.32846 33.0729 5.43391 32.7958C5.71588 32.2391 6.07004 31.7219 6.48723 31.2578C6.67729 31.0258 6.88735 30.8158 7.09842 30.6048C7.16144 30.5418 7.30948 30.3728 7.45653 30.2258C7.45928 30.2258 7.46202 30.2252 7.46456 30.2242C7.46711 30.2231 7.46943 30.2216 7.47138 30.2196C7.47333 30.2177 7.47488 30.2153 7.47593 30.2128C7.47699 30.2103 7.47753 30.2075 7.47753 30.2048C7.59215 30.2228 7.70496 30.2509 7.81464 30.2888C8.15274 30.3728 8.51085 30.4388 8.86896 30.4988ZM7.6886 16.1498C7.79363 12.7368 10.1123 10.0398 12.8732 10.0398H13.0422C15.8871 10.1448 18.1008 13.0738 17.9948 16.5508C17.8897 19.9638 15.571 22.6608 12.8102 22.6608H12.6421C9.79624 22.5558 7.58356 19.6268 7.6886 16.1498ZM8.61588 23.5498C8.6789 23.4868 8.74192 23.4448 8.80594 23.3808C8.74292 23.4388 8.6789 23.4828 8.62088 23.5458L8.61588 23.5498ZM8.93198 23.4228L8.91097 23.4018C8.88997 23.4228 8.91097 23.4228 8.93198 23.4228ZM9.03701 23.4648H8.95298C8.97399 23.4438 9.016 23.4648 9.03701 23.4648ZM9.16305 23.5068L9.12104 23.4858H9.03701C9.07955 23.4891 9.12171 23.4962 9.16305 23.5068ZM9.35311 23.5698L9.31109 23.5488H9.26908L9.22707 23.5278H9.18506C9.24343 23.5318 9.30065 23.546 9.35411 23.5698H9.35311ZM9.54317 23.6118H9.39612C9.41713 23.5908 9.48015 23.6118 9.54317 23.6118ZM9.77524 23.6748H9.75423L9.69121 23.6538L9.62819 23.6328H9.58618C9.65136 23.6366 9.71551 23.6508 9.77624 23.6748H9.77524Z" fill="#9689A8"/>
<path d="M4.29217 11.3303C4.29217 11.3303 -1.26453 17.5303 6.80294 24.1303C7.01414 24.0256 7.21741 23.9056 7.41112 23.7713" stroke="#9689A8" stroke-width="0.1"/>
</svg>
